G04 #@! TF.GenerationSoftware,KiCad,Pcbnew,8.0.5*
G04 #@! TF.CreationDate,2025-02-19T23:07:02+01:00*
G04 #@! TF.ProjectId,Collettore_EBmetro_prg,436f6c6c-6574-4746-9f72-655f45426d65,rev?*
G04 #@! TF.SameCoordinates,Original*
G04 #@! TF.FileFunction,Soldermask,Top*
G04 #@! TF.FilePolarity,Negative*
%FSLAX46Y46*%
G04 Gerber Fmt 4.6, Leading zero omitted, Abs format (unit mm)*
G04 Created by KiCad (PCBNEW 8.0.5) date 2025-02-19 23:07:02*
%MOMM*%
%LPD*%
G01*
G04 APERTURE LIST*
%ADD10C,0.010000*%
%ADD11C,3.200000*%
G04 APERTURE END LIST*
D10*
X103293830Y-59942154D02*
X103263830Y-60012154D01*
X103163830Y-60262154D01*
X103083830Y-60552154D01*
X103023830Y-60852154D01*
X102993830Y-61242154D01*
X97003830Y-61242154D01*
X97013830Y-61052154D01*
X97023830Y-60602154D01*
X97103830Y-59902154D01*
X97263830Y-59102154D01*
X97513830Y-58272154D01*
X97743830Y-57682154D01*
X97913830Y-57312154D01*
X98083830Y-56982154D01*
X103293830Y-59942154D01*
G36*
X103293830Y-59942154D02*
G01*
X103263830Y-60012154D01*
X103163830Y-60262154D01*
X103083830Y-60552154D01*
X103023830Y-60852154D01*
X102993830Y-61242154D01*
X97003830Y-61242154D01*
X97013830Y-61052154D01*
X97023830Y-60602154D01*
X97103830Y-59902154D01*
X97263830Y-59102154D01*
X97513830Y-58272154D01*
X97743830Y-57682154D01*
X97913830Y-57312154D01*
X98083830Y-56982154D01*
X103293830Y-59942154D01*
G37*
X103293830Y-80942154D02*
X103263830Y-81012154D01*
X103163830Y-81262154D01*
X103083830Y-81552154D01*
X103023830Y-81852154D01*
X102993830Y-82242154D01*
X97003830Y-82242154D01*
X97013830Y-82052154D01*
X97023830Y-81602154D01*
X97103830Y-80902154D01*
X97263830Y-80102154D01*
X97513830Y-79272154D01*
X97743830Y-78682154D01*
X97913830Y-78312154D01*
X98083830Y-77982154D01*
X103293830Y-80942154D01*
G36*
X103293830Y-80942154D02*
G01*
X103263830Y-81012154D01*
X103163830Y-81262154D01*
X103083830Y-81552154D01*
X103023830Y-81852154D01*
X102993830Y-82242154D01*
X97003830Y-82242154D01*
X97013830Y-82052154D01*
X97023830Y-81602154D01*
X97103830Y-80902154D01*
X97263830Y-80102154D01*
X97513830Y-79272154D01*
X97743830Y-78682154D01*
X97913830Y-78312154D01*
X98083830Y-77982154D01*
X103293830Y-80942154D01*
G37*
X103293830Y-101942154D02*
X103263830Y-102012154D01*
X103163830Y-102262154D01*
X103083830Y-102552154D01*
X103023830Y-102852154D01*
X102993830Y-103242154D01*
X97003830Y-103242154D01*
X97013830Y-103052154D01*
X97023830Y-102602154D01*
X97103830Y-101902154D01*
X97263830Y-101102154D01*
X97513830Y-100272154D01*
X97743830Y-99682154D01*
X97913830Y-99312154D01*
X98083830Y-98982154D01*
X103293830Y-101942154D01*
G36*
X103293830Y-101942154D02*
G01*
X103263830Y-102012154D01*
X103163830Y-102262154D01*
X103083830Y-102552154D01*
X103023830Y-102852154D01*
X102993830Y-103242154D01*
X97003830Y-103242154D01*
X97013830Y-103052154D01*
X97023830Y-102602154D01*
X97103830Y-101902154D01*
X97263830Y-101102154D01*
X97513830Y-100272154D01*
X97743830Y-99682154D01*
X97913830Y-99312154D01*
X98083830Y-98982154D01*
X103293830Y-101942154D01*
G37*
X103293830Y-122942154D02*
X103263830Y-123012154D01*
X103163830Y-123262154D01*
X103083830Y-123552154D01*
X103023830Y-123852154D01*
X102993830Y-124242154D01*
X97003830Y-124242154D01*
X97013830Y-124052154D01*
X97023830Y-123602154D01*
X97103830Y-122902154D01*
X97263830Y-122102154D01*
X97513830Y-121272154D01*
X97743830Y-120682154D01*
X97913830Y-120312154D01*
X98083830Y-119982154D01*
X103293830Y-122942154D01*
G36*
X103293830Y-122942154D02*
G01*
X103263830Y-123012154D01*
X103163830Y-123262154D01*
X103083830Y-123552154D01*
X103023830Y-123852154D01*
X102993830Y-124242154D01*
X97003830Y-124242154D01*
X97013830Y-124052154D01*
X97023830Y-123602154D01*
X97103830Y-122902154D01*
X97263830Y-122102154D01*
X97513830Y-121272154D01*
X97743830Y-120682154D01*
X97913830Y-120312154D01*
X98083830Y-119982154D01*
X103293830Y-122942154D01*
G37*
X104793192Y-64004762D02*
X105043192Y-64104762D01*
X105333192Y-64184762D01*
X105633192Y-64244762D01*
X106023192Y-64274762D01*
X106023192Y-70264762D01*
X105833192Y-70254762D01*
X105383192Y-70244762D01*
X104683192Y-70164762D01*
X103883192Y-70004762D01*
X103053192Y-69754762D01*
X102463192Y-69524762D01*
X102093192Y-69354762D01*
X101763192Y-69184762D01*
X104723192Y-63974762D01*
X104793192Y-64004762D01*
G36*
X104793192Y-64004762D02*
G01*
X105043192Y-64104762D01*
X105333192Y-64184762D01*
X105633192Y-64244762D01*
X106023192Y-64274762D01*
X106023192Y-70264762D01*
X105833192Y-70254762D01*
X105383192Y-70244762D01*
X104683192Y-70164762D01*
X103883192Y-70004762D01*
X103053192Y-69754762D01*
X102463192Y-69524762D01*
X102093192Y-69354762D01*
X101763192Y-69184762D01*
X104723192Y-63974762D01*
X104793192Y-64004762D01*
G37*
X104793192Y-85004762D02*
X105043192Y-85104762D01*
X105333192Y-85184762D01*
X105633192Y-85244762D01*
X106023192Y-85274762D01*
X106023192Y-91264762D01*
X105833192Y-91254762D01*
X105383192Y-91244762D01*
X104683192Y-91164762D01*
X103883192Y-91004762D01*
X103053192Y-90754762D01*
X102463192Y-90524762D01*
X102093192Y-90354762D01*
X101763192Y-90184762D01*
X104723192Y-84974762D01*
X104793192Y-85004762D01*
G36*
X104793192Y-85004762D02*
G01*
X105043192Y-85104762D01*
X105333192Y-85184762D01*
X105633192Y-85244762D01*
X106023192Y-85274762D01*
X106023192Y-91264762D01*
X105833192Y-91254762D01*
X105383192Y-91244762D01*
X104683192Y-91164762D01*
X103883192Y-91004762D01*
X103053192Y-90754762D01*
X102463192Y-90524762D01*
X102093192Y-90354762D01*
X101763192Y-90184762D01*
X104723192Y-84974762D01*
X104793192Y-85004762D01*
G37*
X104793192Y-106004762D02*
X105043192Y-106104762D01*
X105333192Y-106184762D01*
X105633192Y-106244762D01*
X106023192Y-106274762D01*
X106023192Y-112264762D01*
X105833192Y-112254762D01*
X105383192Y-112244762D01*
X104683192Y-112164762D01*
X103883192Y-112004762D01*
X103053192Y-111754762D01*
X102463192Y-111524762D01*
X102093192Y-111354762D01*
X101763192Y-111184762D01*
X104723192Y-105974762D01*
X104793192Y-106004762D01*
G36*
X104793192Y-106004762D02*
G01*
X105043192Y-106104762D01*
X105333192Y-106184762D01*
X105633192Y-106244762D01*
X106023192Y-106274762D01*
X106023192Y-112264762D01*
X105833192Y-112254762D01*
X105383192Y-112244762D01*
X104683192Y-112164762D01*
X103883192Y-112004762D01*
X103053192Y-111754762D01*
X102463192Y-111524762D01*
X102093192Y-111354762D01*
X101763192Y-111184762D01*
X104723192Y-105974762D01*
X104793192Y-106004762D01*
G37*
X104793192Y-127004762D02*
X105043192Y-127104762D01*
X105333192Y-127184762D01*
X105633192Y-127244762D01*
X106023192Y-127274762D01*
X106023192Y-133264762D01*
X105833192Y-133254762D01*
X105383192Y-133244762D01*
X104683192Y-133164762D01*
X103883192Y-133004762D01*
X103053192Y-132754762D01*
X102463192Y-132524762D01*
X102093192Y-132354762D01*
X101763192Y-132184762D01*
X104723192Y-126974762D01*
X104793192Y-127004762D01*
G36*
X104793192Y-127004762D02*
G01*
X105043192Y-127104762D01*
X105333192Y-127184762D01*
X105633192Y-127244762D01*
X106023192Y-127274762D01*
X106023192Y-133264762D01*
X105833192Y-133254762D01*
X105383192Y-133244762D01*
X104683192Y-133164762D01*
X103883192Y-133004762D01*
X103053192Y-132754762D01*
X102463192Y-132524762D01*
X102093192Y-132354762D01*
X101763192Y-132184762D01*
X104723192Y-126974762D01*
X104793192Y-127004762D01*
G37*
X106209815Y-52268777D02*
X106659815Y-52278777D01*
X107359815Y-52358777D01*
X108159815Y-52518777D01*
X108989815Y-52768777D01*
X109579815Y-52998777D01*
X109949815Y-53168777D01*
X110279815Y-53338777D01*
X107319815Y-58548777D01*
X107249815Y-58518777D01*
X106999815Y-58418777D01*
X106709815Y-58338777D01*
X106409815Y-58278777D01*
X106019815Y-58248777D01*
X106019815Y-52258777D01*
X106209815Y-52268777D01*
G36*
X106209815Y-52268777D02*
G01*
X106659815Y-52278777D01*
X107359815Y-52358777D01*
X108159815Y-52518777D01*
X108989815Y-52768777D01*
X109579815Y-52998777D01*
X109949815Y-53168777D01*
X110279815Y-53338777D01*
X107319815Y-58548777D01*
X107249815Y-58518777D01*
X106999815Y-58418777D01*
X106709815Y-58338777D01*
X106409815Y-58278777D01*
X106019815Y-58248777D01*
X106019815Y-52258777D01*
X106209815Y-52268777D01*
G37*
X106209815Y-73268777D02*
X106659815Y-73278777D01*
X107359815Y-73358777D01*
X108159815Y-73518777D01*
X108989815Y-73768777D01*
X109579815Y-73998777D01*
X109949815Y-74168777D01*
X110279815Y-74338777D01*
X107319815Y-79548777D01*
X107249815Y-79518777D01*
X106999815Y-79418777D01*
X106709815Y-79338777D01*
X106409815Y-79278777D01*
X106019815Y-79248777D01*
X106019815Y-73258777D01*
X106209815Y-73268777D01*
G36*
X106209815Y-73268777D02*
G01*
X106659815Y-73278777D01*
X107359815Y-73358777D01*
X108159815Y-73518777D01*
X108989815Y-73768777D01*
X109579815Y-73998777D01*
X109949815Y-74168777D01*
X110279815Y-74338777D01*
X107319815Y-79548777D01*
X107249815Y-79518777D01*
X106999815Y-79418777D01*
X106709815Y-79338777D01*
X106409815Y-79278777D01*
X106019815Y-79248777D01*
X106019815Y-73258777D01*
X106209815Y-73268777D01*
G37*
X106209815Y-94268777D02*
X106659815Y-94278777D01*
X107359815Y-94358777D01*
X108159815Y-94518777D01*
X108989815Y-94768777D01*
X109579815Y-94998777D01*
X109949815Y-95168777D01*
X110279815Y-95338777D01*
X107319815Y-100548777D01*
X107249815Y-100518777D01*
X106999815Y-100418777D01*
X106709815Y-100338777D01*
X106409815Y-100278777D01*
X106019815Y-100248777D01*
X106019815Y-94258777D01*
X106209815Y-94268777D01*
G36*
X106209815Y-94268777D02*
G01*
X106659815Y-94278777D01*
X107359815Y-94358777D01*
X108159815Y-94518777D01*
X108989815Y-94768777D01*
X109579815Y-94998777D01*
X109949815Y-95168777D01*
X110279815Y-95338777D01*
X107319815Y-100548777D01*
X107249815Y-100518777D01*
X106999815Y-100418777D01*
X106709815Y-100338777D01*
X106409815Y-100278777D01*
X106019815Y-100248777D01*
X106019815Y-94258777D01*
X106209815Y-94268777D01*
G37*
X106209815Y-115268777D02*
X106659815Y-115278777D01*
X107359815Y-115358777D01*
X108159815Y-115518777D01*
X108989815Y-115768777D01*
X109579815Y-115998777D01*
X109949815Y-116168777D01*
X110279815Y-116338777D01*
X107319815Y-121548777D01*
X107249815Y-121518777D01*
X106999815Y-121418777D01*
X106709815Y-121338777D01*
X106409815Y-121278777D01*
X106019815Y-121248777D01*
X106019815Y-115258777D01*
X106209815Y-115268777D01*
G36*
X106209815Y-115268777D02*
G01*
X106659815Y-115278777D01*
X107359815Y-115358777D01*
X108159815Y-115518777D01*
X108989815Y-115768777D01*
X109579815Y-115998777D01*
X109949815Y-116168777D01*
X110279815Y-116338777D01*
X107319815Y-121548777D01*
X107249815Y-121518777D01*
X106999815Y-121418777D01*
X106709815Y-121338777D01*
X106409815Y-121278777D01*
X106019815Y-121248777D01*
X106019815Y-115258777D01*
X106209815Y-115268777D01*
G37*
X114995800Y-61465400D02*
X114985800Y-61915400D01*
X114905800Y-62615400D01*
X114745800Y-63415400D01*
X114495800Y-64245400D01*
X114265800Y-64835400D01*
X114095800Y-65205400D01*
X113925800Y-65535400D01*
X108715800Y-62575400D01*
X108745800Y-62505400D01*
X108845800Y-62255400D01*
X108925800Y-61965400D01*
X108985800Y-61665400D01*
X109015800Y-61275400D01*
X115005800Y-61275400D01*
X114995800Y-61465400D01*
G36*
X114995800Y-61465400D02*
G01*
X114985800Y-61915400D01*
X114905800Y-62615400D01*
X114745800Y-63415400D01*
X114495800Y-64245400D01*
X114265800Y-64835400D01*
X114095800Y-65205400D01*
X113925800Y-65535400D01*
X108715800Y-62575400D01*
X108745800Y-62505400D01*
X108845800Y-62255400D01*
X108925800Y-61965400D01*
X108985800Y-61665400D01*
X109015800Y-61275400D01*
X115005800Y-61275400D01*
X114995800Y-61465400D01*
G37*
X114995800Y-82465400D02*
X114985800Y-82915400D01*
X114905800Y-83615400D01*
X114745800Y-84415400D01*
X114495800Y-85245400D01*
X114265800Y-85835400D01*
X114095800Y-86205400D01*
X113925800Y-86535400D01*
X108715800Y-83575400D01*
X108745800Y-83505400D01*
X108845800Y-83255400D01*
X108925800Y-82965400D01*
X108985800Y-82665400D01*
X109015800Y-82275400D01*
X115005800Y-82275400D01*
X114995800Y-82465400D01*
G36*
X114995800Y-82465400D02*
G01*
X114985800Y-82915400D01*
X114905800Y-83615400D01*
X114745800Y-84415400D01*
X114495800Y-85245400D01*
X114265800Y-85835400D01*
X114095800Y-86205400D01*
X113925800Y-86535400D01*
X108715800Y-83575400D01*
X108745800Y-83505400D01*
X108845800Y-83255400D01*
X108925800Y-82965400D01*
X108985800Y-82665400D01*
X109015800Y-82275400D01*
X115005800Y-82275400D01*
X114995800Y-82465400D01*
G37*
X114995800Y-103465400D02*
X114985800Y-103915400D01*
X114905800Y-104615400D01*
X114745800Y-105415400D01*
X114495800Y-106245400D01*
X114265800Y-106835400D01*
X114095800Y-107205400D01*
X113925800Y-107535400D01*
X108715800Y-104575400D01*
X108745800Y-104505400D01*
X108845800Y-104255400D01*
X108925800Y-103965400D01*
X108985800Y-103665400D01*
X109015800Y-103275400D01*
X115005800Y-103275400D01*
X114995800Y-103465400D01*
G36*
X114995800Y-103465400D02*
G01*
X114985800Y-103915400D01*
X114905800Y-104615400D01*
X114745800Y-105415400D01*
X114495800Y-106245400D01*
X114265800Y-106835400D01*
X114095800Y-107205400D01*
X113925800Y-107535400D01*
X108715800Y-104575400D01*
X108745800Y-104505400D01*
X108845800Y-104255400D01*
X108925800Y-103965400D01*
X108985800Y-103665400D01*
X109015800Y-103275400D01*
X115005800Y-103275400D01*
X114995800Y-103465400D01*
G37*
X114995800Y-124465400D02*
X114985800Y-124915400D01*
X114905800Y-125615400D01*
X114745800Y-126415400D01*
X114495800Y-127245400D01*
X114265800Y-127835400D01*
X114095800Y-128205400D01*
X113925800Y-128535400D01*
X108715800Y-125575400D01*
X108745800Y-125505400D01*
X108845800Y-125255400D01*
X108925800Y-124965400D01*
X108985800Y-124665400D01*
X109015800Y-124275400D01*
X115005800Y-124275400D01*
X114995800Y-124465400D01*
G36*
X114995800Y-124465400D02*
G01*
X114985800Y-124915400D01*
X114905800Y-125615400D01*
X114745800Y-126415400D01*
X114495800Y-127245400D01*
X114265800Y-127835400D01*
X114095800Y-128205400D01*
X113925800Y-128535400D01*
X108715800Y-125575400D01*
X108745800Y-125505400D01*
X108845800Y-125255400D01*
X108925800Y-124965400D01*
X108985800Y-124665400D01*
X109015800Y-124275400D01*
X115005800Y-124275400D01*
X114995800Y-124465400D01*
G37*
X124293830Y-59942154D02*
X124263830Y-60012154D01*
X124163830Y-60262154D01*
X124083830Y-60552154D01*
X124023830Y-60852154D01*
X123993830Y-61242154D01*
X118003830Y-61242154D01*
X118013830Y-61052154D01*
X118023830Y-60602154D01*
X118103830Y-59902154D01*
X118263830Y-59102154D01*
X118513830Y-58272154D01*
X118743830Y-57682154D01*
X118913830Y-57312154D01*
X119083830Y-56982154D01*
X124293830Y-59942154D01*
G36*
X124293830Y-59942154D02*
G01*
X124263830Y-60012154D01*
X124163830Y-60262154D01*
X124083830Y-60552154D01*
X124023830Y-60852154D01*
X123993830Y-61242154D01*
X118003830Y-61242154D01*
X118013830Y-61052154D01*
X118023830Y-60602154D01*
X118103830Y-59902154D01*
X118263830Y-59102154D01*
X118513830Y-58272154D01*
X118743830Y-57682154D01*
X118913830Y-57312154D01*
X119083830Y-56982154D01*
X124293830Y-59942154D01*
G37*
X124293830Y-80942154D02*
X124263830Y-81012154D01*
X124163830Y-81262154D01*
X124083830Y-81552154D01*
X124023830Y-81852154D01*
X123993830Y-82242154D01*
X118003830Y-82242154D01*
X118013830Y-82052154D01*
X118023830Y-81602154D01*
X118103830Y-80902154D01*
X118263830Y-80102154D01*
X118513830Y-79272154D01*
X118743830Y-78682154D01*
X118913830Y-78312154D01*
X119083830Y-77982154D01*
X124293830Y-80942154D01*
G36*
X124293830Y-80942154D02*
G01*
X124263830Y-81012154D01*
X124163830Y-81262154D01*
X124083830Y-81552154D01*
X124023830Y-81852154D01*
X123993830Y-82242154D01*
X118003830Y-82242154D01*
X118013830Y-82052154D01*
X118023830Y-81602154D01*
X118103830Y-80902154D01*
X118263830Y-80102154D01*
X118513830Y-79272154D01*
X118743830Y-78682154D01*
X118913830Y-78312154D01*
X119083830Y-77982154D01*
X124293830Y-80942154D01*
G37*
X124293830Y-101942154D02*
X124263830Y-102012154D01*
X124163830Y-102262154D01*
X124083830Y-102552154D01*
X124023830Y-102852154D01*
X123993830Y-103242154D01*
X118003830Y-103242154D01*
X118013830Y-103052154D01*
X118023830Y-102602154D01*
X118103830Y-101902154D01*
X118263830Y-101102154D01*
X118513830Y-100272154D01*
X118743830Y-99682154D01*
X118913830Y-99312154D01*
X119083830Y-98982154D01*
X124293830Y-101942154D01*
G36*
X124293830Y-101942154D02*
G01*
X124263830Y-102012154D01*
X124163830Y-102262154D01*
X124083830Y-102552154D01*
X124023830Y-102852154D01*
X123993830Y-103242154D01*
X118003830Y-103242154D01*
X118013830Y-103052154D01*
X118023830Y-102602154D01*
X118103830Y-101902154D01*
X118263830Y-101102154D01*
X118513830Y-100272154D01*
X118743830Y-99682154D01*
X118913830Y-99312154D01*
X119083830Y-98982154D01*
X124293830Y-101942154D01*
G37*
X124293830Y-122942154D02*
X124263830Y-123012154D01*
X124163830Y-123262154D01*
X124083830Y-123552154D01*
X124023830Y-123852154D01*
X123993830Y-124242154D01*
X118003830Y-124242154D01*
X118013830Y-124052154D01*
X118023830Y-123602154D01*
X118103830Y-122902154D01*
X118263830Y-122102154D01*
X118513830Y-121272154D01*
X118743830Y-120682154D01*
X118913830Y-120312154D01*
X119083830Y-119982154D01*
X124293830Y-122942154D01*
G36*
X124293830Y-122942154D02*
G01*
X124263830Y-123012154D01*
X124163830Y-123262154D01*
X124083830Y-123552154D01*
X124023830Y-123852154D01*
X123993830Y-124242154D01*
X118003830Y-124242154D01*
X118013830Y-124052154D01*
X118023830Y-123602154D01*
X118103830Y-122902154D01*
X118263830Y-122102154D01*
X118513830Y-121272154D01*
X118743830Y-120682154D01*
X118913830Y-120312154D01*
X119083830Y-119982154D01*
X124293830Y-122942154D01*
G37*
X125793192Y-64004762D02*
X126043192Y-64104762D01*
X126333192Y-64184762D01*
X126633192Y-64244762D01*
X127023192Y-64274762D01*
X127023192Y-70264762D01*
X126833192Y-70254762D01*
X126383192Y-70244762D01*
X125683192Y-70164762D01*
X124883192Y-70004762D01*
X124053192Y-69754762D01*
X123463192Y-69524762D01*
X123093192Y-69354762D01*
X122763192Y-69184762D01*
X125723192Y-63974762D01*
X125793192Y-64004762D01*
G36*
X125793192Y-64004762D02*
G01*
X126043192Y-64104762D01*
X126333192Y-64184762D01*
X126633192Y-64244762D01*
X127023192Y-64274762D01*
X127023192Y-70264762D01*
X126833192Y-70254762D01*
X126383192Y-70244762D01*
X125683192Y-70164762D01*
X124883192Y-70004762D01*
X124053192Y-69754762D01*
X123463192Y-69524762D01*
X123093192Y-69354762D01*
X122763192Y-69184762D01*
X125723192Y-63974762D01*
X125793192Y-64004762D01*
G37*
X125793192Y-85004762D02*
X126043192Y-85104762D01*
X126333192Y-85184762D01*
X126633192Y-85244762D01*
X127023192Y-85274762D01*
X127023192Y-91264762D01*
X126833192Y-91254762D01*
X126383192Y-91244762D01*
X125683192Y-91164762D01*
X124883192Y-91004762D01*
X124053192Y-90754762D01*
X123463192Y-90524762D01*
X123093192Y-90354762D01*
X122763192Y-90184762D01*
X125723192Y-84974762D01*
X125793192Y-85004762D01*
G36*
X125793192Y-85004762D02*
G01*
X126043192Y-85104762D01*
X126333192Y-85184762D01*
X126633192Y-85244762D01*
X127023192Y-85274762D01*
X127023192Y-91264762D01*
X126833192Y-91254762D01*
X126383192Y-91244762D01*
X125683192Y-91164762D01*
X124883192Y-91004762D01*
X124053192Y-90754762D01*
X123463192Y-90524762D01*
X123093192Y-90354762D01*
X122763192Y-90184762D01*
X125723192Y-84974762D01*
X125793192Y-85004762D01*
G37*
X125793192Y-106004762D02*
X126043192Y-106104762D01*
X126333192Y-106184762D01*
X126633192Y-106244762D01*
X127023192Y-106274762D01*
X127023192Y-112264762D01*
X126833192Y-112254762D01*
X126383192Y-112244762D01*
X125683192Y-112164762D01*
X124883192Y-112004762D01*
X124053192Y-111754762D01*
X123463192Y-111524762D01*
X123093192Y-111354762D01*
X122763192Y-111184762D01*
X125723192Y-105974762D01*
X125793192Y-106004762D01*
G36*
X125793192Y-106004762D02*
G01*
X126043192Y-106104762D01*
X126333192Y-106184762D01*
X126633192Y-106244762D01*
X127023192Y-106274762D01*
X127023192Y-112264762D01*
X126833192Y-112254762D01*
X126383192Y-112244762D01*
X125683192Y-112164762D01*
X124883192Y-112004762D01*
X124053192Y-111754762D01*
X123463192Y-111524762D01*
X123093192Y-111354762D01*
X122763192Y-111184762D01*
X125723192Y-105974762D01*
X125793192Y-106004762D01*
G37*
X125793192Y-127004762D02*
X126043192Y-127104762D01*
X126333192Y-127184762D01*
X126633192Y-127244762D01*
X127023192Y-127274762D01*
X127023192Y-133264762D01*
X126833192Y-133254762D01*
X126383192Y-133244762D01*
X125683192Y-133164762D01*
X124883192Y-133004762D01*
X124053192Y-132754762D01*
X123463192Y-132524762D01*
X123093192Y-132354762D01*
X122763192Y-132184762D01*
X125723192Y-126974762D01*
X125793192Y-127004762D01*
G36*
X125793192Y-127004762D02*
G01*
X126043192Y-127104762D01*
X126333192Y-127184762D01*
X126633192Y-127244762D01*
X127023192Y-127274762D01*
X127023192Y-133264762D01*
X126833192Y-133254762D01*
X126383192Y-133244762D01*
X125683192Y-133164762D01*
X124883192Y-133004762D01*
X124053192Y-132754762D01*
X123463192Y-132524762D01*
X123093192Y-132354762D01*
X122763192Y-132184762D01*
X125723192Y-126974762D01*
X125793192Y-127004762D01*
G37*
X127209815Y-52268777D02*
X127659815Y-52278777D01*
X128359815Y-52358777D01*
X129159815Y-52518777D01*
X129989815Y-52768777D01*
X130579815Y-52998777D01*
X130949815Y-53168777D01*
X131279815Y-53338777D01*
X128319815Y-58548777D01*
X128249815Y-58518777D01*
X127999815Y-58418777D01*
X127709815Y-58338777D01*
X127409815Y-58278777D01*
X127019815Y-58248777D01*
X127019815Y-52258777D01*
X127209815Y-52268777D01*
G36*
X127209815Y-52268777D02*
G01*
X127659815Y-52278777D01*
X128359815Y-52358777D01*
X129159815Y-52518777D01*
X129989815Y-52768777D01*
X130579815Y-52998777D01*
X130949815Y-53168777D01*
X131279815Y-53338777D01*
X128319815Y-58548777D01*
X128249815Y-58518777D01*
X127999815Y-58418777D01*
X127709815Y-58338777D01*
X127409815Y-58278777D01*
X127019815Y-58248777D01*
X127019815Y-52258777D01*
X127209815Y-52268777D01*
G37*
X127209815Y-73268777D02*
X127659815Y-73278777D01*
X128359815Y-73358777D01*
X129159815Y-73518777D01*
X129989815Y-73768777D01*
X130579815Y-73998777D01*
X130949815Y-74168777D01*
X131279815Y-74338777D01*
X128319815Y-79548777D01*
X128249815Y-79518777D01*
X127999815Y-79418777D01*
X127709815Y-79338777D01*
X127409815Y-79278777D01*
X127019815Y-79248777D01*
X127019815Y-73258777D01*
X127209815Y-73268777D01*
G36*
X127209815Y-73268777D02*
G01*
X127659815Y-73278777D01*
X128359815Y-73358777D01*
X129159815Y-73518777D01*
X129989815Y-73768777D01*
X130579815Y-73998777D01*
X130949815Y-74168777D01*
X131279815Y-74338777D01*
X128319815Y-79548777D01*
X128249815Y-79518777D01*
X127999815Y-79418777D01*
X127709815Y-79338777D01*
X127409815Y-79278777D01*
X127019815Y-79248777D01*
X127019815Y-73258777D01*
X127209815Y-73268777D01*
G37*
X127209815Y-94268777D02*
X127659815Y-94278777D01*
X128359815Y-94358777D01*
X129159815Y-94518777D01*
X129989815Y-94768777D01*
X130579815Y-94998777D01*
X130949815Y-95168777D01*
X131279815Y-95338777D01*
X128319815Y-100548777D01*
X128249815Y-100518777D01*
X127999815Y-100418777D01*
X127709815Y-100338777D01*
X127409815Y-100278777D01*
X127019815Y-100248777D01*
X127019815Y-94258777D01*
X127209815Y-94268777D01*
G36*
X127209815Y-94268777D02*
G01*
X127659815Y-94278777D01*
X128359815Y-94358777D01*
X129159815Y-94518777D01*
X129989815Y-94768777D01*
X130579815Y-94998777D01*
X130949815Y-95168777D01*
X131279815Y-95338777D01*
X128319815Y-100548777D01*
X128249815Y-100518777D01*
X127999815Y-100418777D01*
X127709815Y-100338777D01*
X127409815Y-100278777D01*
X127019815Y-100248777D01*
X127019815Y-94258777D01*
X127209815Y-94268777D01*
G37*
X127209815Y-115268777D02*
X127659815Y-115278777D01*
X128359815Y-115358777D01*
X129159815Y-115518777D01*
X129989815Y-115768777D01*
X130579815Y-115998777D01*
X130949815Y-116168777D01*
X131279815Y-116338777D01*
X128319815Y-121548777D01*
X128249815Y-121518777D01*
X127999815Y-121418777D01*
X127709815Y-121338777D01*
X127409815Y-121278777D01*
X127019815Y-121248777D01*
X127019815Y-115258777D01*
X127209815Y-115268777D01*
G36*
X127209815Y-115268777D02*
G01*
X127659815Y-115278777D01*
X128359815Y-115358777D01*
X129159815Y-115518777D01*
X129989815Y-115768777D01*
X130579815Y-115998777D01*
X130949815Y-116168777D01*
X131279815Y-116338777D01*
X128319815Y-121548777D01*
X128249815Y-121518777D01*
X127999815Y-121418777D01*
X127709815Y-121338777D01*
X127409815Y-121278777D01*
X127019815Y-121248777D01*
X127019815Y-115258777D01*
X127209815Y-115268777D01*
G37*
X135995800Y-61465400D02*
X135985800Y-61915400D01*
X135905800Y-62615400D01*
X135745800Y-63415400D01*
X135495800Y-64245400D01*
X135265800Y-64835400D01*
X135095800Y-65205400D01*
X134925800Y-65535400D01*
X129715800Y-62575400D01*
X129745800Y-62505400D01*
X129845800Y-62255400D01*
X129925800Y-61965400D01*
X129985800Y-61665400D01*
X130015800Y-61275400D01*
X136005800Y-61275400D01*
X135995800Y-61465400D01*
G36*
X135995800Y-61465400D02*
G01*
X135985800Y-61915400D01*
X135905800Y-62615400D01*
X135745800Y-63415400D01*
X135495800Y-64245400D01*
X135265800Y-64835400D01*
X135095800Y-65205400D01*
X134925800Y-65535400D01*
X129715800Y-62575400D01*
X129745800Y-62505400D01*
X129845800Y-62255400D01*
X129925800Y-61965400D01*
X129985800Y-61665400D01*
X130015800Y-61275400D01*
X136005800Y-61275400D01*
X135995800Y-61465400D01*
G37*
X135995800Y-82465400D02*
X135985800Y-82915400D01*
X135905800Y-83615400D01*
X135745800Y-84415400D01*
X135495800Y-85245400D01*
X135265800Y-85835400D01*
X135095800Y-86205400D01*
X134925800Y-86535400D01*
X129715800Y-83575400D01*
X129745800Y-83505400D01*
X129845800Y-83255400D01*
X129925800Y-82965400D01*
X129985800Y-82665400D01*
X130015800Y-82275400D01*
X136005800Y-82275400D01*
X135995800Y-82465400D01*
G36*
X135995800Y-82465400D02*
G01*
X135985800Y-82915400D01*
X135905800Y-83615400D01*
X135745800Y-84415400D01*
X135495800Y-85245400D01*
X135265800Y-85835400D01*
X135095800Y-86205400D01*
X134925800Y-86535400D01*
X129715800Y-83575400D01*
X129745800Y-83505400D01*
X129845800Y-83255400D01*
X129925800Y-82965400D01*
X129985800Y-82665400D01*
X130015800Y-82275400D01*
X136005800Y-82275400D01*
X135995800Y-82465400D01*
G37*
X135995800Y-103465400D02*
X135985800Y-103915400D01*
X135905800Y-104615400D01*
X135745800Y-105415400D01*
X135495800Y-106245400D01*
X135265800Y-106835400D01*
X135095800Y-107205400D01*
X134925800Y-107535400D01*
X129715800Y-104575400D01*
X129745800Y-104505400D01*
X129845800Y-104255400D01*
X129925800Y-103965400D01*
X129985800Y-103665400D01*
X130015800Y-103275400D01*
X136005800Y-103275400D01*
X135995800Y-103465400D01*
G36*
X135995800Y-103465400D02*
G01*
X135985800Y-103915400D01*
X135905800Y-104615400D01*
X135745800Y-105415400D01*
X135495800Y-106245400D01*
X135265800Y-106835400D01*
X135095800Y-107205400D01*
X134925800Y-107535400D01*
X129715800Y-104575400D01*
X129745800Y-104505400D01*
X129845800Y-104255400D01*
X129925800Y-103965400D01*
X129985800Y-103665400D01*
X130015800Y-103275400D01*
X136005800Y-103275400D01*
X135995800Y-103465400D01*
G37*
X135995800Y-124465400D02*
X135985800Y-124915400D01*
X135905800Y-125615400D01*
X135745800Y-126415400D01*
X135495800Y-127245400D01*
X135265800Y-127835400D01*
X135095800Y-128205400D01*
X134925800Y-128535400D01*
X129715800Y-125575400D01*
X129745800Y-125505400D01*
X129845800Y-125255400D01*
X129925800Y-124965400D01*
X129985800Y-124665400D01*
X130015800Y-124275400D01*
X136005800Y-124275400D01*
X135995800Y-124465400D01*
G36*
X135995800Y-124465400D02*
G01*
X135985800Y-124915400D01*
X135905800Y-125615400D01*
X135745800Y-126415400D01*
X135495800Y-127245400D01*
X135265800Y-127835400D01*
X135095800Y-128205400D01*
X134925800Y-128535400D01*
X129715800Y-125575400D01*
X129745800Y-125505400D01*
X129845800Y-125255400D01*
X129925800Y-124965400D01*
X129985800Y-124665400D01*
X130015800Y-124275400D01*
X136005800Y-124275400D01*
X135995800Y-124465400D01*
G37*
X145293830Y-59942154D02*
X145263830Y-60012154D01*
X145163830Y-60262154D01*
X145083830Y-60552154D01*
X145023830Y-60852154D01*
X144993830Y-61242154D01*
X139003830Y-61242154D01*
X139013830Y-61052154D01*
X139023830Y-60602154D01*
X139103830Y-59902154D01*
X139263830Y-59102154D01*
X139513830Y-58272154D01*
X139743830Y-57682154D01*
X139913830Y-57312154D01*
X140083830Y-56982154D01*
X145293830Y-59942154D01*
G36*
X145293830Y-59942154D02*
G01*
X145263830Y-60012154D01*
X145163830Y-60262154D01*
X145083830Y-60552154D01*
X145023830Y-60852154D01*
X144993830Y-61242154D01*
X139003830Y-61242154D01*
X139013830Y-61052154D01*
X139023830Y-60602154D01*
X139103830Y-59902154D01*
X139263830Y-59102154D01*
X139513830Y-58272154D01*
X139743830Y-57682154D01*
X139913830Y-57312154D01*
X140083830Y-56982154D01*
X145293830Y-59942154D01*
G37*
X145293830Y-80942154D02*
X145263830Y-81012154D01*
X145163830Y-81262154D01*
X145083830Y-81552154D01*
X145023830Y-81852154D01*
X144993830Y-82242154D01*
X139003830Y-82242154D01*
X139013830Y-82052154D01*
X139023830Y-81602154D01*
X139103830Y-80902154D01*
X139263830Y-80102154D01*
X139513830Y-79272154D01*
X139743830Y-78682154D01*
X139913830Y-78312154D01*
X140083830Y-77982154D01*
X145293830Y-80942154D01*
G36*
X145293830Y-80942154D02*
G01*
X145263830Y-81012154D01*
X145163830Y-81262154D01*
X145083830Y-81552154D01*
X145023830Y-81852154D01*
X144993830Y-82242154D01*
X139003830Y-82242154D01*
X139013830Y-82052154D01*
X139023830Y-81602154D01*
X139103830Y-80902154D01*
X139263830Y-80102154D01*
X139513830Y-79272154D01*
X139743830Y-78682154D01*
X139913830Y-78312154D01*
X140083830Y-77982154D01*
X145293830Y-80942154D01*
G37*
X145293830Y-101942154D02*
X145263830Y-102012154D01*
X145163830Y-102262154D01*
X145083830Y-102552154D01*
X145023830Y-102852154D01*
X144993830Y-103242154D01*
X139003830Y-103242154D01*
X139013830Y-103052154D01*
X139023830Y-102602154D01*
X139103830Y-101902154D01*
X139263830Y-101102154D01*
X139513830Y-100272154D01*
X139743830Y-99682154D01*
X139913830Y-99312154D01*
X140083830Y-98982154D01*
X145293830Y-101942154D01*
G36*
X145293830Y-101942154D02*
G01*
X145263830Y-102012154D01*
X145163830Y-102262154D01*
X145083830Y-102552154D01*
X145023830Y-102852154D01*
X144993830Y-103242154D01*
X139003830Y-103242154D01*
X139013830Y-103052154D01*
X139023830Y-102602154D01*
X139103830Y-101902154D01*
X139263830Y-101102154D01*
X139513830Y-100272154D01*
X139743830Y-99682154D01*
X139913830Y-99312154D01*
X140083830Y-98982154D01*
X145293830Y-101942154D01*
G37*
X145293830Y-122942154D02*
X145263830Y-123012154D01*
X145163830Y-123262154D01*
X145083830Y-123552154D01*
X145023830Y-123852154D01*
X144993830Y-124242154D01*
X139003830Y-124242154D01*
X139013830Y-124052154D01*
X139023830Y-123602154D01*
X139103830Y-122902154D01*
X139263830Y-122102154D01*
X139513830Y-121272154D01*
X139743830Y-120682154D01*
X139913830Y-120312154D01*
X140083830Y-119982154D01*
X145293830Y-122942154D01*
G36*
X145293830Y-122942154D02*
G01*
X145263830Y-123012154D01*
X145163830Y-123262154D01*
X145083830Y-123552154D01*
X145023830Y-123852154D01*
X144993830Y-124242154D01*
X139003830Y-124242154D01*
X139013830Y-124052154D01*
X139023830Y-123602154D01*
X139103830Y-122902154D01*
X139263830Y-122102154D01*
X139513830Y-121272154D01*
X139743830Y-120682154D01*
X139913830Y-120312154D01*
X140083830Y-119982154D01*
X145293830Y-122942154D01*
G37*
X146793192Y-64004762D02*
X147043192Y-64104762D01*
X147333192Y-64184762D01*
X147633192Y-64244762D01*
X148023192Y-64274762D01*
X148023192Y-70264762D01*
X147833192Y-70254762D01*
X147383192Y-70244762D01*
X146683192Y-70164762D01*
X145883192Y-70004762D01*
X145053192Y-69754762D01*
X144463192Y-69524762D01*
X144093192Y-69354762D01*
X143763192Y-69184762D01*
X146723192Y-63974762D01*
X146793192Y-64004762D01*
G36*
X146793192Y-64004762D02*
G01*
X147043192Y-64104762D01*
X147333192Y-64184762D01*
X147633192Y-64244762D01*
X148023192Y-64274762D01*
X148023192Y-70264762D01*
X147833192Y-70254762D01*
X147383192Y-70244762D01*
X146683192Y-70164762D01*
X145883192Y-70004762D01*
X145053192Y-69754762D01*
X144463192Y-69524762D01*
X144093192Y-69354762D01*
X143763192Y-69184762D01*
X146723192Y-63974762D01*
X146793192Y-64004762D01*
G37*
X146793192Y-85004762D02*
X147043192Y-85104762D01*
X147333192Y-85184762D01*
X147633192Y-85244762D01*
X148023192Y-85274762D01*
X148023192Y-91264762D01*
X147833192Y-91254762D01*
X147383192Y-91244762D01*
X146683192Y-91164762D01*
X145883192Y-91004762D01*
X145053192Y-90754762D01*
X144463192Y-90524762D01*
X144093192Y-90354762D01*
X143763192Y-90184762D01*
X146723192Y-84974762D01*
X146793192Y-85004762D01*
G36*
X146793192Y-85004762D02*
G01*
X147043192Y-85104762D01*
X147333192Y-85184762D01*
X147633192Y-85244762D01*
X148023192Y-85274762D01*
X148023192Y-91264762D01*
X147833192Y-91254762D01*
X147383192Y-91244762D01*
X146683192Y-91164762D01*
X145883192Y-91004762D01*
X145053192Y-90754762D01*
X144463192Y-90524762D01*
X144093192Y-90354762D01*
X143763192Y-90184762D01*
X146723192Y-84974762D01*
X146793192Y-85004762D01*
G37*
X146793192Y-106004762D02*
X147043192Y-106104762D01*
X147333192Y-106184762D01*
X147633192Y-106244762D01*
X148023192Y-106274762D01*
X148023192Y-112264762D01*
X147833192Y-112254762D01*
X147383192Y-112244762D01*
X146683192Y-112164762D01*
X145883192Y-112004762D01*
X145053192Y-111754762D01*
X144463192Y-111524762D01*
X144093192Y-111354762D01*
X143763192Y-111184762D01*
X146723192Y-105974762D01*
X146793192Y-106004762D01*
G36*
X146793192Y-106004762D02*
G01*
X147043192Y-106104762D01*
X147333192Y-106184762D01*
X147633192Y-106244762D01*
X148023192Y-106274762D01*
X148023192Y-112264762D01*
X147833192Y-112254762D01*
X147383192Y-112244762D01*
X146683192Y-112164762D01*
X145883192Y-112004762D01*
X145053192Y-111754762D01*
X144463192Y-111524762D01*
X144093192Y-111354762D01*
X143763192Y-111184762D01*
X146723192Y-105974762D01*
X146793192Y-106004762D01*
G37*
X146793192Y-127004762D02*
X147043192Y-127104762D01*
X147333192Y-127184762D01*
X147633192Y-127244762D01*
X148023192Y-127274762D01*
X148023192Y-133264762D01*
X147833192Y-133254762D01*
X147383192Y-133244762D01*
X146683192Y-133164762D01*
X145883192Y-133004762D01*
X145053192Y-132754762D01*
X144463192Y-132524762D01*
X144093192Y-132354762D01*
X143763192Y-132184762D01*
X146723192Y-126974762D01*
X146793192Y-127004762D01*
G36*
X146793192Y-127004762D02*
G01*
X147043192Y-127104762D01*
X147333192Y-127184762D01*
X147633192Y-127244762D01*
X148023192Y-127274762D01*
X148023192Y-133264762D01*
X147833192Y-133254762D01*
X147383192Y-133244762D01*
X146683192Y-133164762D01*
X145883192Y-133004762D01*
X145053192Y-132754762D01*
X144463192Y-132524762D01*
X144093192Y-132354762D01*
X143763192Y-132184762D01*
X146723192Y-126974762D01*
X146793192Y-127004762D01*
G37*
X148209815Y-52268777D02*
X148659815Y-52278777D01*
X149359815Y-52358777D01*
X150159815Y-52518777D01*
X150989815Y-52768777D01*
X151579815Y-52998777D01*
X151949815Y-53168777D01*
X152279815Y-53338777D01*
X149319815Y-58548777D01*
X149249815Y-58518777D01*
X148999815Y-58418777D01*
X148709815Y-58338777D01*
X148409815Y-58278777D01*
X148019815Y-58248777D01*
X148019815Y-52258777D01*
X148209815Y-52268777D01*
G36*
X148209815Y-52268777D02*
G01*
X148659815Y-52278777D01*
X149359815Y-52358777D01*
X150159815Y-52518777D01*
X150989815Y-52768777D01*
X151579815Y-52998777D01*
X151949815Y-53168777D01*
X152279815Y-53338777D01*
X149319815Y-58548777D01*
X149249815Y-58518777D01*
X148999815Y-58418777D01*
X148709815Y-58338777D01*
X148409815Y-58278777D01*
X148019815Y-58248777D01*
X148019815Y-52258777D01*
X148209815Y-52268777D01*
G37*
X148209815Y-73268777D02*
X148659815Y-73278777D01*
X149359815Y-73358777D01*
X150159815Y-73518777D01*
X150989815Y-73768777D01*
X151579815Y-73998777D01*
X151949815Y-74168777D01*
X152279815Y-74338777D01*
X149319815Y-79548777D01*
X149249815Y-79518777D01*
X148999815Y-79418777D01*
X148709815Y-79338777D01*
X148409815Y-79278777D01*
X148019815Y-79248777D01*
X148019815Y-73258777D01*
X148209815Y-73268777D01*
G36*
X148209815Y-73268777D02*
G01*
X148659815Y-73278777D01*
X149359815Y-73358777D01*
X150159815Y-73518777D01*
X150989815Y-73768777D01*
X151579815Y-73998777D01*
X151949815Y-74168777D01*
X152279815Y-74338777D01*
X149319815Y-79548777D01*
X149249815Y-79518777D01*
X148999815Y-79418777D01*
X148709815Y-79338777D01*
X148409815Y-79278777D01*
X148019815Y-79248777D01*
X148019815Y-73258777D01*
X148209815Y-73268777D01*
G37*
X148209815Y-94268777D02*
X148659815Y-94278777D01*
X149359815Y-94358777D01*
X150159815Y-94518777D01*
X150989815Y-94768777D01*
X151579815Y-94998777D01*
X151949815Y-95168777D01*
X152279815Y-95338777D01*
X149319815Y-100548777D01*
X149249815Y-100518777D01*
X148999815Y-100418777D01*
X148709815Y-100338777D01*
X148409815Y-100278777D01*
X148019815Y-100248777D01*
X148019815Y-94258777D01*
X148209815Y-94268777D01*
G36*
X148209815Y-94268777D02*
G01*
X148659815Y-94278777D01*
X149359815Y-94358777D01*
X150159815Y-94518777D01*
X150989815Y-94768777D01*
X151579815Y-94998777D01*
X151949815Y-95168777D01*
X152279815Y-95338777D01*
X149319815Y-100548777D01*
X149249815Y-100518777D01*
X148999815Y-100418777D01*
X148709815Y-100338777D01*
X148409815Y-100278777D01*
X148019815Y-100248777D01*
X148019815Y-94258777D01*
X148209815Y-94268777D01*
G37*
X148209815Y-115268777D02*
X148659815Y-115278777D01*
X149359815Y-115358777D01*
X150159815Y-115518777D01*
X150989815Y-115768777D01*
X151579815Y-115998777D01*
X151949815Y-116168777D01*
X152279815Y-116338777D01*
X149319815Y-121548777D01*
X149249815Y-121518777D01*
X148999815Y-121418777D01*
X148709815Y-121338777D01*
X148409815Y-121278777D01*
X148019815Y-121248777D01*
X148019815Y-115258777D01*
X148209815Y-115268777D01*
G36*
X148209815Y-115268777D02*
G01*
X148659815Y-115278777D01*
X149359815Y-115358777D01*
X150159815Y-115518777D01*
X150989815Y-115768777D01*
X151579815Y-115998777D01*
X151949815Y-116168777D01*
X152279815Y-116338777D01*
X149319815Y-121548777D01*
X149249815Y-121518777D01*
X148999815Y-121418777D01*
X148709815Y-121338777D01*
X148409815Y-121278777D01*
X148019815Y-121248777D01*
X148019815Y-115258777D01*
X148209815Y-115268777D01*
G37*
X156995800Y-61465400D02*
X156985800Y-61915400D01*
X156905800Y-62615400D01*
X156745800Y-63415400D01*
X156495800Y-64245400D01*
X156265800Y-64835400D01*
X156095800Y-65205400D01*
X155925800Y-65535400D01*
X150715800Y-62575400D01*
X150745800Y-62505400D01*
X150845800Y-62255400D01*
X150925800Y-61965400D01*
X150985800Y-61665400D01*
X151015800Y-61275400D01*
X157005800Y-61275400D01*
X156995800Y-61465400D01*
G36*
X156995800Y-61465400D02*
G01*
X156985800Y-61915400D01*
X156905800Y-62615400D01*
X156745800Y-63415400D01*
X156495800Y-64245400D01*
X156265800Y-64835400D01*
X156095800Y-65205400D01*
X155925800Y-65535400D01*
X150715800Y-62575400D01*
X150745800Y-62505400D01*
X150845800Y-62255400D01*
X150925800Y-61965400D01*
X150985800Y-61665400D01*
X151015800Y-61275400D01*
X157005800Y-61275400D01*
X156995800Y-61465400D01*
G37*
X156995800Y-82465400D02*
X156985800Y-82915400D01*
X156905800Y-83615400D01*
X156745800Y-84415400D01*
X156495800Y-85245400D01*
X156265800Y-85835400D01*
X156095800Y-86205400D01*
X155925800Y-86535400D01*
X150715800Y-83575400D01*
X150745800Y-83505400D01*
X150845800Y-83255400D01*
X150925800Y-82965400D01*
X150985800Y-82665400D01*
X151015800Y-82275400D01*
X157005800Y-82275400D01*
X156995800Y-82465400D01*
G36*
X156995800Y-82465400D02*
G01*
X156985800Y-82915400D01*
X156905800Y-83615400D01*
X156745800Y-84415400D01*
X156495800Y-85245400D01*
X156265800Y-85835400D01*
X156095800Y-86205400D01*
X155925800Y-86535400D01*
X150715800Y-83575400D01*
X150745800Y-83505400D01*
X150845800Y-83255400D01*
X150925800Y-82965400D01*
X150985800Y-82665400D01*
X151015800Y-82275400D01*
X157005800Y-82275400D01*
X156995800Y-82465400D01*
G37*
X156995800Y-103465400D02*
X156985800Y-103915400D01*
X156905800Y-104615400D01*
X156745800Y-105415400D01*
X156495800Y-106245400D01*
X156265800Y-106835400D01*
X156095800Y-107205400D01*
X155925800Y-107535400D01*
X150715800Y-104575400D01*
X150745800Y-104505400D01*
X150845800Y-104255400D01*
X150925800Y-103965400D01*
X150985800Y-103665400D01*
X151015800Y-103275400D01*
X157005800Y-103275400D01*
X156995800Y-103465400D01*
G36*
X156995800Y-103465400D02*
G01*
X156985800Y-103915400D01*
X156905800Y-104615400D01*
X156745800Y-105415400D01*
X156495800Y-106245400D01*
X156265800Y-106835400D01*
X156095800Y-107205400D01*
X155925800Y-107535400D01*
X150715800Y-104575400D01*
X150745800Y-104505400D01*
X150845800Y-104255400D01*
X150925800Y-103965400D01*
X150985800Y-103665400D01*
X151015800Y-103275400D01*
X157005800Y-103275400D01*
X156995800Y-103465400D01*
G37*
X156995800Y-124465400D02*
X156985800Y-124915400D01*
X156905800Y-125615400D01*
X156745800Y-126415400D01*
X156495800Y-127245400D01*
X156265800Y-127835400D01*
X156095800Y-128205400D01*
X155925800Y-128535400D01*
X150715800Y-125575400D01*
X150745800Y-125505400D01*
X150845800Y-125255400D01*
X150925800Y-124965400D01*
X150985800Y-124665400D01*
X151015800Y-124275400D01*
X157005800Y-124275400D01*
X156995800Y-124465400D01*
G36*
X156995800Y-124465400D02*
G01*
X156985800Y-124915400D01*
X156905800Y-125615400D01*
X156745800Y-126415400D01*
X156495800Y-127245400D01*
X156265800Y-127835400D01*
X156095800Y-128205400D01*
X155925800Y-128535400D01*
X150715800Y-125575400D01*
X150745800Y-125505400D01*
X150845800Y-125255400D01*
X150925800Y-124965400D01*
X150985800Y-124665400D01*
X151015800Y-124275400D01*
X157005800Y-124275400D01*
X156995800Y-124465400D01*
G37*
X166293830Y-59942154D02*
X166263830Y-60012154D01*
X166163830Y-60262154D01*
X166083830Y-60552154D01*
X166023830Y-60852154D01*
X165993830Y-61242154D01*
X160003830Y-61242154D01*
X160013830Y-61052154D01*
X160023830Y-60602154D01*
X160103830Y-59902154D01*
X160263830Y-59102154D01*
X160513830Y-58272154D01*
X160743830Y-57682154D01*
X160913830Y-57312154D01*
X161083830Y-56982154D01*
X166293830Y-59942154D01*
G36*
X166293830Y-59942154D02*
G01*
X166263830Y-60012154D01*
X166163830Y-60262154D01*
X166083830Y-60552154D01*
X166023830Y-60852154D01*
X165993830Y-61242154D01*
X160003830Y-61242154D01*
X160013830Y-61052154D01*
X160023830Y-60602154D01*
X160103830Y-59902154D01*
X160263830Y-59102154D01*
X160513830Y-58272154D01*
X160743830Y-57682154D01*
X160913830Y-57312154D01*
X161083830Y-56982154D01*
X166293830Y-59942154D01*
G37*
X166293830Y-80942154D02*
X166263830Y-81012154D01*
X166163830Y-81262154D01*
X166083830Y-81552154D01*
X166023830Y-81852154D01*
X165993830Y-82242154D01*
X160003830Y-82242154D01*
X160013830Y-82052154D01*
X160023830Y-81602154D01*
X160103830Y-80902154D01*
X160263830Y-80102154D01*
X160513830Y-79272154D01*
X160743830Y-78682154D01*
X160913830Y-78312154D01*
X161083830Y-77982154D01*
X166293830Y-80942154D01*
G36*
X166293830Y-80942154D02*
G01*
X166263830Y-81012154D01*
X166163830Y-81262154D01*
X166083830Y-81552154D01*
X166023830Y-81852154D01*
X165993830Y-82242154D01*
X160003830Y-82242154D01*
X160013830Y-82052154D01*
X160023830Y-81602154D01*
X160103830Y-80902154D01*
X160263830Y-80102154D01*
X160513830Y-79272154D01*
X160743830Y-78682154D01*
X160913830Y-78312154D01*
X161083830Y-77982154D01*
X166293830Y-80942154D01*
G37*
X166293830Y-101942154D02*
X166263830Y-102012154D01*
X166163830Y-102262154D01*
X166083830Y-102552154D01*
X166023830Y-102852154D01*
X165993830Y-103242154D01*
X160003830Y-103242154D01*
X160013830Y-103052154D01*
X160023830Y-102602154D01*
X160103830Y-101902154D01*
X160263830Y-101102154D01*
X160513830Y-100272154D01*
X160743830Y-99682154D01*
X160913830Y-99312154D01*
X161083830Y-98982154D01*
X166293830Y-101942154D01*
G36*
X166293830Y-101942154D02*
G01*
X166263830Y-102012154D01*
X166163830Y-102262154D01*
X166083830Y-102552154D01*
X166023830Y-102852154D01*
X165993830Y-103242154D01*
X160003830Y-103242154D01*
X160013830Y-103052154D01*
X160023830Y-102602154D01*
X160103830Y-101902154D01*
X160263830Y-101102154D01*
X160513830Y-100272154D01*
X160743830Y-99682154D01*
X160913830Y-99312154D01*
X161083830Y-98982154D01*
X166293830Y-101942154D01*
G37*
X166293830Y-122942154D02*
X166263830Y-123012154D01*
X166163830Y-123262154D01*
X166083830Y-123552154D01*
X166023830Y-123852154D01*
X165993830Y-124242154D01*
X160003830Y-124242154D01*
X160013830Y-124052154D01*
X160023830Y-123602154D01*
X160103830Y-122902154D01*
X160263830Y-122102154D01*
X160513830Y-121272154D01*
X160743830Y-120682154D01*
X160913830Y-120312154D01*
X161083830Y-119982154D01*
X166293830Y-122942154D01*
G36*
X166293830Y-122942154D02*
G01*
X166263830Y-123012154D01*
X166163830Y-123262154D01*
X166083830Y-123552154D01*
X166023830Y-123852154D01*
X165993830Y-124242154D01*
X160003830Y-124242154D01*
X160013830Y-124052154D01*
X160023830Y-123602154D01*
X160103830Y-122902154D01*
X160263830Y-122102154D01*
X160513830Y-121272154D01*
X160743830Y-120682154D01*
X160913830Y-120312154D01*
X161083830Y-119982154D01*
X166293830Y-122942154D01*
G37*
X167793192Y-64004762D02*
X168043192Y-64104762D01*
X168333192Y-64184762D01*
X168633192Y-64244762D01*
X169023192Y-64274762D01*
X169023192Y-70264762D01*
X168833192Y-70254762D01*
X168383192Y-70244762D01*
X167683192Y-70164762D01*
X166883192Y-70004762D01*
X166053192Y-69754762D01*
X165463192Y-69524762D01*
X165093192Y-69354762D01*
X164763192Y-69184762D01*
X167723192Y-63974762D01*
X167793192Y-64004762D01*
G36*
X167793192Y-64004762D02*
G01*
X168043192Y-64104762D01*
X168333192Y-64184762D01*
X168633192Y-64244762D01*
X169023192Y-64274762D01*
X169023192Y-70264762D01*
X168833192Y-70254762D01*
X168383192Y-70244762D01*
X167683192Y-70164762D01*
X166883192Y-70004762D01*
X166053192Y-69754762D01*
X165463192Y-69524762D01*
X165093192Y-69354762D01*
X164763192Y-69184762D01*
X167723192Y-63974762D01*
X167793192Y-64004762D01*
G37*
X167793192Y-85004762D02*
X168043192Y-85104762D01*
X168333192Y-85184762D01*
X168633192Y-85244762D01*
X169023192Y-85274762D01*
X169023192Y-91264762D01*
X168833192Y-91254762D01*
X168383192Y-91244762D01*
X167683192Y-91164762D01*
X166883192Y-91004762D01*
X166053192Y-90754762D01*
X165463192Y-90524762D01*
X165093192Y-90354762D01*
X164763192Y-90184762D01*
X167723192Y-84974762D01*
X167793192Y-85004762D01*
G36*
X167793192Y-85004762D02*
G01*
X168043192Y-85104762D01*
X168333192Y-85184762D01*
X168633192Y-85244762D01*
X169023192Y-85274762D01*
X169023192Y-91264762D01*
X168833192Y-91254762D01*
X168383192Y-91244762D01*
X167683192Y-91164762D01*
X166883192Y-91004762D01*
X166053192Y-90754762D01*
X165463192Y-90524762D01*
X165093192Y-90354762D01*
X164763192Y-90184762D01*
X167723192Y-84974762D01*
X167793192Y-85004762D01*
G37*
X167793192Y-106004762D02*
X168043192Y-106104762D01*
X168333192Y-106184762D01*
X168633192Y-106244762D01*
X169023192Y-106274762D01*
X169023192Y-112264762D01*
X168833192Y-112254762D01*
X168383192Y-112244762D01*
X167683192Y-112164762D01*
X166883192Y-112004762D01*
X166053192Y-111754762D01*
X165463192Y-111524762D01*
X165093192Y-111354762D01*
X164763192Y-111184762D01*
X167723192Y-105974762D01*
X167793192Y-106004762D01*
G36*
X167793192Y-106004762D02*
G01*
X168043192Y-106104762D01*
X168333192Y-106184762D01*
X168633192Y-106244762D01*
X169023192Y-106274762D01*
X169023192Y-112264762D01*
X168833192Y-112254762D01*
X168383192Y-112244762D01*
X167683192Y-112164762D01*
X166883192Y-112004762D01*
X166053192Y-111754762D01*
X165463192Y-111524762D01*
X165093192Y-111354762D01*
X164763192Y-111184762D01*
X167723192Y-105974762D01*
X167793192Y-106004762D01*
G37*
X167793192Y-127004762D02*
X168043192Y-127104762D01*
X168333192Y-127184762D01*
X168633192Y-127244762D01*
X169023192Y-127274762D01*
X169023192Y-133264762D01*
X168833192Y-133254762D01*
X168383192Y-133244762D01*
X167683192Y-133164762D01*
X166883192Y-133004762D01*
X166053192Y-132754762D01*
X165463192Y-132524762D01*
X165093192Y-132354762D01*
X164763192Y-132184762D01*
X167723192Y-126974762D01*
X167793192Y-127004762D01*
G36*
X167793192Y-127004762D02*
G01*
X168043192Y-127104762D01*
X168333192Y-127184762D01*
X168633192Y-127244762D01*
X169023192Y-127274762D01*
X169023192Y-133264762D01*
X168833192Y-133254762D01*
X168383192Y-133244762D01*
X167683192Y-133164762D01*
X166883192Y-133004762D01*
X166053192Y-132754762D01*
X165463192Y-132524762D01*
X165093192Y-132354762D01*
X164763192Y-132184762D01*
X167723192Y-126974762D01*
X167793192Y-127004762D01*
G37*
X169209815Y-52268777D02*
X169659815Y-52278777D01*
X170359815Y-52358777D01*
X171159815Y-52518777D01*
X171989815Y-52768777D01*
X172579815Y-52998777D01*
X172949815Y-53168777D01*
X173279815Y-53338777D01*
X170319815Y-58548777D01*
X170249815Y-58518777D01*
X169999815Y-58418777D01*
X169709815Y-58338777D01*
X169409815Y-58278777D01*
X169019815Y-58248777D01*
X169019815Y-52258777D01*
X169209815Y-52268777D01*
G36*
X169209815Y-52268777D02*
G01*
X169659815Y-52278777D01*
X170359815Y-52358777D01*
X171159815Y-52518777D01*
X171989815Y-52768777D01*
X172579815Y-52998777D01*
X172949815Y-53168777D01*
X173279815Y-53338777D01*
X170319815Y-58548777D01*
X170249815Y-58518777D01*
X169999815Y-58418777D01*
X169709815Y-58338777D01*
X169409815Y-58278777D01*
X169019815Y-58248777D01*
X169019815Y-52258777D01*
X169209815Y-52268777D01*
G37*
X169209815Y-73268777D02*
X169659815Y-73278777D01*
X170359815Y-73358777D01*
X171159815Y-73518777D01*
X171989815Y-73768777D01*
X172579815Y-73998777D01*
X172949815Y-74168777D01*
X173279815Y-74338777D01*
X170319815Y-79548777D01*
X170249815Y-79518777D01*
X169999815Y-79418777D01*
X169709815Y-79338777D01*
X169409815Y-79278777D01*
X169019815Y-79248777D01*
X169019815Y-73258777D01*
X169209815Y-73268777D01*
G36*
X169209815Y-73268777D02*
G01*
X169659815Y-73278777D01*
X170359815Y-73358777D01*
X171159815Y-73518777D01*
X171989815Y-73768777D01*
X172579815Y-73998777D01*
X172949815Y-74168777D01*
X173279815Y-74338777D01*
X170319815Y-79548777D01*
X170249815Y-79518777D01*
X169999815Y-79418777D01*
X169709815Y-79338777D01*
X169409815Y-79278777D01*
X169019815Y-79248777D01*
X169019815Y-73258777D01*
X169209815Y-73268777D01*
G37*
X169209815Y-94268777D02*
X169659815Y-94278777D01*
X170359815Y-94358777D01*
X171159815Y-94518777D01*
X171989815Y-94768777D01*
X172579815Y-94998777D01*
X172949815Y-95168777D01*
X173279815Y-95338777D01*
X170319815Y-100548777D01*
X170249815Y-100518777D01*
X169999815Y-100418777D01*
X169709815Y-100338777D01*
X169409815Y-100278777D01*
X169019815Y-100248777D01*
X169019815Y-94258777D01*
X169209815Y-94268777D01*
G36*
X169209815Y-94268777D02*
G01*
X169659815Y-94278777D01*
X170359815Y-94358777D01*
X171159815Y-94518777D01*
X171989815Y-94768777D01*
X172579815Y-94998777D01*
X172949815Y-95168777D01*
X173279815Y-95338777D01*
X170319815Y-100548777D01*
X170249815Y-100518777D01*
X169999815Y-100418777D01*
X169709815Y-100338777D01*
X169409815Y-100278777D01*
X169019815Y-100248777D01*
X169019815Y-94258777D01*
X169209815Y-94268777D01*
G37*
X169209815Y-115268777D02*
X169659815Y-115278777D01*
X170359815Y-115358777D01*
X171159815Y-115518777D01*
X171989815Y-115768777D01*
X172579815Y-115998777D01*
X172949815Y-116168777D01*
X173279815Y-116338777D01*
X170319815Y-121548777D01*
X170249815Y-121518777D01*
X169999815Y-121418777D01*
X169709815Y-121338777D01*
X169409815Y-121278777D01*
X169019815Y-121248777D01*
X169019815Y-115258777D01*
X169209815Y-115268777D01*
G36*
X169209815Y-115268777D02*
G01*
X169659815Y-115278777D01*
X170359815Y-115358777D01*
X171159815Y-115518777D01*
X171989815Y-115768777D01*
X172579815Y-115998777D01*
X172949815Y-116168777D01*
X173279815Y-116338777D01*
X170319815Y-121548777D01*
X170249815Y-121518777D01*
X169999815Y-121418777D01*
X169709815Y-121338777D01*
X169409815Y-121278777D01*
X169019815Y-121248777D01*
X169019815Y-115258777D01*
X169209815Y-115268777D01*
G37*
X177995800Y-61465400D02*
X177985800Y-61915400D01*
X177905800Y-62615400D01*
X177745800Y-63415400D01*
X177495800Y-64245400D01*
X177265800Y-64835400D01*
X177095800Y-65205400D01*
X176925800Y-65535400D01*
X171715800Y-62575400D01*
X171745800Y-62505400D01*
X171845800Y-62255400D01*
X171925800Y-61965400D01*
X171985800Y-61665400D01*
X172015800Y-61275400D01*
X178005800Y-61275400D01*
X177995800Y-61465400D01*
G36*
X177995800Y-61465400D02*
G01*
X177985800Y-61915400D01*
X177905800Y-62615400D01*
X177745800Y-63415400D01*
X177495800Y-64245400D01*
X177265800Y-64835400D01*
X177095800Y-65205400D01*
X176925800Y-65535400D01*
X171715800Y-62575400D01*
X171745800Y-62505400D01*
X171845800Y-62255400D01*
X171925800Y-61965400D01*
X171985800Y-61665400D01*
X172015800Y-61275400D01*
X178005800Y-61275400D01*
X177995800Y-61465400D01*
G37*
X177995800Y-82465400D02*
X177985800Y-82915400D01*
X177905800Y-83615400D01*
X177745800Y-84415400D01*
X177495800Y-85245400D01*
X177265800Y-85835400D01*
X177095800Y-86205400D01*
X176925800Y-86535400D01*
X171715800Y-83575400D01*
X171745800Y-83505400D01*
X171845800Y-83255400D01*
X171925800Y-82965400D01*
X171985800Y-82665400D01*
X172015800Y-82275400D01*
X178005800Y-82275400D01*
X177995800Y-82465400D01*
G36*
X177995800Y-82465400D02*
G01*
X177985800Y-82915400D01*
X177905800Y-83615400D01*
X177745800Y-84415400D01*
X177495800Y-85245400D01*
X177265800Y-85835400D01*
X177095800Y-86205400D01*
X176925800Y-86535400D01*
X171715800Y-83575400D01*
X171745800Y-83505400D01*
X171845800Y-83255400D01*
X171925800Y-82965400D01*
X171985800Y-82665400D01*
X172015800Y-82275400D01*
X178005800Y-82275400D01*
X177995800Y-82465400D01*
G37*
X177995800Y-103465400D02*
X177985800Y-103915400D01*
X177905800Y-104615400D01*
X177745800Y-105415400D01*
X177495800Y-106245400D01*
X177265800Y-106835400D01*
X177095800Y-107205400D01*
X176925800Y-107535400D01*
X171715800Y-104575400D01*
X171745800Y-104505400D01*
X171845800Y-104255400D01*
X171925800Y-103965400D01*
X171985800Y-103665400D01*
X172015800Y-103275400D01*
X178005800Y-103275400D01*
X177995800Y-103465400D01*
G36*
X177995800Y-103465400D02*
G01*
X177985800Y-103915400D01*
X177905800Y-104615400D01*
X177745800Y-105415400D01*
X177495800Y-106245400D01*
X177265800Y-106835400D01*
X177095800Y-107205400D01*
X176925800Y-107535400D01*
X171715800Y-104575400D01*
X171745800Y-104505400D01*
X171845800Y-104255400D01*
X171925800Y-103965400D01*
X171985800Y-103665400D01*
X172015800Y-103275400D01*
X178005800Y-103275400D01*
X177995800Y-103465400D01*
G37*
X177995800Y-124465400D02*
X177985800Y-124915400D01*
X177905800Y-125615400D01*
X177745800Y-126415400D01*
X177495800Y-127245400D01*
X177265800Y-127835400D01*
X177095800Y-128205400D01*
X176925800Y-128535400D01*
X171715800Y-125575400D01*
X171745800Y-125505400D01*
X171845800Y-125255400D01*
X171925800Y-124965400D01*
X171985800Y-124665400D01*
X172015800Y-124275400D01*
X178005800Y-124275400D01*
X177995800Y-124465400D01*
G36*
X177995800Y-124465400D02*
G01*
X177985800Y-124915400D01*
X177905800Y-125615400D01*
X177745800Y-126415400D01*
X177495800Y-127245400D01*
X177265800Y-127835400D01*
X177095800Y-128205400D01*
X176925800Y-128535400D01*
X171715800Y-125575400D01*
X171745800Y-125505400D01*
X171845800Y-125255400D01*
X171925800Y-124965400D01*
X171985800Y-124665400D01*
X172015800Y-124275400D01*
X178005800Y-124275400D01*
X177995800Y-124465400D01*
G37*
X103053192Y-61724762D02*
X103103192Y-61984762D01*
X103193192Y-62274762D01*
X103283192Y-62504762D01*
X103413192Y-62764762D01*
X98233192Y-65754762D01*
X98103192Y-65524762D01*
X97833192Y-64984762D01*
X97593192Y-64404762D01*
X97453192Y-64014762D01*
X97343192Y-63634762D01*
X97203192Y-63024762D01*
X97123192Y-62564762D01*
X97053192Y-61854762D01*
X97033192Y-61474762D01*
X103023192Y-61464762D01*
X103053192Y-61724762D01*
G36*
X103053192Y-61724762D02*
G01*
X103103192Y-61984762D01*
X103193192Y-62274762D01*
X103283192Y-62504762D01*
X103413192Y-62764762D01*
X98233192Y-65754762D01*
X98103192Y-65524762D01*
X97833192Y-64984762D01*
X97593192Y-64404762D01*
X97453192Y-64014762D01*
X97343192Y-63634762D01*
X97203192Y-63024762D01*
X97123192Y-62564762D01*
X97053192Y-61854762D01*
X97033192Y-61474762D01*
X103023192Y-61464762D01*
X103053192Y-61724762D01*
G37*
X103053192Y-82724762D02*
X103103192Y-82984762D01*
X103193192Y-83274762D01*
X103283192Y-83504762D01*
X103413192Y-83764762D01*
X98233192Y-86754762D01*
X98103192Y-86524762D01*
X97833192Y-85984762D01*
X97593192Y-85404762D01*
X97453192Y-85014762D01*
X97343192Y-84634762D01*
X97203192Y-84024762D01*
X97123192Y-83564762D01*
X97053192Y-82854762D01*
X97033192Y-82474762D01*
X103023192Y-82464762D01*
X103053192Y-82724762D01*
G36*
X103053192Y-82724762D02*
G01*
X103103192Y-82984762D01*
X103193192Y-83274762D01*
X103283192Y-83504762D01*
X103413192Y-83764762D01*
X98233192Y-86754762D01*
X98103192Y-86524762D01*
X97833192Y-85984762D01*
X97593192Y-85404762D01*
X97453192Y-85014762D01*
X97343192Y-84634762D01*
X97203192Y-84024762D01*
X97123192Y-83564762D01*
X97053192Y-82854762D01*
X97033192Y-82474762D01*
X103023192Y-82464762D01*
X103053192Y-82724762D01*
G37*
X103053192Y-103724762D02*
X103103192Y-103984762D01*
X103193192Y-104274762D01*
X103283192Y-104504762D01*
X103413192Y-104764762D01*
X98233192Y-107754762D01*
X98103192Y-107524762D01*
X97833192Y-106984762D01*
X97593192Y-106404762D01*
X97453192Y-106014762D01*
X97343192Y-105634762D01*
X97203192Y-105024762D01*
X97123192Y-104564762D01*
X97053192Y-103854762D01*
X97033192Y-103474762D01*
X103023192Y-103464762D01*
X103053192Y-103724762D01*
G36*
X103053192Y-103724762D02*
G01*
X103103192Y-103984762D01*
X103193192Y-104274762D01*
X103283192Y-104504762D01*
X103413192Y-104764762D01*
X98233192Y-107754762D01*
X98103192Y-107524762D01*
X97833192Y-106984762D01*
X97593192Y-106404762D01*
X97453192Y-106014762D01*
X97343192Y-105634762D01*
X97203192Y-105024762D01*
X97123192Y-104564762D01*
X97053192Y-103854762D01*
X97033192Y-103474762D01*
X103023192Y-103464762D01*
X103053192Y-103724762D01*
G37*
X103053192Y-124724762D02*
X103103192Y-124984762D01*
X103193192Y-125274762D01*
X103283192Y-125504762D01*
X103413192Y-125764762D01*
X98233192Y-128754762D01*
X98103192Y-128524762D01*
X97833192Y-127984762D01*
X97593192Y-127404762D01*
X97453192Y-127014762D01*
X97343192Y-126634762D01*
X97203192Y-126024762D01*
X97123192Y-125564762D01*
X97053192Y-124854762D01*
X97033192Y-124474762D01*
X103023192Y-124464762D01*
X103053192Y-124724762D01*
G36*
X103053192Y-124724762D02*
G01*
X103103192Y-124984762D01*
X103193192Y-125274762D01*
X103283192Y-125504762D01*
X103413192Y-125764762D01*
X98233192Y-128754762D01*
X98103192Y-128524762D01*
X97833192Y-127984762D01*
X97593192Y-127404762D01*
X97453192Y-127014762D01*
X97343192Y-126634762D01*
X97203192Y-126024762D01*
X97123192Y-125564762D01*
X97053192Y-124854762D01*
X97033192Y-124474762D01*
X103023192Y-124464762D01*
X103053192Y-124724762D01*
G37*
X105803830Y-58242154D02*
X105543830Y-58272154D01*
X105283830Y-58322154D01*
X104993830Y-58412154D01*
X104763830Y-58502154D01*
X104503830Y-58632154D01*
X101513830Y-53452154D01*
X101743830Y-53322154D01*
X102283830Y-53052154D01*
X102863830Y-52812154D01*
X103253830Y-52672154D01*
X103633830Y-52562154D01*
X104243830Y-52422154D01*
X104703830Y-52342154D01*
X105413830Y-52272154D01*
X105793830Y-52252154D01*
X105803830Y-58242154D01*
G36*
X105803830Y-58242154D02*
G01*
X105543830Y-58272154D01*
X105283830Y-58322154D01*
X104993830Y-58412154D01*
X104763830Y-58502154D01*
X104503830Y-58632154D01*
X101513830Y-53452154D01*
X101743830Y-53322154D01*
X102283830Y-53052154D01*
X102863830Y-52812154D01*
X103253830Y-52672154D01*
X103633830Y-52562154D01*
X104243830Y-52422154D01*
X104703830Y-52342154D01*
X105413830Y-52272154D01*
X105793830Y-52252154D01*
X105803830Y-58242154D01*
G37*
X105803830Y-79242154D02*
X105543830Y-79272154D01*
X105283830Y-79322154D01*
X104993830Y-79412154D01*
X104763830Y-79502154D01*
X104503830Y-79632154D01*
X101513830Y-74452154D01*
X101743830Y-74322154D01*
X102283830Y-74052154D01*
X102863830Y-73812154D01*
X103253830Y-73672154D01*
X103633830Y-73562154D01*
X104243830Y-73422154D01*
X104703830Y-73342154D01*
X105413830Y-73272154D01*
X105793830Y-73252154D01*
X105803830Y-79242154D01*
G36*
X105803830Y-79242154D02*
G01*
X105543830Y-79272154D01*
X105283830Y-79322154D01*
X104993830Y-79412154D01*
X104763830Y-79502154D01*
X104503830Y-79632154D01*
X101513830Y-74452154D01*
X101743830Y-74322154D01*
X102283830Y-74052154D01*
X102863830Y-73812154D01*
X103253830Y-73672154D01*
X103633830Y-73562154D01*
X104243830Y-73422154D01*
X104703830Y-73342154D01*
X105413830Y-73272154D01*
X105793830Y-73252154D01*
X105803830Y-79242154D01*
G37*
X105803830Y-100242154D02*
X105543830Y-100272154D01*
X105283830Y-100322154D01*
X104993830Y-100412154D01*
X104763830Y-100502154D01*
X104503830Y-100632154D01*
X101513830Y-95452154D01*
X101743830Y-95322154D01*
X102283830Y-95052154D01*
X102863830Y-94812154D01*
X103253830Y-94672154D01*
X103633830Y-94562154D01*
X104243830Y-94422154D01*
X104703830Y-94342154D01*
X105413830Y-94272154D01*
X105793830Y-94252154D01*
X105803830Y-100242154D01*
G36*
X105803830Y-100242154D02*
G01*
X105543830Y-100272154D01*
X105283830Y-100322154D01*
X104993830Y-100412154D01*
X104763830Y-100502154D01*
X104503830Y-100632154D01*
X101513830Y-95452154D01*
X101743830Y-95322154D01*
X102283830Y-95052154D01*
X102863830Y-94812154D01*
X103253830Y-94672154D01*
X103633830Y-94562154D01*
X104243830Y-94422154D01*
X104703830Y-94342154D01*
X105413830Y-94272154D01*
X105793830Y-94252154D01*
X105803830Y-100242154D01*
G37*
X105803830Y-121242154D02*
X105543830Y-121272154D01*
X105283830Y-121322154D01*
X104993830Y-121412154D01*
X104763830Y-121502154D01*
X104503830Y-121632154D01*
X101513830Y-116452154D01*
X101743830Y-116322154D01*
X102283830Y-116052154D01*
X102863830Y-115812154D01*
X103253830Y-115672154D01*
X103633830Y-115562154D01*
X104243830Y-115422154D01*
X104703830Y-115342154D01*
X105413830Y-115272154D01*
X105793830Y-115252154D01*
X105803830Y-121242154D01*
G36*
X105803830Y-121242154D02*
G01*
X105543830Y-121272154D01*
X105283830Y-121322154D01*
X104993830Y-121412154D01*
X104763830Y-121502154D01*
X104503830Y-121632154D01*
X101513830Y-116452154D01*
X101743830Y-116322154D01*
X102283830Y-116052154D01*
X102863830Y-115812154D01*
X103253830Y-115672154D01*
X103633830Y-115562154D01*
X104243830Y-115422154D01*
X104703830Y-115342154D01*
X105413830Y-115272154D01*
X105793830Y-115252154D01*
X105803830Y-121242154D01*
G37*
X110495800Y-69065400D02*
X110265800Y-69195400D01*
X109725800Y-69465400D01*
X109145800Y-69705400D01*
X108755800Y-69845400D01*
X108375800Y-69955400D01*
X107765800Y-70095400D01*
X107305800Y-70175400D01*
X106595800Y-70245400D01*
X106215800Y-70265400D01*
X106205800Y-64275400D01*
X106465800Y-64245400D01*
X106725800Y-64195400D01*
X107015800Y-64105400D01*
X107245800Y-64015400D01*
X107505800Y-63885400D01*
X110495800Y-69065400D01*
G36*
X110495800Y-69065400D02*
G01*
X110265800Y-69195400D01*
X109725800Y-69465400D01*
X109145800Y-69705400D01*
X108755800Y-69845400D01*
X108375800Y-69955400D01*
X107765800Y-70095400D01*
X107305800Y-70175400D01*
X106595800Y-70245400D01*
X106215800Y-70265400D01*
X106205800Y-64275400D01*
X106465800Y-64245400D01*
X106725800Y-64195400D01*
X107015800Y-64105400D01*
X107245800Y-64015400D01*
X107505800Y-63885400D01*
X110495800Y-69065400D01*
G37*
X110495800Y-90065400D02*
X110265800Y-90195400D01*
X109725800Y-90465400D01*
X109145800Y-90705400D01*
X108755800Y-90845400D01*
X108375800Y-90955400D01*
X107765800Y-91095400D01*
X107305800Y-91175400D01*
X106595800Y-91245400D01*
X106215800Y-91265400D01*
X106205800Y-85275400D01*
X106465800Y-85245400D01*
X106725800Y-85195400D01*
X107015800Y-85105400D01*
X107245800Y-85015400D01*
X107505800Y-84885400D01*
X110495800Y-90065400D01*
G36*
X110495800Y-90065400D02*
G01*
X110265800Y-90195400D01*
X109725800Y-90465400D01*
X109145800Y-90705400D01*
X108755800Y-90845400D01*
X108375800Y-90955400D01*
X107765800Y-91095400D01*
X107305800Y-91175400D01*
X106595800Y-91245400D01*
X106215800Y-91265400D01*
X106205800Y-85275400D01*
X106465800Y-85245400D01*
X106725800Y-85195400D01*
X107015800Y-85105400D01*
X107245800Y-85015400D01*
X107505800Y-84885400D01*
X110495800Y-90065400D01*
G37*
X110495800Y-111065400D02*
X110265800Y-111195400D01*
X109725800Y-111465400D01*
X109145800Y-111705400D01*
X108755800Y-111845400D01*
X108375800Y-111955400D01*
X107765800Y-112095400D01*
X107305800Y-112175400D01*
X106595800Y-112245400D01*
X106215800Y-112265400D01*
X106205800Y-106275400D01*
X106465800Y-106245400D01*
X106725800Y-106195400D01*
X107015800Y-106105400D01*
X107245800Y-106015400D01*
X107505800Y-105885400D01*
X110495800Y-111065400D01*
G36*
X110495800Y-111065400D02*
G01*
X110265800Y-111195400D01*
X109725800Y-111465400D01*
X109145800Y-111705400D01*
X108755800Y-111845400D01*
X108375800Y-111955400D01*
X107765800Y-112095400D01*
X107305800Y-112175400D01*
X106595800Y-112245400D01*
X106215800Y-112265400D01*
X106205800Y-106275400D01*
X106465800Y-106245400D01*
X106725800Y-106195400D01*
X107015800Y-106105400D01*
X107245800Y-106015400D01*
X107505800Y-105885400D01*
X110495800Y-111065400D01*
G37*
X110495800Y-132065400D02*
X110265800Y-132195400D01*
X109725800Y-132465400D01*
X109145800Y-132705400D01*
X108755800Y-132845400D01*
X108375800Y-132955400D01*
X107765800Y-133095400D01*
X107305800Y-133175400D01*
X106595800Y-133245400D01*
X106215800Y-133265400D01*
X106205800Y-127275400D01*
X106465800Y-127245400D01*
X106725800Y-127195400D01*
X107015800Y-127105400D01*
X107245800Y-127015400D01*
X107505800Y-126885400D01*
X110495800Y-132065400D01*
G36*
X110495800Y-132065400D02*
G01*
X110265800Y-132195400D01*
X109725800Y-132465400D01*
X109145800Y-132705400D01*
X108755800Y-132845400D01*
X108375800Y-132955400D01*
X107765800Y-133095400D01*
X107305800Y-133175400D01*
X106595800Y-133245400D01*
X106215800Y-133265400D01*
X106205800Y-127275400D01*
X106465800Y-127245400D01*
X106725800Y-127195400D01*
X107015800Y-127105400D01*
X107245800Y-127015400D01*
X107505800Y-126885400D01*
X110495800Y-132065400D01*
G37*
X113939815Y-56998777D02*
X114209815Y-57538777D01*
X114449815Y-58118777D01*
X114589815Y-58508777D01*
X114699815Y-58888777D01*
X114839815Y-59498777D01*
X114919815Y-59958777D01*
X114989815Y-60668777D01*
X115009815Y-61048777D01*
X109019815Y-61058777D01*
X108989815Y-60798777D01*
X108939815Y-60538777D01*
X108849815Y-60248777D01*
X108759815Y-60018777D01*
X108629815Y-59758777D01*
X113809815Y-56768777D01*
X113939815Y-56998777D01*
G36*
X113939815Y-56998777D02*
G01*
X114209815Y-57538777D01*
X114449815Y-58118777D01*
X114589815Y-58508777D01*
X114699815Y-58888777D01*
X114839815Y-59498777D01*
X114919815Y-59958777D01*
X114989815Y-60668777D01*
X115009815Y-61048777D01*
X109019815Y-61058777D01*
X108989815Y-60798777D01*
X108939815Y-60538777D01*
X108849815Y-60248777D01*
X108759815Y-60018777D01*
X108629815Y-59758777D01*
X113809815Y-56768777D01*
X113939815Y-56998777D01*
G37*
X113939815Y-77998777D02*
X114209815Y-78538777D01*
X114449815Y-79118777D01*
X114589815Y-79508777D01*
X114699815Y-79888777D01*
X114839815Y-80498777D01*
X114919815Y-80958777D01*
X114989815Y-81668777D01*
X115009815Y-82048777D01*
X109019815Y-82058777D01*
X108989815Y-81798777D01*
X108939815Y-81538777D01*
X108849815Y-81248777D01*
X108759815Y-81018777D01*
X108629815Y-80758777D01*
X113809815Y-77768777D01*
X113939815Y-77998777D01*
G36*
X113939815Y-77998777D02*
G01*
X114209815Y-78538777D01*
X114449815Y-79118777D01*
X114589815Y-79508777D01*
X114699815Y-79888777D01*
X114839815Y-80498777D01*
X114919815Y-80958777D01*
X114989815Y-81668777D01*
X115009815Y-82048777D01*
X109019815Y-82058777D01*
X108989815Y-81798777D01*
X108939815Y-81538777D01*
X108849815Y-81248777D01*
X108759815Y-81018777D01*
X108629815Y-80758777D01*
X113809815Y-77768777D01*
X113939815Y-77998777D01*
G37*
X113939815Y-98998777D02*
X114209815Y-99538777D01*
X114449815Y-100118777D01*
X114589815Y-100508777D01*
X114699815Y-100888777D01*
X114839815Y-101498777D01*
X114919815Y-101958777D01*
X114989815Y-102668777D01*
X115009815Y-103048777D01*
X109019815Y-103058777D01*
X108989815Y-102798777D01*
X108939815Y-102538777D01*
X108849815Y-102248777D01*
X108759815Y-102018777D01*
X108629815Y-101758777D01*
X113809815Y-98768777D01*
X113939815Y-98998777D01*
G36*
X113939815Y-98998777D02*
G01*
X114209815Y-99538777D01*
X114449815Y-100118777D01*
X114589815Y-100508777D01*
X114699815Y-100888777D01*
X114839815Y-101498777D01*
X114919815Y-101958777D01*
X114989815Y-102668777D01*
X115009815Y-103048777D01*
X109019815Y-103058777D01*
X108989815Y-102798777D01*
X108939815Y-102538777D01*
X108849815Y-102248777D01*
X108759815Y-102018777D01*
X108629815Y-101758777D01*
X113809815Y-98768777D01*
X113939815Y-98998777D01*
G37*
X113939815Y-119998777D02*
X114209815Y-120538777D01*
X114449815Y-121118777D01*
X114589815Y-121508777D01*
X114699815Y-121888777D01*
X114839815Y-122498777D01*
X114919815Y-122958777D01*
X114989815Y-123668777D01*
X115009815Y-124048777D01*
X109019815Y-124058777D01*
X108989815Y-123798777D01*
X108939815Y-123538777D01*
X108849815Y-123248777D01*
X108759815Y-123018777D01*
X108629815Y-122758777D01*
X113809815Y-119768777D01*
X113939815Y-119998777D01*
G36*
X113939815Y-119998777D02*
G01*
X114209815Y-120538777D01*
X114449815Y-121118777D01*
X114589815Y-121508777D01*
X114699815Y-121888777D01*
X114839815Y-122498777D01*
X114919815Y-122958777D01*
X114989815Y-123668777D01*
X115009815Y-124048777D01*
X109019815Y-124058777D01*
X108989815Y-123798777D01*
X108939815Y-123538777D01*
X108849815Y-123248777D01*
X108759815Y-123018777D01*
X108629815Y-122758777D01*
X113809815Y-119768777D01*
X113939815Y-119998777D01*
G37*
X124053192Y-61724762D02*
X124103192Y-61984762D01*
X124193192Y-62274762D01*
X124283192Y-62504762D01*
X124413192Y-62764762D01*
X119233192Y-65754762D01*
X119103192Y-65524762D01*
X118833192Y-64984762D01*
X118593192Y-64404762D01*
X118453192Y-64014762D01*
X118343192Y-63634762D01*
X118203192Y-63024762D01*
X118123192Y-62564762D01*
X118053192Y-61854762D01*
X118033192Y-61474762D01*
X124023192Y-61464762D01*
X124053192Y-61724762D01*
G36*
X124053192Y-61724762D02*
G01*
X124103192Y-61984762D01*
X124193192Y-62274762D01*
X124283192Y-62504762D01*
X124413192Y-62764762D01*
X119233192Y-65754762D01*
X119103192Y-65524762D01*
X118833192Y-64984762D01*
X118593192Y-64404762D01*
X118453192Y-64014762D01*
X118343192Y-63634762D01*
X118203192Y-63024762D01*
X118123192Y-62564762D01*
X118053192Y-61854762D01*
X118033192Y-61474762D01*
X124023192Y-61464762D01*
X124053192Y-61724762D01*
G37*
X124053192Y-82724762D02*
X124103192Y-82984762D01*
X124193192Y-83274762D01*
X124283192Y-83504762D01*
X124413192Y-83764762D01*
X119233192Y-86754762D01*
X119103192Y-86524762D01*
X118833192Y-85984762D01*
X118593192Y-85404762D01*
X118453192Y-85014762D01*
X118343192Y-84634762D01*
X118203192Y-84024762D01*
X118123192Y-83564762D01*
X118053192Y-82854762D01*
X118033192Y-82474762D01*
X124023192Y-82464762D01*
X124053192Y-82724762D01*
G36*
X124053192Y-82724762D02*
G01*
X124103192Y-82984762D01*
X124193192Y-83274762D01*
X124283192Y-83504762D01*
X124413192Y-83764762D01*
X119233192Y-86754762D01*
X119103192Y-86524762D01*
X118833192Y-85984762D01*
X118593192Y-85404762D01*
X118453192Y-85014762D01*
X118343192Y-84634762D01*
X118203192Y-84024762D01*
X118123192Y-83564762D01*
X118053192Y-82854762D01*
X118033192Y-82474762D01*
X124023192Y-82464762D01*
X124053192Y-82724762D01*
G37*
X124053192Y-103724762D02*
X124103192Y-103984762D01*
X124193192Y-104274762D01*
X124283192Y-104504762D01*
X124413192Y-104764762D01*
X119233192Y-107754762D01*
X119103192Y-107524762D01*
X118833192Y-106984762D01*
X118593192Y-106404762D01*
X118453192Y-106014762D01*
X118343192Y-105634762D01*
X118203192Y-105024762D01*
X118123192Y-104564762D01*
X118053192Y-103854762D01*
X118033192Y-103474762D01*
X124023192Y-103464762D01*
X124053192Y-103724762D01*
G36*
X124053192Y-103724762D02*
G01*
X124103192Y-103984762D01*
X124193192Y-104274762D01*
X124283192Y-104504762D01*
X124413192Y-104764762D01*
X119233192Y-107754762D01*
X119103192Y-107524762D01*
X118833192Y-106984762D01*
X118593192Y-106404762D01*
X118453192Y-106014762D01*
X118343192Y-105634762D01*
X118203192Y-105024762D01*
X118123192Y-104564762D01*
X118053192Y-103854762D01*
X118033192Y-103474762D01*
X124023192Y-103464762D01*
X124053192Y-103724762D01*
G37*
X124053192Y-124724762D02*
X124103192Y-124984762D01*
X124193192Y-125274762D01*
X124283192Y-125504762D01*
X124413192Y-125764762D01*
X119233192Y-128754762D01*
X119103192Y-128524762D01*
X118833192Y-127984762D01*
X118593192Y-127404762D01*
X118453192Y-127014762D01*
X118343192Y-126634762D01*
X118203192Y-126024762D01*
X118123192Y-125564762D01*
X118053192Y-124854762D01*
X118033192Y-124474762D01*
X124023192Y-124464762D01*
X124053192Y-124724762D01*
G36*
X124053192Y-124724762D02*
G01*
X124103192Y-124984762D01*
X124193192Y-125274762D01*
X124283192Y-125504762D01*
X124413192Y-125764762D01*
X119233192Y-128754762D01*
X119103192Y-128524762D01*
X118833192Y-127984762D01*
X118593192Y-127404762D01*
X118453192Y-127014762D01*
X118343192Y-126634762D01*
X118203192Y-126024762D01*
X118123192Y-125564762D01*
X118053192Y-124854762D01*
X118033192Y-124474762D01*
X124023192Y-124464762D01*
X124053192Y-124724762D01*
G37*
X126803830Y-58242154D02*
X126543830Y-58272154D01*
X126283830Y-58322154D01*
X125993830Y-58412154D01*
X125763830Y-58502154D01*
X125503830Y-58632154D01*
X122513830Y-53452154D01*
X122743830Y-53322154D01*
X123283830Y-53052154D01*
X123863830Y-52812154D01*
X124253830Y-52672154D01*
X124633830Y-52562154D01*
X125243830Y-52422154D01*
X125703830Y-52342154D01*
X126413830Y-52272154D01*
X126793830Y-52252154D01*
X126803830Y-58242154D01*
G36*
X126803830Y-58242154D02*
G01*
X126543830Y-58272154D01*
X126283830Y-58322154D01*
X125993830Y-58412154D01*
X125763830Y-58502154D01*
X125503830Y-58632154D01*
X122513830Y-53452154D01*
X122743830Y-53322154D01*
X123283830Y-53052154D01*
X123863830Y-52812154D01*
X124253830Y-52672154D01*
X124633830Y-52562154D01*
X125243830Y-52422154D01*
X125703830Y-52342154D01*
X126413830Y-52272154D01*
X126793830Y-52252154D01*
X126803830Y-58242154D01*
G37*
X126803830Y-79242154D02*
X126543830Y-79272154D01*
X126283830Y-79322154D01*
X125993830Y-79412154D01*
X125763830Y-79502154D01*
X125503830Y-79632154D01*
X122513830Y-74452154D01*
X122743830Y-74322154D01*
X123283830Y-74052154D01*
X123863830Y-73812154D01*
X124253830Y-73672154D01*
X124633830Y-73562154D01*
X125243830Y-73422154D01*
X125703830Y-73342154D01*
X126413830Y-73272154D01*
X126793830Y-73252154D01*
X126803830Y-79242154D01*
G36*
X126803830Y-79242154D02*
G01*
X126543830Y-79272154D01*
X126283830Y-79322154D01*
X125993830Y-79412154D01*
X125763830Y-79502154D01*
X125503830Y-79632154D01*
X122513830Y-74452154D01*
X122743830Y-74322154D01*
X123283830Y-74052154D01*
X123863830Y-73812154D01*
X124253830Y-73672154D01*
X124633830Y-73562154D01*
X125243830Y-73422154D01*
X125703830Y-73342154D01*
X126413830Y-73272154D01*
X126793830Y-73252154D01*
X126803830Y-79242154D01*
G37*
X126803830Y-100242154D02*
X126543830Y-100272154D01*
X126283830Y-100322154D01*
X125993830Y-100412154D01*
X125763830Y-100502154D01*
X125503830Y-100632154D01*
X122513830Y-95452154D01*
X122743830Y-95322154D01*
X123283830Y-95052154D01*
X123863830Y-94812154D01*
X124253830Y-94672154D01*
X124633830Y-94562154D01*
X125243830Y-94422154D01*
X125703830Y-94342154D01*
X126413830Y-94272154D01*
X126793830Y-94252154D01*
X126803830Y-100242154D01*
G36*
X126803830Y-100242154D02*
G01*
X126543830Y-100272154D01*
X126283830Y-100322154D01*
X125993830Y-100412154D01*
X125763830Y-100502154D01*
X125503830Y-100632154D01*
X122513830Y-95452154D01*
X122743830Y-95322154D01*
X123283830Y-95052154D01*
X123863830Y-94812154D01*
X124253830Y-94672154D01*
X124633830Y-94562154D01*
X125243830Y-94422154D01*
X125703830Y-94342154D01*
X126413830Y-94272154D01*
X126793830Y-94252154D01*
X126803830Y-100242154D01*
G37*
X126803830Y-121242154D02*
X126543830Y-121272154D01*
X126283830Y-121322154D01*
X125993830Y-121412154D01*
X125763830Y-121502154D01*
X125503830Y-121632154D01*
X122513830Y-116452154D01*
X122743830Y-116322154D01*
X123283830Y-116052154D01*
X123863830Y-115812154D01*
X124253830Y-115672154D01*
X124633830Y-115562154D01*
X125243830Y-115422154D01*
X125703830Y-115342154D01*
X126413830Y-115272154D01*
X126793830Y-115252154D01*
X126803830Y-121242154D01*
G36*
X126803830Y-121242154D02*
G01*
X126543830Y-121272154D01*
X126283830Y-121322154D01*
X125993830Y-121412154D01*
X125763830Y-121502154D01*
X125503830Y-121632154D01*
X122513830Y-116452154D01*
X122743830Y-116322154D01*
X123283830Y-116052154D01*
X123863830Y-115812154D01*
X124253830Y-115672154D01*
X124633830Y-115562154D01*
X125243830Y-115422154D01*
X125703830Y-115342154D01*
X126413830Y-115272154D01*
X126793830Y-115252154D01*
X126803830Y-121242154D01*
G37*
X131495800Y-69065400D02*
X131265800Y-69195400D01*
X130725800Y-69465400D01*
X130145800Y-69705400D01*
X129755800Y-69845400D01*
X129375800Y-69955400D01*
X128765800Y-70095400D01*
X128305800Y-70175400D01*
X127595800Y-70245400D01*
X127215800Y-70265400D01*
X127205800Y-64275400D01*
X127465800Y-64245400D01*
X127725800Y-64195400D01*
X128015800Y-64105400D01*
X128245800Y-64015400D01*
X128505800Y-63885400D01*
X131495800Y-69065400D01*
G36*
X131495800Y-69065400D02*
G01*
X131265800Y-69195400D01*
X130725800Y-69465400D01*
X130145800Y-69705400D01*
X129755800Y-69845400D01*
X129375800Y-69955400D01*
X128765800Y-70095400D01*
X128305800Y-70175400D01*
X127595800Y-70245400D01*
X127215800Y-70265400D01*
X127205800Y-64275400D01*
X127465800Y-64245400D01*
X127725800Y-64195400D01*
X128015800Y-64105400D01*
X128245800Y-64015400D01*
X128505800Y-63885400D01*
X131495800Y-69065400D01*
G37*
X131495800Y-90065400D02*
X131265800Y-90195400D01*
X130725800Y-90465400D01*
X130145800Y-90705400D01*
X129755800Y-90845400D01*
X129375800Y-90955400D01*
X128765800Y-91095400D01*
X128305800Y-91175400D01*
X127595800Y-91245400D01*
X127215800Y-91265400D01*
X127205800Y-85275400D01*
X127465800Y-85245400D01*
X127725800Y-85195400D01*
X128015800Y-85105400D01*
X128245800Y-85015400D01*
X128505800Y-84885400D01*
X131495800Y-90065400D01*
G36*
X131495800Y-90065400D02*
G01*
X131265800Y-90195400D01*
X130725800Y-90465400D01*
X130145800Y-90705400D01*
X129755800Y-90845400D01*
X129375800Y-90955400D01*
X128765800Y-91095400D01*
X128305800Y-91175400D01*
X127595800Y-91245400D01*
X127215800Y-91265400D01*
X127205800Y-85275400D01*
X127465800Y-85245400D01*
X127725800Y-85195400D01*
X128015800Y-85105400D01*
X128245800Y-85015400D01*
X128505800Y-84885400D01*
X131495800Y-90065400D01*
G37*
X131495800Y-111065400D02*
X131265800Y-111195400D01*
X130725800Y-111465400D01*
X130145800Y-111705400D01*
X129755800Y-111845400D01*
X129375800Y-111955400D01*
X128765800Y-112095400D01*
X128305800Y-112175400D01*
X127595800Y-112245400D01*
X127215800Y-112265400D01*
X127205800Y-106275400D01*
X127465800Y-106245400D01*
X127725800Y-106195400D01*
X128015800Y-106105400D01*
X128245800Y-106015400D01*
X128505800Y-105885400D01*
X131495800Y-111065400D01*
G36*
X131495800Y-111065400D02*
G01*
X131265800Y-111195400D01*
X130725800Y-111465400D01*
X130145800Y-111705400D01*
X129755800Y-111845400D01*
X129375800Y-111955400D01*
X128765800Y-112095400D01*
X128305800Y-112175400D01*
X127595800Y-112245400D01*
X127215800Y-112265400D01*
X127205800Y-106275400D01*
X127465800Y-106245400D01*
X127725800Y-106195400D01*
X128015800Y-106105400D01*
X128245800Y-106015400D01*
X128505800Y-105885400D01*
X131495800Y-111065400D01*
G37*
X131495800Y-132065400D02*
X131265800Y-132195400D01*
X130725800Y-132465400D01*
X130145800Y-132705400D01*
X129755800Y-132845400D01*
X129375800Y-132955400D01*
X128765800Y-133095400D01*
X128305800Y-133175400D01*
X127595800Y-133245400D01*
X127215800Y-133265400D01*
X127205800Y-127275400D01*
X127465800Y-127245400D01*
X127725800Y-127195400D01*
X128015800Y-127105400D01*
X128245800Y-127015400D01*
X128505800Y-126885400D01*
X131495800Y-132065400D01*
G36*
X131495800Y-132065400D02*
G01*
X131265800Y-132195400D01*
X130725800Y-132465400D01*
X130145800Y-132705400D01*
X129755800Y-132845400D01*
X129375800Y-132955400D01*
X128765800Y-133095400D01*
X128305800Y-133175400D01*
X127595800Y-133245400D01*
X127215800Y-133265400D01*
X127205800Y-127275400D01*
X127465800Y-127245400D01*
X127725800Y-127195400D01*
X128015800Y-127105400D01*
X128245800Y-127015400D01*
X128505800Y-126885400D01*
X131495800Y-132065400D01*
G37*
X134939815Y-56998777D02*
X135209815Y-57538777D01*
X135449815Y-58118777D01*
X135589815Y-58508777D01*
X135699815Y-58888777D01*
X135839815Y-59498777D01*
X135919815Y-59958777D01*
X135989815Y-60668777D01*
X136009815Y-61048777D01*
X130019815Y-61058777D01*
X129989815Y-60798777D01*
X129939815Y-60538777D01*
X129849815Y-60248777D01*
X129759815Y-60018777D01*
X129629815Y-59758777D01*
X134809815Y-56768777D01*
X134939815Y-56998777D01*
G36*
X134939815Y-56998777D02*
G01*
X135209815Y-57538777D01*
X135449815Y-58118777D01*
X135589815Y-58508777D01*
X135699815Y-58888777D01*
X135839815Y-59498777D01*
X135919815Y-59958777D01*
X135989815Y-60668777D01*
X136009815Y-61048777D01*
X130019815Y-61058777D01*
X129989815Y-60798777D01*
X129939815Y-60538777D01*
X129849815Y-60248777D01*
X129759815Y-60018777D01*
X129629815Y-59758777D01*
X134809815Y-56768777D01*
X134939815Y-56998777D01*
G37*
X134939815Y-77998777D02*
X135209815Y-78538777D01*
X135449815Y-79118777D01*
X135589815Y-79508777D01*
X135699815Y-79888777D01*
X135839815Y-80498777D01*
X135919815Y-80958777D01*
X135989815Y-81668777D01*
X136009815Y-82048777D01*
X130019815Y-82058777D01*
X129989815Y-81798777D01*
X129939815Y-81538777D01*
X129849815Y-81248777D01*
X129759815Y-81018777D01*
X129629815Y-80758777D01*
X134809815Y-77768777D01*
X134939815Y-77998777D01*
G36*
X134939815Y-77998777D02*
G01*
X135209815Y-78538777D01*
X135449815Y-79118777D01*
X135589815Y-79508777D01*
X135699815Y-79888777D01*
X135839815Y-80498777D01*
X135919815Y-80958777D01*
X135989815Y-81668777D01*
X136009815Y-82048777D01*
X130019815Y-82058777D01*
X129989815Y-81798777D01*
X129939815Y-81538777D01*
X129849815Y-81248777D01*
X129759815Y-81018777D01*
X129629815Y-80758777D01*
X134809815Y-77768777D01*
X134939815Y-77998777D01*
G37*
X134939815Y-98998777D02*
X135209815Y-99538777D01*
X135449815Y-100118777D01*
X135589815Y-100508777D01*
X135699815Y-100888777D01*
X135839815Y-101498777D01*
X135919815Y-101958777D01*
X135989815Y-102668777D01*
X136009815Y-103048777D01*
X130019815Y-103058777D01*
X129989815Y-102798777D01*
X129939815Y-102538777D01*
X129849815Y-102248777D01*
X129759815Y-102018777D01*
X129629815Y-101758777D01*
X134809815Y-98768777D01*
X134939815Y-98998777D01*
G36*
X134939815Y-98998777D02*
G01*
X135209815Y-99538777D01*
X135449815Y-100118777D01*
X135589815Y-100508777D01*
X135699815Y-100888777D01*
X135839815Y-101498777D01*
X135919815Y-101958777D01*
X135989815Y-102668777D01*
X136009815Y-103048777D01*
X130019815Y-103058777D01*
X129989815Y-102798777D01*
X129939815Y-102538777D01*
X129849815Y-102248777D01*
X129759815Y-102018777D01*
X129629815Y-101758777D01*
X134809815Y-98768777D01*
X134939815Y-98998777D01*
G37*
X134939815Y-119998777D02*
X135209815Y-120538777D01*
X135449815Y-121118777D01*
X135589815Y-121508777D01*
X135699815Y-121888777D01*
X135839815Y-122498777D01*
X135919815Y-122958777D01*
X135989815Y-123668777D01*
X136009815Y-124048777D01*
X130019815Y-124058777D01*
X129989815Y-123798777D01*
X129939815Y-123538777D01*
X129849815Y-123248777D01*
X129759815Y-123018777D01*
X129629815Y-122758777D01*
X134809815Y-119768777D01*
X134939815Y-119998777D01*
G36*
X134939815Y-119998777D02*
G01*
X135209815Y-120538777D01*
X135449815Y-121118777D01*
X135589815Y-121508777D01*
X135699815Y-121888777D01*
X135839815Y-122498777D01*
X135919815Y-122958777D01*
X135989815Y-123668777D01*
X136009815Y-124048777D01*
X130019815Y-124058777D01*
X129989815Y-123798777D01*
X129939815Y-123538777D01*
X129849815Y-123248777D01*
X129759815Y-123018777D01*
X129629815Y-122758777D01*
X134809815Y-119768777D01*
X134939815Y-119998777D01*
G37*
X145053192Y-61724762D02*
X145103192Y-61984762D01*
X145193192Y-62274762D01*
X145283192Y-62504762D01*
X145413192Y-62764762D01*
X140233192Y-65754762D01*
X140103192Y-65524762D01*
X139833192Y-64984762D01*
X139593192Y-64404762D01*
X139453192Y-64014762D01*
X139343192Y-63634762D01*
X139203192Y-63024762D01*
X139123192Y-62564762D01*
X139053192Y-61854762D01*
X139033192Y-61474762D01*
X145023192Y-61464762D01*
X145053192Y-61724762D01*
G36*
X145053192Y-61724762D02*
G01*
X145103192Y-61984762D01*
X145193192Y-62274762D01*
X145283192Y-62504762D01*
X145413192Y-62764762D01*
X140233192Y-65754762D01*
X140103192Y-65524762D01*
X139833192Y-64984762D01*
X139593192Y-64404762D01*
X139453192Y-64014762D01*
X139343192Y-63634762D01*
X139203192Y-63024762D01*
X139123192Y-62564762D01*
X139053192Y-61854762D01*
X139033192Y-61474762D01*
X145023192Y-61464762D01*
X145053192Y-61724762D01*
G37*
X145053192Y-82724762D02*
X145103192Y-82984762D01*
X145193192Y-83274762D01*
X145283192Y-83504762D01*
X145413192Y-83764762D01*
X140233192Y-86754762D01*
X140103192Y-86524762D01*
X139833192Y-85984762D01*
X139593192Y-85404762D01*
X139453192Y-85014762D01*
X139343192Y-84634762D01*
X139203192Y-84024762D01*
X139123192Y-83564762D01*
X139053192Y-82854762D01*
X139033192Y-82474762D01*
X145023192Y-82464762D01*
X145053192Y-82724762D01*
G36*
X145053192Y-82724762D02*
G01*
X145103192Y-82984762D01*
X145193192Y-83274762D01*
X145283192Y-83504762D01*
X145413192Y-83764762D01*
X140233192Y-86754762D01*
X140103192Y-86524762D01*
X139833192Y-85984762D01*
X139593192Y-85404762D01*
X139453192Y-85014762D01*
X139343192Y-84634762D01*
X139203192Y-84024762D01*
X139123192Y-83564762D01*
X139053192Y-82854762D01*
X139033192Y-82474762D01*
X145023192Y-82464762D01*
X145053192Y-82724762D01*
G37*
X145053192Y-103724762D02*
X145103192Y-103984762D01*
X145193192Y-104274762D01*
X145283192Y-104504762D01*
X145413192Y-104764762D01*
X140233192Y-107754762D01*
X140103192Y-107524762D01*
X139833192Y-106984762D01*
X139593192Y-106404762D01*
X139453192Y-106014762D01*
X139343192Y-105634762D01*
X139203192Y-105024762D01*
X139123192Y-104564762D01*
X139053192Y-103854762D01*
X139033192Y-103474762D01*
X145023192Y-103464762D01*
X145053192Y-103724762D01*
G36*
X145053192Y-103724762D02*
G01*
X145103192Y-103984762D01*
X145193192Y-104274762D01*
X145283192Y-104504762D01*
X145413192Y-104764762D01*
X140233192Y-107754762D01*
X140103192Y-107524762D01*
X139833192Y-106984762D01*
X139593192Y-106404762D01*
X139453192Y-106014762D01*
X139343192Y-105634762D01*
X139203192Y-105024762D01*
X139123192Y-104564762D01*
X139053192Y-103854762D01*
X139033192Y-103474762D01*
X145023192Y-103464762D01*
X145053192Y-103724762D01*
G37*
X145053192Y-124724762D02*
X145103192Y-124984762D01*
X145193192Y-125274762D01*
X145283192Y-125504762D01*
X145413192Y-125764762D01*
X140233192Y-128754762D01*
X140103192Y-128524762D01*
X139833192Y-127984762D01*
X139593192Y-127404762D01*
X139453192Y-127014762D01*
X139343192Y-126634762D01*
X139203192Y-126024762D01*
X139123192Y-125564762D01*
X139053192Y-124854762D01*
X139033192Y-124474762D01*
X145023192Y-124464762D01*
X145053192Y-124724762D01*
G36*
X145053192Y-124724762D02*
G01*
X145103192Y-124984762D01*
X145193192Y-125274762D01*
X145283192Y-125504762D01*
X145413192Y-125764762D01*
X140233192Y-128754762D01*
X140103192Y-128524762D01*
X139833192Y-127984762D01*
X139593192Y-127404762D01*
X139453192Y-127014762D01*
X139343192Y-126634762D01*
X139203192Y-126024762D01*
X139123192Y-125564762D01*
X139053192Y-124854762D01*
X139033192Y-124474762D01*
X145023192Y-124464762D01*
X145053192Y-124724762D01*
G37*
X147803830Y-58242154D02*
X147543830Y-58272154D01*
X147283830Y-58322154D01*
X146993830Y-58412154D01*
X146763830Y-58502154D01*
X146503830Y-58632154D01*
X143513830Y-53452154D01*
X143743830Y-53322154D01*
X144283830Y-53052154D01*
X144863830Y-52812154D01*
X145253830Y-52672154D01*
X145633830Y-52562154D01*
X146243830Y-52422154D01*
X146703830Y-52342154D01*
X147413830Y-52272154D01*
X147793830Y-52252154D01*
X147803830Y-58242154D01*
G36*
X147803830Y-58242154D02*
G01*
X147543830Y-58272154D01*
X147283830Y-58322154D01*
X146993830Y-58412154D01*
X146763830Y-58502154D01*
X146503830Y-58632154D01*
X143513830Y-53452154D01*
X143743830Y-53322154D01*
X144283830Y-53052154D01*
X144863830Y-52812154D01*
X145253830Y-52672154D01*
X145633830Y-52562154D01*
X146243830Y-52422154D01*
X146703830Y-52342154D01*
X147413830Y-52272154D01*
X147793830Y-52252154D01*
X147803830Y-58242154D01*
G37*
X147803830Y-79242154D02*
X147543830Y-79272154D01*
X147283830Y-79322154D01*
X146993830Y-79412154D01*
X146763830Y-79502154D01*
X146503830Y-79632154D01*
X143513830Y-74452154D01*
X143743830Y-74322154D01*
X144283830Y-74052154D01*
X144863830Y-73812154D01*
X145253830Y-73672154D01*
X145633830Y-73562154D01*
X146243830Y-73422154D01*
X146703830Y-73342154D01*
X147413830Y-73272154D01*
X147793830Y-73252154D01*
X147803830Y-79242154D01*
G36*
X147803830Y-79242154D02*
G01*
X147543830Y-79272154D01*
X147283830Y-79322154D01*
X146993830Y-79412154D01*
X146763830Y-79502154D01*
X146503830Y-79632154D01*
X143513830Y-74452154D01*
X143743830Y-74322154D01*
X144283830Y-74052154D01*
X144863830Y-73812154D01*
X145253830Y-73672154D01*
X145633830Y-73562154D01*
X146243830Y-73422154D01*
X146703830Y-73342154D01*
X147413830Y-73272154D01*
X147793830Y-73252154D01*
X147803830Y-79242154D01*
G37*
X147803830Y-100242154D02*
X147543830Y-100272154D01*
X147283830Y-100322154D01*
X146993830Y-100412154D01*
X146763830Y-100502154D01*
X146503830Y-100632154D01*
X143513830Y-95452154D01*
X143743830Y-95322154D01*
X144283830Y-95052154D01*
X144863830Y-94812154D01*
X145253830Y-94672154D01*
X145633830Y-94562154D01*
X146243830Y-94422154D01*
X146703830Y-94342154D01*
X147413830Y-94272154D01*
X147793830Y-94252154D01*
X147803830Y-100242154D01*
G36*
X147803830Y-100242154D02*
G01*
X147543830Y-100272154D01*
X147283830Y-100322154D01*
X146993830Y-100412154D01*
X146763830Y-100502154D01*
X146503830Y-100632154D01*
X143513830Y-95452154D01*
X143743830Y-95322154D01*
X144283830Y-95052154D01*
X144863830Y-94812154D01*
X145253830Y-94672154D01*
X145633830Y-94562154D01*
X146243830Y-94422154D01*
X146703830Y-94342154D01*
X147413830Y-94272154D01*
X147793830Y-94252154D01*
X147803830Y-100242154D01*
G37*
X147803830Y-121242154D02*
X147543830Y-121272154D01*
X147283830Y-121322154D01*
X146993830Y-121412154D01*
X146763830Y-121502154D01*
X146503830Y-121632154D01*
X143513830Y-116452154D01*
X143743830Y-116322154D01*
X144283830Y-116052154D01*
X144863830Y-115812154D01*
X145253830Y-115672154D01*
X145633830Y-115562154D01*
X146243830Y-115422154D01*
X146703830Y-115342154D01*
X147413830Y-115272154D01*
X147793830Y-115252154D01*
X147803830Y-121242154D01*
G36*
X147803830Y-121242154D02*
G01*
X147543830Y-121272154D01*
X147283830Y-121322154D01*
X146993830Y-121412154D01*
X146763830Y-121502154D01*
X146503830Y-121632154D01*
X143513830Y-116452154D01*
X143743830Y-116322154D01*
X144283830Y-116052154D01*
X144863830Y-115812154D01*
X145253830Y-115672154D01*
X145633830Y-115562154D01*
X146243830Y-115422154D01*
X146703830Y-115342154D01*
X147413830Y-115272154D01*
X147793830Y-115252154D01*
X147803830Y-121242154D01*
G37*
X152495800Y-69065400D02*
X152265800Y-69195400D01*
X151725800Y-69465400D01*
X151145800Y-69705400D01*
X150755800Y-69845400D01*
X150375800Y-69955400D01*
X149765800Y-70095400D01*
X149305800Y-70175400D01*
X148595800Y-70245400D01*
X148215800Y-70265400D01*
X148205800Y-64275400D01*
X148465800Y-64245400D01*
X148725800Y-64195400D01*
X149015800Y-64105400D01*
X149245800Y-64015400D01*
X149505800Y-63885400D01*
X152495800Y-69065400D01*
G36*
X152495800Y-69065400D02*
G01*
X152265800Y-69195400D01*
X151725800Y-69465400D01*
X151145800Y-69705400D01*
X150755800Y-69845400D01*
X150375800Y-69955400D01*
X149765800Y-70095400D01*
X149305800Y-70175400D01*
X148595800Y-70245400D01*
X148215800Y-70265400D01*
X148205800Y-64275400D01*
X148465800Y-64245400D01*
X148725800Y-64195400D01*
X149015800Y-64105400D01*
X149245800Y-64015400D01*
X149505800Y-63885400D01*
X152495800Y-69065400D01*
G37*
X152495800Y-90065400D02*
X152265800Y-90195400D01*
X151725800Y-90465400D01*
X151145800Y-90705400D01*
X150755800Y-90845400D01*
X150375800Y-90955400D01*
X149765800Y-91095400D01*
X149305800Y-91175400D01*
X148595800Y-91245400D01*
X148215800Y-91265400D01*
X148205800Y-85275400D01*
X148465800Y-85245400D01*
X148725800Y-85195400D01*
X149015800Y-85105400D01*
X149245800Y-85015400D01*
X149505800Y-84885400D01*
X152495800Y-90065400D01*
G36*
X152495800Y-90065400D02*
G01*
X152265800Y-90195400D01*
X151725800Y-90465400D01*
X151145800Y-90705400D01*
X150755800Y-90845400D01*
X150375800Y-90955400D01*
X149765800Y-91095400D01*
X149305800Y-91175400D01*
X148595800Y-91245400D01*
X148215800Y-91265400D01*
X148205800Y-85275400D01*
X148465800Y-85245400D01*
X148725800Y-85195400D01*
X149015800Y-85105400D01*
X149245800Y-85015400D01*
X149505800Y-84885400D01*
X152495800Y-90065400D01*
G37*
X152495800Y-111065400D02*
X152265800Y-111195400D01*
X151725800Y-111465400D01*
X151145800Y-111705400D01*
X150755800Y-111845400D01*
X150375800Y-111955400D01*
X149765800Y-112095400D01*
X149305800Y-112175400D01*
X148595800Y-112245400D01*
X148215800Y-112265400D01*
X148205800Y-106275400D01*
X148465800Y-106245400D01*
X148725800Y-106195400D01*
X149015800Y-106105400D01*
X149245800Y-106015400D01*
X149505800Y-105885400D01*
X152495800Y-111065400D01*
G36*
X152495800Y-111065400D02*
G01*
X152265800Y-111195400D01*
X151725800Y-111465400D01*
X151145800Y-111705400D01*
X150755800Y-111845400D01*
X150375800Y-111955400D01*
X149765800Y-112095400D01*
X149305800Y-112175400D01*
X148595800Y-112245400D01*
X148215800Y-112265400D01*
X148205800Y-106275400D01*
X148465800Y-106245400D01*
X148725800Y-106195400D01*
X149015800Y-106105400D01*
X149245800Y-106015400D01*
X149505800Y-105885400D01*
X152495800Y-111065400D01*
G37*
X152495800Y-132065400D02*
X152265800Y-132195400D01*
X151725800Y-132465400D01*
X151145800Y-132705400D01*
X150755800Y-132845400D01*
X150375800Y-132955400D01*
X149765800Y-133095400D01*
X149305800Y-133175400D01*
X148595800Y-133245400D01*
X148215800Y-133265400D01*
X148205800Y-127275400D01*
X148465800Y-127245400D01*
X148725800Y-127195400D01*
X149015800Y-127105400D01*
X149245800Y-127015400D01*
X149505800Y-126885400D01*
X152495800Y-132065400D01*
G36*
X152495800Y-132065400D02*
G01*
X152265800Y-132195400D01*
X151725800Y-132465400D01*
X151145800Y-132705400D01*
X150755800Y-132845400D01*
X150375800Y-132955400D01*
X149765800Y-133095400D01*
X149305800Y-133175400D01*
X148595800Y-133245400D01*
X148215800Y-133265400D01*
X148205800Y-127275400D01*
X148465800Y-127245400D01*
X148725800Y-127195400D01*
X149015800Y-127105400D01*
X149245800Y-127015400D01*
X149505800Y-126885400D01*
X152495800Y-132065400D01*
G37*
X155939815Y-56998777D02*
X156209815Y-57538777D01*
X156449815Y-58118777D01*
X156589815Y-58508777D01*
X156699815Y-58888777D01*
X156839815Y-59498777D01*
X156919815Y-59958777D01*
X156989815Y-60668777D01*
X157009815Y-61048777D01*
X151019815Y-61058777D01*
X150989815Y-60798777D01*
X150939815Y-60538777D01*
X150849815Y-60248777D01*
X150759815Y-60018777D01*
X150629815Y-59758777D01*
X155809815Y-56768777D01*
X155939815Y-56998777D01*
G36*
X155939815Y-56998777D02*
G01*
X156209815Y-57538777D01*
X156449815Y-58118777D01*
X156589815Y-58508777D01*
X156699815Y-58888777D01*
X156839815Y-59498777D01*
X156919815Y-59958777D01*
X156989815Y-60668777D01*
X157009815Y-61048777D01*
X151019815Y-61058777D01*
X150989815Y-60798777D01*
X150939815Y-60538777D01*
X150849815Y-60248777D01*
X150759815Y-60018777D01*
X150629815Y-59758777D01*
X155809815Y-56768777D01*
X155939815Y-56998777D01*
G37*
X155939815Y-77998777D02*
X156209815Y-78538777D01*
X156449815Y-79118777D01*
X156589815Y-79508777D01*
X156699815Y-79888777D01*
X156839815Y-80498777D01*
X156919815Y-80958777D01*
X156989815Y-81668777D01*
X157009815Y-82048777D01*
X151019815Y-82058777D01*
X150989815Y-81798777D01*
X150939815Y-81538777D01*
X150849815Y-81248777D01*
X150759815Y-81018777D01*
X150629815Y-80758777D01*
X155809815Y-77768777D01*
X155939815Y-77998777D01*
G36*
X155939815Y-77998777D02*
G01*
X156209815Y-78538777D01*
X156449815Y-79118777D01*
X156589815Y-79508777D01*
X156699815Y-79888777D01*
X156839815Y-80498777D01*
X156919815Y-80958777D01*
X156989815Y-81668777D01*
X157009815Y-82048777D01*
X151019815Y-82058777D01*
X150989815Y-81798777D01*
X150939815Y-81538777D01*
X150849815Y-81248777D01*
X150759815Y-81018777D01*
X150629815Y-80758777D01*
X155809815Y-77768777D01*
X155939815Y-77998777D01*
G37*
X155939815Y-98998777D02*
X156209815Y-99538777D01*
X156449815Y-100118777D01*
X156589815Y-100508777D01*
X156699815Y-100888777D01*
X156839815Y-101498777D01*
X156919815Y-101958777D01*
X156989815Y-102668777D01*
X157009815Y-103048777D01*
X151019815Y-103058777D01*
X150989815Y-102798777D01*
X150939815Y-102538777D01*
X150849815Y-102248777D01*
X150759815Y-102018777D01*
X150629815Y-101758777D01*
X155809815Y-98768777D01*
X155939815Y-98998777D01*
G36*
X155939815Y-98998777D02*
G01*
X156209815Y-99538777D01*
X156449815Y-100118777D01*
X156589815Y-100508777D01*
X156699815Y-100888777D01*
X156839815Y-101498777D01*
X156919815Y-101958777D01*
X156989815Y-102668777D01*
X157009815Y-103048777D01*
X151019815Y-103058777D01*
X150989815Y-102798777D01*
X150939815Y-102538777D01*
X150849815Y-102248777D01*
X150759815Y-102018777D01*
X150629815Y-101758777D01*
X155809815Y-98768777D01*
X155939815Y-98998777D01*
G37*
X155939815Y-119998777D02*
X156209815Y-120538777D01*
X156449815Y-121118777D01*
X156589815Y-121508777D01*
X156699815Y-121888777D01*
X156839815Y-122498777D01*
X156919815Y-122958777D01*
X156989815Y-123668777D01*
X157009815Y-124048777D01*
X151019815Y-124058777D01*
X150989815Y-123798777D01*
X150939815Y-123538777D01*
X150849815Y-123248777D01*
X150759815Y-123018777D01*
X150629815Y-122758777D01*
X155809815Y-119768777D01*
X155939815Y-119998777D01*
G36*
X155939815Y-119998777D02*
G01*
X156209815Y-120538777D01*
X156449815Y-121118777D01*
X156589815Y-121508777D01*
X156699815Y-121888777D01*
X156839815Y-122498777D01*
X156919815Y-122958777D01*
X156989815Y-123668777D01*
X157009815Y-124048777D01*
X151019815Y-124058777D01*
X150989815Y-123798777D01*
X150939815Y-123538777D01*
X150849815Y-123248777D01*
X150759815Y-123018777D01*
X150629815Y-122758777D01*
X155809815Y-119768777D01*
X155939815Y-119998777D01*
G37*
X166053192Y-61724762D02*
X166103192Y-61984762D01*
X166193192Y-62274762D01*
X166283192Y-62504762D01*
X166413192Y-62764762D01*
X161233192Y-65754762D01*
X161103192Y-65524762D01*
X160833192Y-64984762D01*
X160593192Y-64404762D01*
X160453192Y-64014762D01*
X160343192Y-63634762D01*
X160203192Y-63024762D01*
X160123192Y-62564762D01*
X160053192Y-61854762D01*
X160033192Y-61474762D01*
X166023192Y-61464762D01*
X166053192Y-61724762D01*
G36*
X166053192Y-61724762D02*
G01*
X166103192Y-61984762D01*
X166193192Y-62274762D01*
X166283192Y-62504762D01*
X166413192Y-62764762D01*
X161233192Y-65754762D01*
X161103192Y-65524762D01*
X160833192Y-64984762D01*
X160593192Y-64404762D01*
X160453192Y-64014762D01*
X160343192Y-63634762D01*
X160203192Y-63024762D01*
X160123192Y-62564762D01*
X160053192Y-61854762D01*
X160033192Y-61474762D01*
X166023192Y-61464762D01*
X166053192Y-61724762D01*
G37*
X166053192Y-82724762D02*
X166103192Y-82984762D01*
X166193192Y-83274762D01*
X166283192Y-83504762D01*
X166413192Y-83764762D01*
X161233192Y-86754762D01*
X161103192Y-86524762D01*
X160833192Y-85984762D01*
X160593192Y-85404762D01*
X160453192Y-85014762D01*
X160343192Y-84634762D01*
X160203192Y-84024762D01*
X160123192Y-83564762D01*
X160053192Y-82854762D01*
X160033192Y-82474762D01*
X166023192Y-82464762D01*
X166053192Y-82724762D01*
G36*
X166053192Y-82724762D02*
G01*
X166103192Y-82984762D01*
X166193192Y-83274762D01*
X166283192Y-83504762D01*
X166413192Y-83764762D01*
X161233192Y-86754762D01*
X161103192Y-86524762D01*
X160833192Y-85984762D01*
X160593192Y-85404762D01*
X160453192Y-85014762D01*
X160343192Y-84634762D01*
X160203192Y-84024762D01*
X160123192Y-83564762D01*
X160053192Y-82854762D01*
X160033192Y-82474762D01*
X166023192Y-82464762D01*
X166053192Y-82724762D01*
G37*
X166053192Y-103724762D02*
X166103192Y-103984762D01*
X166193192Y-104274762D01*
X166283192Y-104504762D01*
X166413192Y-104764762D01*
X161233192Y-107754762D01*
X161103192Y-107524762D01*
X160833192Y-106984762D01*
X160593192Y-106404762D01*
X160453192Y-106014762D01*
X160343192Y-105634762D01*
X160203192Y-105024762D01*
X160123192Y-104564762D01*
X160053192Y-103854762D01*
X160033192Y-103474762D01*
X166023192Y-103464762D01*
X166053192Y-103724762D01*
G36*
X166053192Y-103724762D02*
G01*
X166103192Y-103984762D01*
X166193192Y-104274762D01*
X166283192Y-104504762D01*
X166413192Y-104764762D01*
X161233192Y-107754762D01*
X161103192Y-107524762D01*
X160833192Y-106984762D01*
X160593192Y-106404762D01*
X160453192Y-106014762D01*
X160343192Y-105634762D01*
X160203192Y-105024762D01*
X160123192Y-104564762D01*
X160053192Y-103854762D01*
X160033192Y-103474762D01*
X166023192Y-103464762D01*
X166053192Y-103724762D01*
G37*
X166053192Y-124724762D02*
X166103192Y-124984762D01*
X166193192Y-125274762D01*
X166283192Y-125504762D01*
X166413192Y-125764762D01*
X161233192Y-128754762D01*
X161103192Y-128524762D01*
X160833192Y-127984762D01*
X160593192Y-127404762D01*
X160453192Y-127014762D01*
X160343192Y-126634762D01*
X160203192Y-126024762D01*
X160123192Y-125564762D01*
X160053192Y-124854762D01*
X160033192Y-124474762D01*
X166023192Y-124464762D01*
X166053192Y-124724762D01*
G36*
X166053192Y-124724762D02*
G01*
X166103192Y-124984762D01*
X166193192Y-125274762D01*
X166283192Y-125504762D01*
X166413192Y-125764762D01*
X161233192Y-128754762D01*
X161103192Y-128524762D01*
X160833192Y-127984762D01*
X160593192Y-127404762D01*
X160453192Y-127014762D01*
X160343192Y-126634762D01*
X160203192Y-126024762D01*
X160123192Y-125564762D01*
X160053192Y-124854762D01*
X160033192Y-124474762D01*
X166023192Y-124464762D01*
X166053192Y-124724762D01*
G37*
X168803830Y-58242154D02*
X168543830Y-58272154D01*
X168283830Y-58322154D01*
X167993830Y-58412154D01*
X167763830Y-58502154D01*
X167503830Y-58632154D01*
X164513830Y-53452154D01*
X164743830Y-53322154D01*
X165283830Y-53052154D01*
X165863830Y-52812154D01*
X166253830Y-52672154D01*
X166633830Y-52562154D01*
X167243830Y-52422154D01*
X167703830Y-52342154D01*
X168413830Y-52272154D01*
X168793830Y-52252154D01*
X168803830Y-58242154D01*
G36*
X168803830Y-58242154D02*
G01*
X168543830Y-58272154D01*
X168283830Y-58322154D01*
X167993830Y-58412154D01*
X167763830Y-58502154D01*
X167503830Y-58632154D01*
X164513830Y-53452154D01*
X164743830Y-53322154D01*
X165283830Y-53052154D01*
X165863830Y-52812154D01*
X166253830Y-52672154D01*
X166633830Y-52562154D01*
X167243830Y-52422154D01*
X167703830Y-52342154D01*
X168413830Y-52272154D01*
X168793830Y-52252154D01*
X168803830Y-58242154D01*
G37*
X168803830Y-79242154D02*
X168543830Y-79272154D01*
X168283830Y-79322154D01*
X167993830Y-79412154D01*
X167763830Y-79502154D01*
X167503830Y-79632154D01*
X164513830Y-74452154D01*
X164743830Y-74322154D01*
X165283830Y-74052154D01*
X165863830Y-73812154D01*
X166253830Y-73672154D01*
X166633830Y-73562154D01*
X167243830Y-73422154D01*
X167703830Y-73342154D01*
X168413830Y-73272154D01*
X168793830Y-73252154D01*
X168803830Y-79242154D01*
G36*
X168803830Y-79242154D02*
G01*
X168543830Y-79272154D01*
X168283830Y-79322154D01*
X167993830Y-79412154D01*
X167763830Y-79502154D01*
X167503830Y-79632154D01*
X164513830Y-74452154D01*
X164743830Y-74322154D01*
X165283830Y-74052154D01*
X165863830Y-73812154D01*
X166253830Y-73672154D01*
X166633830Y-73562154D01*
X167243830Y-73422154D01*
X167703830Y-73342154D01*
X168413830Y-73272154D01*
X168793830Y-73252154D01*
X168803830Y-79242154D01*
G37*
X168803830Y-100242154D02*
X168543830Y-100272154D01*
X168283830Y-100322154D01*
X167993830Y-100412154D01*
X167763830Y-100502154D01*
X167503830Y-100632154D01*
X164513830Y-95452154D01*
X164743830Y-95322154D01*
X165283830Y-95052154D01*
X165863830Y-94812154D01*
X166253830Y-94672154D01*
X166633830Y-94562154D01*
X167243830Y-94422154D01*
X167703830Y-94342154D01*
X168413830Y-94272154D01*
X168793830Y-94252154D01*
X168803830Y-100242154D01*
G36*
X168803830Y-100242154D02*
G01*
X168543830Y-100272154D01*
X168283830Y-100322154D01*
X167993830Y-100412154D01*
X167763830Y-100502154D01*
X167503830Y-100632154D01*
X164513830Y-95452154D01*
X164743830Y-95322154D01*
X165283830Y-95052154D01*
X165863830Y-94812154D01*
X166253830Y-94672154D01*
X166633830Y-94562154D01*
X167243830Y-94422154D01*
X167703830Y-94342154D01*
X168413830Y-94272154D01*
X168793830Y-94252154D01*
X168803830Y-100242154D01*
G37*
X168803830Y-121242154D02*
X168543830Y-121272154D01*
X168283830Y-121322154D01*
X167993830Y-121412154D01*
X167763830Y-121502154D01*
X167503830Y-121632154D01*
X164513830Y-116452154D01*
X164743830Y-116322154D01*
X165283830Y-116052154D01*
X165863830Y-115812154D01*
X166253830Y-115672154D01*
X166633830Y-115562154D01*
X167243830Y-115422154D01*
X167703830Y-115342154D01*
X168413830Y-115272154D01*
X168793830Y-115252154D01*
X168803830Y-121242154D01*
G36*
X168803830Y-121242154D02*
G01*
X168543830Y-121272154D01*
X168283830Y-121322154D01*
X167993830Y-121412154D01*
X167763830Y-121502154D01*
X167503830Y-121632154D01*
X164513830Y-116452154D01*
X164743830Y-116322154D01*
X165283830Y-116052154D01*
X165863830Y-115812154D01*
X166253830Y-115672154D01*
X166633830Y-115562154D01*
X167243830Y-115422154D01*
X167703830Y-115342154D01*
X168413830Y-115272154D01*
X168793830Y-115252154D01*
X168803830Y-121242154D01*
G37*
X173495800Y-69065400D02*
X173265800Y-69195400D01*
X172725800Y-69465400D01*
X172145800Y-69705400D01*
X171755800Y-69845400D01*
X171375800Y-69955400D01*
X170765800Y-70095400D01*
X170305800Y-70175400D01*
X169595800Y-70245400D01*
X169215800Y-70265400D01*
X169205800Y-64275400D01*
X169465800Y-64245400D01*
X169725800Y-64195400D01*
X170015800Y-64105400D01*
X170245800Y-64015400D01*
X170505800Y-63885400D01*
X173495800Y-69065400D01*
G36*
X173495800Y-69065400D02*
G01*
X173265800Y-69195400D01*
X172725800Y-69465400D01*
X172145800Y-69705400D01*
X171755800Y-69845400D01*
X171375800Y-69955400D01*
X170765800Y-70095400D01*
X170305800Y-70175400D01*
X169595800Y-70245400D01*
X169215800Y-70265400D01*
X169205800Y-64275400D01*
X169465800Y-64245400D01*
X169725800Y-64195400D01*
X170015800Y-64105400D01*
X170245800Y-64015400D01*
X170505800Y-63885400D01*
X173495800Y-69065400D01*
G37*
X173495800Y-90065400D02*
X173265800Y-90195400D01*
X172725800Y-90465400D01*
X172145800Y-90705400D01*
X171755800Y-90845400D01*
X171375800Y-90955400D01*
X170765800Y-91095400D01*
X170305800Y-91175400D01*
X169595800Y-91245400D01*
X169215800Y-91265400D01*
X169205800Y-85275400D01*
X169465800Y-85245400D01*
X169725800Y-85195400D01*
X170015800Y-85105400D01*
X170245800Y-85015400D01*
X170505800Y-84885400D01*
X173495800Y-90065400D01*
G36*
X173495800Y-90065400D02*
G01*
X173265800Y-90195400D01*
X172725800Y-90465400D01*
X172145800Y-90705400D01*
X171755800Y-90845400D01*
X171375800Y-90955400D01*
X170765800Y-91095400D01*
X170305800Y-91175400D01*
X169595800Y-91245400D01*
X169215800Y-91265400D01*
X169205800Y-85275400D01*
X169465800Y-85245400D01*
X169725800Y-85195400D01*
X170015800Y-85105400D01*
X170245800Y-85015400D01*
X170505800Y-84885400D01*
X173495800Y-90065400D01*
G37*
X173495800Y-111065400D02*
X173265800Y-111195400D01*
X172725800Y-111465400D01*
X172145800Y-111705400D01*
X171755800Y-111845400D01*
X171375800Y-111955400D01*
X170765800Y-112095400D01*
X170305800Y-112175400D01*
X169595800Y-112245400D01*
X169215800Y-112265400D01*
X169205800Y-106275400D01*
X169465800Y-106245400D01*
X169725800Y-106195400D01*
X170015800Y-106105400D01*
X170245800Y-106015400D01*
X170505800Y-105885400D01*
X173495800Y-111065400D01*
G36*
X173495800Y-111065400D02*
G01*
X173265800Y-111195400D01*
X172725800Y-111465400D01*
X172145800Y-111705400D01*
X171755800Y-111845400D01*
X171375800Y-111955400D01*
X170765800Y-112095400D01*
X170305800Y-112175400D01*
X169595800Y-112245400D01*
X169215800Y-112265400D01*
X169205800Y-106275400D01*
X169465800Y-106245400D01*
X169725800Y-106195400D01*
X170015800Y-106105400D01*
X170245800Y-106015400D01*
X170505800Y-105885400D01*
X173495800Y-111065400D01*
G37*
X173495800Y-132065400D02*
X173265800Y-132195400D01*
X172725800Y-132465400D01*
X172145800Y-132705400D01*
X171755800Y-132845400D01*
X171375800Y-132955400D01*
X170765800Y-133095400D01*
X170305800Y-133175400D01*
X169595800Y-133245400D01*
X169215800Y-133265400D01*
X169205800Y-127275400D01*
X169465800Y-127245400D01*
X169725800Y-127195400D01*
X170015800Y-127105400D01*
X170245800Y-127015400D01*
X170505800Y-126885400D01*
X173495800Y-132065400D01*
G36*
X173495800Y-132065400D02*
G01*
X173265800Y-132195400D01*
X172725800Y-132465400D01*
X172145800Y-132705400D01*
X171755800Y-132845400D01*
X171375800Y-132955400D01*
X170765800Y-133095400D01*
X170305800Y-133175400D01*
X169595800Y-133245400D01*
X169215800Y-133265400D01*
X169205800Y-127275400D01*
X169465800Y-127245400D01*
X169725800Y-127195400D01*
X170015800Y-127105400D01*
X170245800Y-127015400D01*
X170505800Y-126885400D01*
X173495800Y-132065400D01*
G37*
X176939815Y-56998777D02*
X177209815Y-57538777D01*
X177449815Y-58118777D01*
X177589815Y-58508777D01*
X177699815Y-58888777D01*
X177839815Y-59498777D01*
X177919815Y-59958777D01*
X177989815Y-60668777D01*
X178009815Y-61048777D01*
X172019815Y-61058777D01*
X171989815Y-60798777D01*
X171939815Y-60538777D01*
X171849815Y-60248777D01*
X171759815Y-60018777D01*
X171629815Y-59758777D01*
X176809815Y-56768777D01*
X176939815Y-56998777D01*
G36*
X176939815Y-56998777D02*
G01*
X177209815Y-57538777D01*
X177449815Y-58118777D01*
X177589815Y-58508777D01*
X177699815Y-58888777D01*
X177839815Y-59498777D01*
X177919815Y-59958777D01*
X177989815Y-60668777D01*
X178009815Y-61048777D01*
X172019815Y-61058777D01*
X171989815Y-60798777D01*
X171939815Y-60538777D01*
X171849815Y-60248777D01*
X171759815Y-60018777D01*
X171629815Y-59758777D01*
X176809815Y-56768777D01*
X176939815Y-56998777D01*
G37*
X176939815Y-77998777D02*
X177209815Y-78538777D01*
X177449815Y-79118777D01*
X177589815Y-79508777D01*
X177699815Y-79888777D01*
X177839815Y-80498777D01*
X177919815Y-80958777D01*
X177989815Y-81668777D01*
X178009815Y-82048777D01*
X172019815Y-82058777D01*
X171989815Y-81798777D01*
X171939815Y-81538777D01*
X171849815Y-81248777D01*
X171759815Y-81018777D01*
X171629815Y-80758777D01*
X176809815Y-77768777D01*
X176939815Y-77998777D01*
G36*
X176939815Y-77998777D02*
G01*
X177209815Y-78538777D01*
X177449815Y-79118777D01*
X177589815Y-79508777D01*
X177699815Y-79888777D01*
X177839815Y-80498777D01*
X177919815Y-80958777D01*
X177989815Y-81668777D01*
X178009815Y-82048777D01*
X172019815Y-82058777D01*
X171989815Y-81798777D01*
X171939815Y-81538777D01*
X171849815Y-81248777D01*
X171759815Y-81018777D01*
X171629815Y-80758777D01*
X176809815Y-77768777D01*
X176939815Y-77998777D01*
G37*
X176939815Y-98998777D02*
X177209815Y-99538777D01*
X177449815Y-100118777D01*
X177589815Y-100508777D01*
X177699815Y-100888777D01*
X177839815Y-101498777D01*
X177919815Y-101958777D01*
X177989815Y-102668777D01*
X178009815Y-103048777D01*
X172019815Y-103058777D01*
X171989815Y-102798777D01*
X171939815Y-102538777D01*
X171849815Y-102248777D01*
X171759815Y-102018777D01*
X171629815Y-101758777D01*
X176809815Y-98768777D01*
X176939815Y-98998777D01*
G36*
X176939815Y-98998777D02*
G01*
X177209815Y-99538777D01*
X177449815Y-100118777D01*
X177589815Y-100508777D01*
X177699815Y-100888777D01*
X177839815Y-101498777D01*
X177919815Y-101958777D01*
X177989815Y-102668777D01*
X178009815Y-103048777D01*
X172019815Y-103058777D01*
X171989815Y-102798777D01*
X171939815Y-102538777D01*
X171849815Y-102248777D01*
X171759815Y-102018777D01*
X171629815Y-101758777D01*
X176809815Y-98768777D01*
X176939815Y-98998777D01*
G37*
X176939815Y-119998777D02*
X177209815Y-120538777D01*
X177449815Y-121118777D01*
X177589815Y-121508777D01*
X177699815Y-121888777D01*
X177839815Y-122498777D01*
X177919815Y-122958777D01*
X177989815Y-123668777D01*
X178009815Y-124048777D01*
X172019815Y-124058777D01*
X171989815Y-123798777D01*
X171939815Y-123538777D01*
X171849815Y-123248777D01*
X171759815Y-123018777D01*
X171629815Y-122758777D01*
X176809815Y-119768777D01*
X176939815Y-119998777D01*
G36*
X176939815Y-119998777D02*
G01*
X177209815Y-120538777D01*
X177449815Y-121118777D01*
X177589815Y-121508777D01*
X177699815Y-121888777D01*
X177839815Y-122498777D01*
X177919815Y-122958777D01*
X177989815Y-123668777D01*
X178009815Y-124048777D01*
X172019815Y-124058777D01*
X171989815Y-123798777D01*
X171939815Y-123538777D01*
X171849815Y-123248777D01*
X171759815Y-123018777D01*
X171629815Y-122758777D01*
X176809815Y-119768777D01*
X176939815Y-119998777D01*
G37*
X103693192Y-63164762D02*
X103873192Y-63364762D01*
X104023192Y-63514762D01*
X104193192Y-63654762D01*
X104353192Y-63764762D01*
X104513192Y-63864762D01*
X101523192Y-69054762D01*
X101113192Y-68804762D01*
X100743192Y-68544762D01*
X100413192Y-68294762D01*
X100163192Y-68084762D01*
X99773192Y-67734762D01*
X99423192Y-67374762D01*
X99123192Y-67034762D01*
X98813192Y-66644762D01*
X98623192Y-66374762D01*
X98483192Y-66174762D01*
X98343192Y-65934762D01*
X103523192Y-62944762D01*
X103693192Y-63164762D01*
G36*
X103693192Y-63164762D02*
G01*
X103873192Y-63364762D01*
X104023192Y-63514762D01*
X104193192Y-63654762D01*
X104353192Y-63764762D01*
X104513192Y-63864762D01*
X101523192Y-69054762D01*
X101113192Y-68804762D01*
X100743192Y-68544762D01*
X100413192Y-68294762D01*
X100163192Y-68084762D01*
X99773192Y-67734762D01*
X99423192Y-67374762D01*
X99123192Y-67034762D01*
X98813192Y-66644762D01*
X98623192Y-66374762D01*
X98483192Y-66174762D01*
X98343192Y-65934762D01*
X103523192Y-62944762D01*
X103693192Y-63164762D01*
G37*
X103693192Y-84164762D02*
X103873192Y-84364762D01*
X104023192Y-84514762D01*
X104193192Y-84654762D01*
X104353192Y-84764762D01*
X104513192Y-84864762D01*
X101523192Y-90054762D01*
X101113192Y-89804762D01*
X100743192Y-89544762D01*
X100413192Y-89294762D01*
X100163192Y-89084762D01*
X99773192Y-88734762D01*
X99423192Y-88374762D01*
X99123192Y-88034762D01*
X98813192Y-87644762D01*
X98623192Y-87374762D01*
X98483192Y-87174762D01*
X98343192Y-86934762D01*
X103523192Y-83944762D01*
X103693192Y-84164762D01*
G36*
X103693192Y-84164762D02*
G01*
X103873192Y-84364762D01*
X104023192Y-84514762D01*
X104193192Y-84654762D01*
X104353192Y-84764762D01*
X104513192Y-84864762D01*
X101523192Y-90054762D01*
X101113192Y-89804762D01*
X100743192Y-89544762D01*
X100413192Y-89294762D01*
X100163192Y-89084762D01*
X99773192Y-88734762D01*
X99423192Y-88374762D01*
X99123192Y-88034762D01*
X98813192Y-87644762D01*
X98623192Y-87374762D01*
X98483192Y-87174762D01*
X98343192Y-86934762D01*
X103523192Y-83944762D01*
X103693192Y-84164762D01*
G37*
X103693192Y-105164762D02*
X103873192Y-105364762D01*
X104023192Y-105514762D01*
X104193192Y-105654762D01*
X104353192Y-105764762D01*
X104513192Y-105864762D01*
X101523192Y-111054762D01*
X101113192Y-110804762D01*
X100743192Y-110544762D01*
X100413192Y-110294762D01*
X100163192Y-110084762D01*
X99773192Y-109734762D01*
X99423192Y-109374762D01*
X99123192Y-109034762D01*
X98813192Y-108644762D01*
X98623192Y-108374762D01*
X98483192Y-108174762D01*
X98343192Y-107934762D01*
X103523192Y-104944762D01*
X103693192Y-105164762D01*
G36*
X103693192Y-105164762D02*
G01*
X103873192Y-105364762D01*
X104023192Y-105514762D01*
X104193192Y-105654762D01*
X104353192Y-105764762D01*
X104513192Y-105864762D01*
X101523192Y-111054762D01*
X101113192Y-110804762D01*
X100743192Y-110544762D01*
X100413192Y-110294762D01*
X100163192Y-110084762D01*
X99773192Y-109734762D01*
X99423192Y-109374762D01*
X99123192Y-109034762D01*
X98813192Y-108644762D01*
X98623192Y-108374762D01*
X98483192Y-108174762D01*
X98343192Y-107934762D01*
X103523192Y-104944762D01*
X103693192Y-105164762D01*
G37*
X103693192Y-126164762D02*
X103873192Y-126364762D01*
X104023192Y-126514762D01*
X104193192Y-126654762D01*
X104353192Y-126764762D01*
X104513192Y-126864762D01*
X101523192Y-132054762D01*
X101113192Y-131804762D01*
X100743192Y-131544762D01*
X100413192Y-131294762D01*
X100163192Y-131084762D01*
X99773192Y-130734762D01*
X99423192Y-130374762D01*
X99123192Y-130034762D01*
X98813192Y-129644762D01*
X98623192Y-129374762D01*
X98483192Y-129174762D01*
X98343192Y-128934762D01*
X103523192Y-125944762D01*
X103693192Y-126164762D01*
G36*
X103693192Y-126164762D02*
G01*
X103873192Y-126364762D01*
X104023192Y-126514762D01*
X104193192Y-126654762D01*
X104353192Y-126764762D01*
X104513192Y-126864762D01*
X101523192Y-132054762D01*
X101113192Y-131804762D01*
X100743192Y-131544762D01*
X100413192Y-131294762D01*
X100163192Y-131084762D01*
X99773192Y-130734762D01*
X99423192Y-130374762D01*
X99123192Y-130034762D01*
X98813192Y-129644762D01*
X98623192Y-129374762D01*
X98483192Y-129174762D01*
X98343192Y-128934762D01*
X103523192Y-125944762D01*
X103693192Y-126164762D01*
G37*
X104323830Y-58742154D02*
X104103830Y-58912154D01*
X103903830Y-59092154D01*
X103753830Y-59242154D01*
X103613830Y-59412154D01*
X103503830Y-59572154D01*
X103403830Y-59732154D01*
X98213830Y-56742154D01*
X98463830Y-56332154D01*
X98723830Y-55962154D01*
X98973830Y-55632154D01*
X99183830Y-55382154D01*
X99533830Y-54992154D01*
X99893830Y-54642154D01*
X100233830Y-54342154D01*
X100623830Y-54032154D01*
X100893830Y-53842154D01*
X101093830Y-53702154D01*
X101333830Y-53562154D01*
X104323830Y-58742154D01*
G36*
X104323830Y-58742154D02*
G01*
X104103830Y-58912154D01*
X103903830Y-59092154D01*
X103753830Y-59242154D01*
X103613830Y-59412154D01*
X103503830Y-59572154D01*
X103403830Y-59732154D01*
X98213830Y-56742154D01*
X98463830Y-56332154D01*
X98723830Y-55962154D01*
X98973830Y-55632154D01*
X99183830Y-55382154D01*
X99533830Y-54992154D01*
X99893830Y-54642154D01*
X100233830Y-54342154D01*
X100623830Y-54032154D01*
X100893830Y-53842154D01*
X101093830Y-53702154D01*
X101333830Y-53562154D01*
X104323830Y-58742154D01*
G37*
X104323830Y-79742154D02*
X104103830Y-79912154D01*
X103903830Y-80092154D01*
X103753830Y-80242154D01*
X103613830Y-80412154D01*
X103503830Y-80572154D01*
X103403830Y-80732154D01*
X98213830Y-77742154D01*
X98463830Y-77332154D01*
X98723830Y-76962154D01*
X98973830Y-76632154D01*
X99183830Y-76382154D01*
X99533830Y-75992154D01*
X99893830Y-75642154D01*
X100233830Y-75342154D01*
X100623830Y-75032154D01*
X100893830Y-74842154D01*
X101093830Y-74702154D01*
X101333830Y-74562154D01*
X104323830Y-79742154D01*
G36*
X104323830Y-79742154D02*
G01*
X104103830Y-79912154D01*
X103903830Y-80092154D01*
X103753830Y-80242154D01*
X103613830Y-80412154D01*
X103503830Y-80572154D01*
X103403830Y-80732154D01*
X98213830Y-77742154D01*
X98463830Y-77332154D01*
X98723830Y-76962154D01*
X98973830Y-76632154D01*
X99183830Y-76382154D01*
X99533830Y-75992154D01*
X99893830Y-75642154D01*
X100233830Y-75342154D01*
X100623830Y-75032154D01*
X100893830Y-74842154D01*
X101093830Y-74702154D01*
X101333830Y-74562154D01*
X104323830Y-79742154D01*
G37*
X104323830Y-100742154D02*
X104103830Y-100912154D01*
X103903830Y-101092154D01*
X103753830Y-101242154D01*
X103613830Y-101412154D01*
X103503830Y-101572154D01*
X103403830Y-101732154D01*
X98213830Y-98742154D01*
X98463830Y-98332154D01*
X98723830Y-97962154D01*
X98973830Y-97632154D01*
X99183830Y-97382154D01*
X99533830Y-96992154D01*
X99893830Y-96642154D01*
X100233830Y-96342154D01*
X100623830Y-96032154D01*
X100893830Y-95842154D01*
X101093830Y-95702154D01*
X101333830Y-95562154D01*
X104323830Y-100742154D01*
G36*
X104323830Y-100742154D02*
G01*
X104103830Y-100912154D01*
X103903830Y-101092154D01*
X103753830Y-101242154D01*
X103613830Y-101412154D01*
X103503830Y-101572154D01*
X103403830Y-101732154D01*
X98213830Y-98742154D01*
X98463830Y-98332154D01*
X98723830Y-97962154D01*
X98973830Y-97632154D01*
X99183830Y-97382154D01*
X99533830Y-96992154D01*
X99893830Y-96642154D01*
X100233830Y-96342154D01*
X100623830Y-96032154D01*
X100893830Y-95842154D01*
X101093830Y-95702154D01*
X101333830Y-95562154D01*
X104323830Y-100742154D01*
G37*
X104323830Y-121742154D02*
X104103830Y-121912154D01*
X103903830Y-122092154D01*
X103753830Y-122242154D01*
X103613830Y-122412154D01*
X103503830Y-122572154D01*
X103403830Y-122732154D01*
X98213830Y-119742154D01*
X98463830Y-119332154D01*
X98723830Y-118962154D01*
X98973830Y-118632154D01*
X99183830Y-118382154D01*
X99533830Y-117992154D01*
X99893830Y-117642154D01*
X100233830Y-117342154D01*
X100623830Y-117032154D01*
X100893830Y-116842154D01*
X101093830Y-116702154D01*
X101333830Y-116562154D01*
X104323830Y-121742154D01*
G36*
X104323830Y-121742154D02*
G01*
X104103830Y-121912154D01*
X103903830Y-122092154D01*
X103753830Y-122242154D01*
X103613830Y-122412154D01*
X103503830Y-122572154D01*
X103403830Y-122732154D01*
X98213830Y-119742154D01*
X98463830Y-119332154D01*
X98723830Y-118962154D01*
X98973830Y-118632154D01*
X99183830Y-118382154D01*
X99533830Y-117992154D01*
X99893830Y-117642154D01*
X100233830Y-117342154D01*
X100623830Y-117032154D01*
X100893830Y-116842154D01*
X101093830Y-116702154D01*
X101333830Y-116562154D01*
X104323830Y-121742154D01*
G37*
X113795800Y-65775400D02*
X113545800Y-66185400D01*
X113285800Y-66555400D01*
X113035800Y-66885400D01*
X112825800Y-67135400D01*
X112475800Y-67525400D01*
X112115800Y-67875400D01*
X111775800Y-68175400D01*
X111385800Y-68485400D01*
X111115800Y-68675400D01*
X110915800Y-68815400D01*
X110675800Y-68955400D01*
X107685800Y-63775400D01*
X107905800Y-63605400D01*
X108105800Y-63425400D01*
X108255800Y-63275400D01*
X108395800Y-63105400D01*
X108505800Y-62945400D01*
X108605800Y-62785400D01*
X113795800Y-65775400D01*
G36*
X113795800Y-65775400D02*
G01*
X113545800Y-66185400D01*
X113285800Y-66555400D01*
X113035800Y-66885400D01*
X112825800Y-67135400D01*
X112475800Y-67525400D01*
X112115800Y-67875400D01*
X111775800Y-68175400D01*
X111385800Y-68485400D01*
X111115800Y-68675400D01*
X110915800Y-68815400D01*
X110675800Y-68955400D01*
X107685800Y-63775400D01*
X107905800Y-63605400D01*
X108105800Y-63425400D01*
X108255800Y-63275400D01*
X108395800Y-63105400D01*
X108505800Y-62945400D01*
X108605800Y-62785400D01*
X113795800Y-65775400D01*
G37*
X113795800Y-86775400D02*
X113545800Y-87185400D01*
X113285800Y-87555400D01*
X113035800Y-87885400D01*
X112825800Y-88135400D01*
X112475800Y-88525400D01*
X112115800Y-88875400D01*
X111775800Y-89175400D01*
X111385800Y-89485400D01*
X111115800Y-89675400D01*
X110915800Y-89815400D01*
X110675800Y-89955400D01*
X107685800Y-84775400D01*
X107905800Y-84605400D01*
X108105800Y-84425400D01*
X108255800Y-84275400D01*
X108395800Y-84105400D01*
X108505800Y-83945400D01*
X108605800Y-83785400D01*
X113795800Y-86775400D01*
G36*
X113795800Y-86775400D02*
G01*
X113545800Y-87185400D01*
X113285800Y-87555400D01*
X113035800Y-87885400D01*
X112825800Y-88135400D01*
X112475800Y-88525400D01*
X112115800Y-88875400D01*
X111775800Y-89175400D01*
X111385800Y-89485400D01*
X111115800Y-89675400D01*
X110915800Y-89815400D01*
X110675800Y-89955400D01*
X107685800Y-84775400D01*
X107905800Y-84605400D01*
X108105800Y-84425400D01*
X108255800Y-84275400D01*
X108395800Y-84105400D01*
X108505800Y-83945400D01*
X108605800Y-83785400D01*
X113795800Y-86775400D01*
G37*
X113795800Y-107775400D02*
X113545800Y-108185400D01*
X113285800Y-108555400D01*
X113035800Y-108885400D01*
X112825800Y-109135400D01*
X112475800Y-109525400D01*
X112115800Y-109875400D01*
X111775800Y-110175400D01*
X111385800Y-110485400D01*
X111115800Y-110675400D01*
X110915800Y-110815400D01*
X110675800Y-110955400D01*
X107685800Y-105775400D01*
X107905800Y-105605400D01*
X108105800Y-105425400D01*
X108255800Y-105275400D01*
X108395800Y-105105400D01*
X108505800Y-104945400D01*
X108605800Y-104785400D01*
X113795800Y-107775400D01*
G36*
X113795800Y-107775400D02*
G01*
X113545800Y-108185400D01*
X113285800Y-108555400D01*
X113035800Y-108885400D01*
X112825800Y-109135400D01*
X112475800Y-109525400D01*
X112115800Y-109875400D01*
X111775800Y-110175400D01*
X111385800Y-110485400D01*
X111115800Y-110675400D01*
X110915800Y-110815400D01*
X110675800Y-110955400D01*
X107685800Y-105775400D01*
X107905800Y-105605400D01*
X108105800Y-105425400D01*
X108255800Y-105275400D01*
X108395800Y-105105400D01*
X108505800Y-104945400D01*
X108605800Y-104785400D01*
X113795800Y-107775400D01*
G37*
X113795800Y-128775400D02*
X113545800Y-129185400D01*
X113285800Y-129555400D01*
X113035800Y-129885400D01*
X112825800Y-130135400D01*
X112475800Y-130525400D01*
X112115800Y-130875400D01*
X111775800Y-131175400D01*
X111385800Y-131485400D01*
X111115800Y-131675400D01*
X110915800Y-131815400D01*
X110675800Y-131955400D01*
X107685800Y-126775400D01*
X107905800Y-126605400D01*
X108105800Y-126425400D01*
X108255800Y-126275400D01*
X108395800Y-126105400D01*
X108505800Y-125945400D01*
X108605800Y-125785400D01*
X113795800Y-128775400D01*
G36*
X113795800Y-128775400D02*
G01*
X113545800Y-129185400D01*
X113285800Y-129555400D01*
X113035800Y-129885400D01*
X112825800Y-130135400D01*
X112475800Y-130525400D01*
X112115800Y-130875400D01*
X111775800Y-131175400D01*
X111385800Y-131485400D01*
X111115800Y-131675400D01*
X110915800Y-131815400D01*
X110675800Y-131955400D01*
X107685800Y-126775400D01*
X107905800Y-126605400D01*
X108105800Y-126425400D01*
X108255800Y-126275400D01*
X108395800Y-126105400D01*
X108505800Y-125945400D01*
X108605800Y-125785400D01*
X113795800Y-128775400D01*
G37*
X110929815Y-53718777D02*
X111299815Y-53978777D01*
X111629815Y-54228777D01*
X111879815Y-54438777D01*
X112269815Y-54788777D01*
X112619815Y-55148777D01*
X112919815Y-55488777D01*
X113229815Y-55878777D01*
X113419815Y-56148777D01*
X113559815Y-56348777D01*
X113699815Y-56588777D01*
X108519815Y-59578777D01*
X108349815Y-59358777D01*
X108169815Y-59158777D01*
X108019815Y-59008777D01*
X107849815Y-58868777D01*
X107689815Y-58758777D01*
X107529815Y-58658777D01*
X110519815Y-53468777D01*
X110929815Y-53718777D01*
G36*
X110929815Y-53718777D02*
G01*
X111299815Y-53978777D01*
X111629815Y-54228777D01*
X111879815Y-54438777D01*
X112269815Y-54788777D01*
X112619815Y-55148777D01*
X112919815Y-55488777D01*
X113229815Y-55878777D01*
X113419815Y-56148777D01*
X113559815Y-56348777D01*
X113699815Y-56588777D01*
X108519815Y-59578777D01*
X108349815Y-59358777D01*
X108169815Y-59158777D01*
X108019815Y-59008777D01*
X107849815Y-58868777D01*
X107689815Y-58758777D01*
X107529815Y-58658777D01*
X110519815Y-53468777D01*
X110929815Y-53718777D01*
G37*
X110929815Y-74718777D02*
X111299815Y-74978777D01*
X111629815Y-75228777D01*
X111879815Y-75438777D01*
X112269815Y-75788777D01*
X112619815Y-76148777D01*
X112919815Y-76488777D01*
X113229815Y-76878777D01*
X113419815Y-77148777D01*
X113559815Y-77348777D01*
X113699815Y-77588777D01*
X108519815Y-80578777D01*
X108349815Y-80358777D01*
X108169815Y-80158777D01*
X108019815Y-80008777D01*
X107849815Y-79868777D01*
X107689815Y-79758777D01*
X107529815Y-79658777D01*
X110519815Y-74468777D01*
X110929815Y-74718777D01*
G36*
X110929815Y-74718777D02*
G01*
X111299815Y-74978777D01*
X111629815Y-75228777D01*
X111879815Y-75438777D01*
X112269815Y-75788777D01*
X112619815Y-76148777D01*
X112919815Y-76488777D01*
X113229815Y-76878777D01*
X113419815Y-77148777D01*
X113559815Y-77348777D01*
X113699815Y-77588777D01*
X108519815Y-80578777D01*
X108349815Y-80358777D01*
X108169815Y-80158777D01*
X108019815Y-80008777D01*
X107849815Y-79868777D01*
X107689815Y-79758777D01*
X107529815Y-79658777D01*
X110519815Y-74468777D01*
X110929815Y-74718777D01*
G37*
X110929815Y-95718777D02*
X111299815Y-95978777D01*
X111629815Y-96228777D01*
X111879815Y-96438777D01*
X112269815Y-96788777D01*
X112619815Y-97148777D01*
X112919815Y-97488777D01*
X113229815Y-97878777D01*
X113419815Y-98148777D01*
X113559815Y-98348777D01*
X113699815Y-98588777D01*
X108519815Y-101578777D01*
X108349815Y-101358777D01*
X108169815Y-101158777D01*
X108019815Y-101008777D01*
X107849815Y-100868777D01*
X107689815Y-100758777D01*
X107529815Y-100658777D01*
X110519815Y-95468777D01*
X110929815Y-95718777D01*
G36*
X110929815Y-95718777D02*
G01*
X111299815Y-95978777D01*
X111629815Y-96228777D01*
X111879815Y-96438777D01*
X112269815Y-96788777D01*
X112619815Y-97148777D01*
X112919815Y-97488777D01*
X113229815Y-97878777D01*
X113419815Y-98148777D01*
X113559815Y-98348777D01*
X113699815Y-98588777D01*
X108519815Y-101578777D01*
X108349815Y-101358777D01*
X108169815Y-101158777D01*
X108019815Y-101008777D01*
X107849815Y-100868777D01*
X107689815Y-100758777D01*
X107529815Y-100658777D01*
X110519815Y-95468777D01*
X110929815Y-95718777D01*
G37*
X110929815Y-116718777D02*
X111299815Y-116978777D01*
X111629815Y-117228777D01*
X111879815Y-117438777D01*
X112269815Y-117788777D01*
X112619815Y-118148777D01*
X112919815Y-118488777D01*
X113229815Y-118878777D01*
X113419815Y-119148777D01*
X113559815Y-119348777D01*
X113699815Y-119588777D01*
X108519815Y-122578777D01*
X108349815Y-122358777D01*
X108169815Y-122158777D01*
X108019815Y-122008777D01*
X107849815Y-121868777D01*
X107689815Y-121758777D01*
X107529815Y-121658777D01*
X110519815Y-116468777D01*
X110929815Y-116718777D01*
G36*
X110929815Y-116718777D02*
G01*
X111299815Y-116978777D01*
X111629815Y-117228777D01*
X111879815Y-117438777D01*
X112269815Y-117788777D01*
X112619815Y-118148777D01*
X112919815Y-118488777D01*
X113229815Y-118878777D01*
X113419815Y-119148777D01*
X113559815Y-119348777D01*
X113699815Y-119588777D01*
X108519815Y-122578777D01*
X108349815Y-122358777D01*
X108169815Y-122158777D01*
X108019815Y-122008777D01*
X107849815Y-121868777D01*
X107689815Y-121758777D01*
X107529815Y-121658777D01*
X110519815Y-116468777D01*
X110929815Y-116718777D01*
G37*
X124693192Y-63164762D02*
X124873192Y-63364762D01*
X125023192Y-63514762D01*
X125193192Y-63654762D01*
X125353192Y-63764762D01*
X125513192Y-63864762D01*
X122523192Y-69054762D01*
X122113192Y-68804762D01*
X121743192Y-68544762D01*
X121413192Y-68294762D01*
X121163192Y-68084762D01*
X120773192Y-67734762D01*
X120423192Y-67374762D01*
X120123192Y-67034762D01*
X119813192Y-66644762D01*
X119623192Y-66374762D01*
X119483192Y-66174762D01*
X119343192Y-65934762D01*
X124523192Y-62944762D01*
X124693192Y-63164762D01*
G36*
X124693192Y-63164762D02*
G01*
X124873192Y-63364762D01*
X125023192Y-63514762D01*
X125193192Y-63654762D01*
X125353192Y-63764762D01*
X125513192Y-63864762D01*
X122523192Y-69054762D01*
X122113192Y-68804762D01*
X121743192Y-68544762D01*
X121413192Y-68294762D01*
X121163192Y-68084762D01*
X120773192Y-67734762D01*
X120423192Y-67374762D01*
X120123192Y-67034762D01*
X119813192Y-66644762D01*
X119623192Y-66374762D01*
X119483192Y-66174762D01*
X119343192Y-65934762D01*
X124523192Y-62944762D01*
X124693192Y-63164762D01*
G37*
X124693192Y-84164762D02*
X124873192Y-84364762D01*
X125023192Y-84514762D01*
X125193192Y-84654762D01*
X125353192Y-84764762D01*
X125513192Y-84864762D01*
X122523192Y-90054762D01*
X122113192Y-89804762D01*
X121743192Y-89544762D01*
X121413192Y-89294762D01*
X121163192Y-89084762D01*
X120773192Y-88734762D01*
X120423192Y-88374762D01*
X120123192Y-88034762D01*
X119813192Y-87644762D01*
X119623192Y-87374762D01*
X119483192Y-87174762D01*
X119343192Y-86934762D01*
X124523192Y-83944762D01*
X124693192Y-84164762D01*
G36*
X124693192Y-84164762D02*
G01*
X124873192Y-84364762D01*
X125023192Y-84514762D01*
X125193192Y-84654762D01*
X125353192Y-84764762D01*
X125513192Y-84864762D01*
X122523192Y-90054762D01*
X122113192Y-89804762D01*
X121743192Y-89544762D01*
X121413192Y-89294762D01*
X121163192Y-89084762D01*
X120773192Y-88734762D01*
X120423192Y-88374762D01*
X120123192Y-88034762D01*
X119813192Y-87644762D01*
X119623192Y-87374762D01*
X119483192Y-87174762D01*
X119343192Y-86934762D01*
X124523192Y-83944762D01*
X124693192Y-84164762D01*
G37*
X124693192Y-105164762D02*
X124873192Y-105364762D01*
X125023192Y-105514762D01*
X125193192Y-105654762D01*
X125353192Y-105764762D01*
X125513192Y-105864762D01*
X122523192Y-111054762D01*
X122113192Y-110804762D01*
X121743192Y-110544762D01*
X121413192Y-110294762D01*
X121163192Y-110084762D01*
X120773192Y-109734762D01*
X120423192Y-109374762D01*
X120123192Y-109034762D01*
X119813192Y-108644762D01*
X119623192Y-108374762D01*
X119483192Y-108174762D01*
X119343192Y-107934762D01*
X124523192Y-104944762D01*
X124693192Y-105164762D01*
G36*
X124693192Y-105164762D02*
G01*
X124873192Y-105364762D01*
X125023192Y-105514762D01*
X125193192Y-105654762D01*
X125353192Y-105764762D01*
X125513192Y-105864762D01*
X122523192Y-111054762D01*
X122113192Y-110804762D01*
X121743192Y-110544762D01*
X121413192Y-110294762D01*
X121163192Y-110084762D01*
X120773192Y-109734762D01*
X120423192Y-109374762D01*
X120123192Y-109034762D01*
X119813192Y-108644762D01*
X119623192Y-108374762D01*
X119483192Y-108174762D01*
X119343192Y-107934762D01*
X124523192Y-104944762D01*
X124693192Y-105164762D01*
G37*
X124693192Y-126164762D02*
X124873192Y-126364762D01*
X125023192Y-126514762D01*
X125193192Y-126654762D01*
X125353192Y-126764762D01*
X125513192Y-126864762D01*
X122523192Y-132054762D01*
X122113192Y-131804762D01*
X121743192Y-131544762D01*
X121413192Y-131294762D01*
X121163192Y-131084762D01*
X120773192Y-130734762D01*
X120423192Y-130374762D01*
X120123192Y-130034762D01*
X119813192Y-129644762D01*
X119623192Y-129374762D01*
X119483192Y-129174762D01*
X119343192Y-128934762D01*
X124523192Y-125944762D01*
X124693192Y-126164762D01*
G36*
X124693192Y-126164762D02*
G01*
X124873192Y-126364762D01*
X125023192Y-126514762D01*
X125193192Y-126654762D01*
X125353192Y-126764762D01*
X125513192Y-126864762D01*
X122523192Y-132054762D01*
X122113192Y-131804762D01*
X121743192Y-131544762D01*
X121413192Y-131294762D01*
X121163192Y-131084762D01*
X120773192Y-130734762D01*
X120423192Y-130374762D01*
X120123192Y-130034762D01*
X119813192Y-129644762D01*
X119623192Y-129374762D01*
X119483192Y-129174762D01*
X119343192Y-128934762D01*
X124523192Y-125944762D01*
X124693192Y-126164762D01*
G37*
X125323830Y-58742154D02*
X125103830Y-58912154D01*
X124903830Y-59092154D01*
X124753830Y-59242154D01*
X124613830Y-59412154D01*
X124503830Y-59572154D01*
X124403830Y-59732154D01*
X119213830Y-56742154D01*
X119463830Y-56332154D01*
X119723830Y-55962154D01*
X119973830Y-55632154D01*
X120183830Y-55382154D01*
X120533830Y-54992154D01*
X120893830Y-54642154D01*
X121233830Y-54342154D01*
X121623830Y-54032154D01*
X121893830Y-53842154D01*
X122093830Y-53702154D01*
X122333830Y-53562154D01*
X125323830Y-58742154D01*
G36*
X125323830Y-58742154D02*
G01*
X125103830Y-58912154D01*
X124903830Y-59092154D01*
X124753830Y-59242154D01*
X124613830Y-59412154D01*
X124503830Y-59572154D01*
X124403830Y-59732154D01*
X119213830Y-56742154D01*
X119463830Y-56332154D01*
X119723830Y-55962154D01*
X119973830Y-55632154D01*
X120183830Y-55382154D01*
X120533830Y-54992154D01*
X120893830Y-54642154D01*
X121233830Y-54342154D01*
X121623830Y-54032154D01*
X121893830Y-53842154D01*
X122093830Y-53702154D01*
X122333830Y-53562154D01*
X125323830Y-58742154D01*
G37*
X125323830Y-79742154D02*
X125103830Y-79912154D01*
X124903830Y-80092154D01*
X124753830Y-80242154D01*
X124613830Y-80412154D01*
X124503830Y-80572154D01*
X124403830Y-80732154D01*
X119213830Y-77742154D01*
X119463830Y-77332154D01*
X119723830Y-76962154D01*
X119973830Y-76632154D01*
X120183830Y-76382154D01*
X120533830Y-75992154D01*
X120893830Y-75642154D01*
X121233830Y-75342154D01*
X121623830Y-75032154D01*
X121893830Y-74842154D01*
X122093830Y-74702154D01*
X122333830Y-74562154D01*
X125323830Y-79742154D01*
G36*
X125323830Y-79742154D02*
G01*
X125103830Y-79912154D01*
X124903830Y-80092154D01*
X124753830Y-80242154D01*
X124613830Y-80412154D01*
X124503830Y-80572154D01*
X124403830Y-80732154D01*
X119213830Y-77742154D01*
X119463830Y-77332154D01*
X119723830Y-76962154D01*
X119973830Y-76632154D01*
X120183830Y-76382154D01*
X120533830Y-75992154D01*
X120893830Y-75642154D01*
X121233830Y-75342154D01*
X121623830Y-75032154D01*
X121893830Y-74842154D01*
X122093830Y-74702154D01*
X122333830Y-74562154D01*
X125323830Y-79742154D01*
G37*
X125323830Y-100742154D02*
X125103830Y-100912154D01*
X124903830Y-101092154D01*
X124753830Y-101242154D01*
X124613830Y-101412154D01*
X124503830Y-101572154D01*
X124403830Y-101732154D01*
X119213830Y-98742154D01*
X119463830Y-98332154D01*
X119723830Y-97962154D01*
X119973830Y-97632154D01*
X120183830Y-97382154D01*
X120533830Y-96992154D01*
X120893830Y-96642154D01*
X121233830Y-96342154D01*
X121623830Y-96032154D01*
X121893830Y-95842154D01*
X122093830Y-95702154D01*
X122333830Y-95562154D01*
X125323830Y-100742154D01*
G36*
X125323830Y-100742154D02*
G01*
X125103830Y-100912154D01*
X124903830Y-101092154D01*
X124753830Y-101242154D01*
X124613830Y-101412154D01*
X124503830Y-101572154D01*
X124403830Y-101732154D01*
X119213830Y-98742154D01*
X119463830Y-98332154D01*
X119723830Y-97962154D01*
X119973830Y-97632154D01*
X120183830Y-97382154D01*
X120533830Y-96992154D01*
X120893830Y-96642154D01*
X121233830Y-96342154D01*
X121623830Y-96032154D01*
X121893830Y-95842154D01*
X122093830Y-95702154D01*
X122333830Y-95562154D01*
X125323830Y-100742154D01*
G37*
X125323830Y-121742154D02*
X125103830Y-121912154D01*
X124903830Y-122092154D01*
X124753830Y-122242154D01*
X124613830Y-122412154D01*
X124503830Y-122572154D01*
X124403830Y-122732154D01*
X119213830Y-119742154D01*
X119463830Y-119332154D01*
X119723830Y-118962154D01*
X119973830Y-118632154D01*
X120183830Y-118382154D01*
X120533830Y-117992154D01*
X120893830Y-117642154D01*
X121233830Y-117342154D01*
X121623830Y-117032154D01*
X121893830Y-116842154D01*
X122093830Y-116702154D01*
X122333830Y-116562154D01*
X125323830Y-121742154D01*
G36*
X125323830Y-121742154D02*
G01*
X125103830Y-121912154D01*
X124903830Y-122092154D01*
X124753830Y-122242154D01*
X124613830Y-122412154D01*
X124503830Y-122572154D01*
X124403830Y-122732154D01*
X119213830Y-119742154D01*
X119463830Y-119332154D01*
X119723830Y-118962154D01*
X119973830Y-118632154D01*
X120183830Y-118382154D01*
X120533830Y-117992154D01*
X120893830Y-117642154D01*
X121233830Y-117342154D01*
X121623830Y-117032154D01*
X121893830Y-116842154D01*
X122093830Y-116702154D01*
X122333830Y-116562154D01*
X125323830Y-121742154D01*
G37*
X134795800Y-65775400D02*
X134545800Y-66185400D01*
X134285800Y-66555400D01*
X134035800Y-66885400D01*
X133825800Y-67135400D01*
X133475800Y-67525400D01*
X133115800Y-67875400D01*
X132775800Y-68175400D01*
X132385800Y-68485400D01*
X132115800Y-68675400D01*
X131915800Y-68815400D01*
X131675800Y-68955400D01*
X128685800Y-63775400D01*
X128905800Y-63605400D01*
X129105800Y-63425400D01*
X129255800Y-63275400D01*
X129395800Y-63105400D01*
X129505800Y-62945400D01*
X129605800Y-62785400D01*
X134795800Y-65775400D01*
G36*
X134795800Y-65775400D02*
G01*
X134545800Y-66185400D01*
X134285800Y-66555400D01*
X134035800Y-66885400D01*
X133825800Y-67135400D01*
X133475800Y-67525400D01*
X133115800Y-67875400D01*
X132775800Y-68175400D01*
X132385800Y-68485400D01*
X132115800Y-68675400D01*
X131915800Y-68815400D01*
X131675800Y-68955400D01*
X128685800Y-63775400D01*
X128905800Y-63605400D01*
X129105800Y-63425400D01*
X129255800Y-63275400D01*
X129395800Y-63105400D01*
X129505800Y-62945400D01*
X129605800Y-62785400D01*
X134795800Y-65775400D01*
G37*
X134795800Y-86775400D02*
X134545800Y-87185400D01*
X134285800Y-87555400D01*
X134035800Y-87885400D01*
X133825800Y-88135400D01*
X133475800Y-88525400D01*
X133115800Y-88875400D01*
X132775800Y-89175400D01*
X132385800Y-89485400D01*
X132115800Y-89675400D01*
X131915800Y-89815400D01*
X131675800Y-89955400D01*
X128685800Y-84775400D01*
X128905800Y-84605400D01*
X129105800Y-84425400D01*
X129255800Y-84275400D01*
X129395800Y-84105400D01*
X129505800Y-83945400D01*
X129605800Y-83785400D01*
X134795800Y-86775400D01*
G36*
X134795800Y-86775400D02*
G01*
X134545800Y-87185400D01*
X134285800Y-87555400D01*
X134035800Y-87885400D01*
X133825800Y-88135400D01*
X133475800Y-88525400D01*
X133115800Y-88875400D01*
X132775800Y-89175400D01*
X132385800Y-89485400D01*
X132115800Y-89675400D01*
X131915800Y-89815400D01*
X131675800Y-89955400D01*
X128685800Y-84775400D01*
X128905800Y-84605400D01*
X129105800Y-84425400D01*
X129255800Y-84275400D01*
X129395800Y-84105400D01*
X129505800Y-83945400D01*
X129605800Y-83785400D01*
X134795800Y-86775400D01*
G37*
X134795800Y-107775400D02*
X134545800Y-108185400D01*
X134285800Y-108555400D01*
X134035800Y-108885400D01*
X133825800Y-109135400D01*
X133475800Y-109525400D01*
X133115800Y-109875400D01*
X132775800Y-110175400D01*
X132385800Y-110485400D01*
X132115800Y-110675400D01*
X131915800Y-110815400D01*
X131675800Y-110955400D01*
X128685800Y-105775400D01*
X128905800Y-105605400D01*
X129105800Y-105425400D01*
X129255800Y-105275400D01*
X129395800Y-105105400D01*
X129505800Y-104945400D01*
X129605800Y-104785400D01*
X134795800Y-107775400D01*
G36*
X134795800Y-107775400D02*
G01*
X134545800Y-108185400D01*
X134285800Y-108555400D01*
X134035800Y-108885400D01*
X133825800Y-109135400D01*
X133475800Y-109525400D01*
X133115800Y-109875400D01*
X132775800Y-110175400D01*
X132385800Y-110485400D01*
X132115800Y-110675400D01*
X131915800Y-110815400D01*
X131675800Y-110955400D01*
X128685800Y-105775400D01*
X128905800Y-105605400D01*
X129105800Y-105425400D01*
X129255800Y-105275400D01*
X129395800Y-105105400D01*
X129505800Y-104945400D01*
X129605800Y-104785400D01*
X134795800Y-107775400D01*
G37*
X134795800Y-128775400D02*
X134545800Y-129185400D01*
X134285800Y-129555400D01*
X134035800Y-129885400D01*
X133825800Y-130135400D01*
X133475800Y-130525400D01*
X133115800Y-130875400D01*
X132775800Y-131175400D01*
X132385800Y-131485400D01*
X132115800Y-131675400D01*
X131915800Y-131815400D01*
X131675800Y-131955400D01*
X128685800Y-126775400D01*
X128905800Y-126605400D01*
X129105800Y-126425400D01*
X129255800Y-126275400D01*
X129395800Y-126105400D01*
X129505800Y-125945400D01*
X129605800Y-125785400D01*
X134795800Y-128775400D01*
G36*
X134795800Y-128775400D02*
G01*
X134545800Y-129185400D01*
X134285800Y-129555400D01*
X134035800Y-129885400D01*
X133825800Y-130135400D01*
X133475800Y-130525400D01*
X133115800Y-130875400D01*
X132775800Y-131175400D01*
X132385800Y-131485400D01*
X132115800Y-131675400D01*
X131915800Y-131815400D01*
X131675800Y-131955400D01*
X128685800Y-126775400D01*
X128905800Y-126605400D01*
X129105800Y-126425400D01*
X129255800Y-126275400D01*
X129395800Y-126105400D01*
X129505800Y-125945400D01*
X129605800Y-125785400D01*
X134795800Y-128775400D01*
G37*
X131929815Y-53718777D02*
X132299815Y-53978777D01*
X132629815Y-54228777D01*
X132879815Y-54438777D01*
X133269815Y-54788777D01*
X133619815Y-55148777D01*
X133919815Y-55488777D01*
X134229815Y-55878777D01*
X134419815Y-56148777D01*
X134559815Y-56348777D01*
X134699815Y-56588777D01*
X129519815Y-59578777D01*
X129349815Y-59358777D01*
X129169815Y-59158777D01*
X129019815Y-59008777D01*
X128849815Y-58868777D01*
X128689815Y-58758777D01*
X128529815Y-58658777D01*
X131519815Y-53468777D01*
X131929815Y-53718777D01*
G36*
X131929815Y-53718777D02*
G01*
X132299815Y-53978777D01*
X132629815Y-54228777D01*
X132879815Y-54438777D01*
X133269815Y-54788777D01*
X133619815Y-55148777D01*
X133919815Y-55488777D01*
X134229815Y-55878777D01*
X134419815Y-56148777D01*
X134559815Y-56348777D01*
X134699815Y-56588777D01*
X129519815Y-59578777D01*
X129349815Y-59358777D01*
X129169815Y-59158777D01*
X129019815Y-59008777D01*
X128849815Y-58868777D01*
X128689815Y-58758777D01*
X128529815Y-58658777D01*
X131519815Y-53468777D01*
X131929815Y-53718777D01*
G37*
X131929815Y-74718777D02*
X132299815Y-74978777D01*
X132629815Y-75228777D01*
X132879815Y-75438777D01*
X133269815Y-75788777D01*
X133619815Y-76148777D01*
X133919815Y-76488777D01*
X134229815Y-76878777D01*
X134419815Y-77148777D01*
X134559815Y-77348777D01*
X134699815Y-77588777D01*
X129519815Y-80578777D01*
X129349815Y-80358777D01*
X129169815Y-80158777D01*
X129019815Y-80008777D01*
X128849815Y-79868777D01*
X128689815Y-79758777D01*
X128529815Y-79658777D01*
X131519815Y-74468777D01*
X131929815Y-74718777D01*
G36*
X131929815Y-74718777D02*
G01*
X132299815Y-74978777D01*
X132629815Y-75228777D01*
X132879815Y-75438777D01*
X133269815Y-75788777D01*
X133619815Y-76148777D01*
X133919815Y-76488777D01*
X134229815Y-76878777D01*
X134419815Y-77148777D01*
X134559815Y-77348777D01*
X134699815Y-77588777D01*
X129519815Y-80578777D01*
X129349815Y-80358777D01*
X129169815Y-80158777D01*
X129019815Y-80008777D01*
X128849815Y-79868777D01*
X128689815Y-79758777D01*
X128529815Y-79658777D01*
X131519815Y-74468777D01*
X131929815Y-74718777D01*
G37*
X131929815Y-95718777D02*
X132299815Y-95978777D01*
X132629815Y-96228777D01*
X132879815Y-96438777D01*
X133269815Y-96788777D01*
X133619815Y-97148777D01*
X133919815Y-97488777D01*
X134229815Y-97878777D01*
X134419815Y-98148777D01*
X134559815Y-98348777D01*
X134699815Y-98588777D01*
X129519815Y-101578777D01*
X129349815Y-101358777D01*
X129169815Y-101158777D01*
X129019815Y-101008777D01*
X128849815Y-100868777D01*
X128689815Y-100758777D01*
X128529815Y-100658777D01*
X131519815Y-95468777D01*
X131929815Y-95718777D01*
G36*
X131929815Y-95718777D02*
G01*
X132299815Y-95978777D01*
X132629815Y-96228777D01*
X132879815Y-96438777D01*
X133269815Y-96788777D01*
X133619815Y-97148777D01*
X133919815Y-97488777D01*
X134229815Y-97878777D01*
X134419815Y-98148777D01*
X134559815Y-98348777D01*
X134699815Y-98588777D01*
X129519815Y-101578777D01*
X129349815Y-101358777D01*
X129169815Y-101158777D01*
X129019815Y-101008777D01*
X128849815Y-100868777D01*
X128689815Y-100758777D01*
X128529815Y-100658777D01*
X131519815Y-95468777D01*
X131929815Y-95718777D01*
G37*
X131929815Y-116718777D02*
X132299815Y-116978777D01*
X132629815Y-117228777D01*
X132879815Y-117438777D01*
X133269815Y-117788777D01*
X133619815Y-118148777D01*
X133919815Y-118488777D01*
X134229815Y-118878777D01*
X134419815Y-119148777D01*
X134559815Y-119348777D01*
X134699815Y-119588777D01*
X129519815Y-122578777D01*
X129349815Y-122358777D01*
X129169815Y-122158777D01*
X129019815Y-122008777D01*
X128849815Y-121868777D01*
X128689815Y-121758777D01*
X128529815Y-121658777D01*
X131519815Y-116468777D01*
X131929815Y-116718777D01*
G36*
X131929815Y-116718777D02*
G01*
X132299815Y-116978777D01*
X132629815Y-117228777D01*
X132879815Y-117438777D01*
X133269815Y-117788777D01*
X133619815Y-118148777D01*
X133919815Y-118488777D01*
X134229815Y-118878777D01*
X134419815Y-119148777D01*
X134559815Y-119348777D01*
X134699815Y-119588777D01*
X129519815Y-122578777D01*
X129349815Y-122358777D01*
X129169815Y-122158777D01*
X129019815Y-122008777D01*
X128849815Y-121868777D01*
X128689815Y-121758777D01*
X128529815Y-121658777D01*
X131519815Y-116468777D01*
X131929815Y-116718777D01*
G37*
X145693192Y-63164762D02*
X145873192Y-63364762D01*
X146023192Y-63514762D01*
X146193192Y-63654762D01*
X146353192Y-63764762D01*
X146513192Y-63864762D01*
X143523192Y-69054762D01*
X143113192Y-68804762D01*
X142743192Y-68544762D01*
X142413192Y-68294762D01*
X142163192Y-68084762D01*
X141773192Y-67734762D01*
X141423192Y-67374762D01*
X141123192Y-67034762D01*
X140813192Y-66644762D01*
X140623192Y-66374762D01*
X140483192Y-66174762D01*
X140343192Y-65934762D01*
X145523192Y-62944762D01*
X145693192Y-63164762D01*
G36*
X145693192Y-63164762D02*
G01*
X145873192Y-63364762D01*
X146023192Y-63514762D01*
X146193192Y-63654762D01*
X146353192Y-63764762D01*
X146513192Y-63864762D01*
X143523192Y-69054762D01*
X143113192Y-68804762D01*
X142743192Y-68544762D01*
X142413192Y-68294762D01*
X142163192Y-68084762D01*
X141773192Y-67734762D01*
X141423192Y-67374762D01*
X141123192Y-67034762D01*
X140813192Y-66644762D01*
X140623192Y-66374762D01*
X140483192Y-66174762D01*
X140343192Y-65934762D01*
X145523192Y-62944762D01*
X145693192Y-63164762D01*
G37*
X145693192Y-84164762D02*
X145873192Y-84364762D01*
X146023192Y-84514762D01*
X146193192Y-84654762D01*
X146353192Y-84764762D01*
X146513192Y-84864762D01*
X143523192Y-90054762D01*
X143113192Y-89804762D01*
X142743192Y-89544762D01*
X142413192Y-89294762D01*
X142163192Y-89084762D01*
X141773192Y-88734762D01*
X141423192Y-88374762D01*
X141123192Y-88034762D01*
X140813192Y-87644762D01*
X140623192Y-87374762D01*
X140483192Y-87174762D01*
X140343192Y-86934762D01*
X145523192Y-83944762D01*
X145693192Y-84164762D01*
G36*
X145693192Y-84164762D02*
G01*
X145873192Y-84364762D01*
X146023192Y-84514762D01*
X146193192Y-84654762D01*
X146353192Y-84764762D01*
X146513192Y-84864762D01*
X143523192Y-90054762D01*
X143113192Y-89804762D01*
X142743192Y-89544762D01*
X142413192Y-89294762D01*
X142163192Y-89084762D01*
X141773192Y-88734762D01*
X141423192Y-88374762D01*
X141123192Y-88034762D01*
X140813192Y-87644762D01*
X140623192Y-87374762D01*
X140483192Y-87174762D01*
X140343192Y-86934762D01*
X145523192Y-83944762D01*
X145693192Y-84164762D01*
G37*
X145693192Y-105164762D02*
X145873192Y-105364762D01*
X146023192Y-105514762D01*
X146193192Y-105654762D01*
X146353192Y-105764762D01*
X146513192Y-105864762D01*
X143523192Y-111054762D01*
X143113192Y-110804762D01*
X142743192Y-110544762D01*
X142413192Y-110294762D01*
X142163192Y-110084762D01*
X141773192Y-109734762D01*
X141423192Y-109374762D01*
X141123192Y-109034762D01*
X140813192Y-108644762D01*
X140623192Y-108374762D01*
X140483192Y-108174762D01*
X140343192Y-107934762D01*
X145523192Y-104944762D01*
X145693192Y-105164762D01*
G36*
X145693192Y-105164762D02*
G01*
X145873192Y-105364762D01*
X146023192Y-105514762D01*
X146193192Y-105654762D01*
X146353192Y-105764762D01*
X146513192Y-105864762D01*
X143523192Y-111054762D01*
X143113192Y-110804762D01*
X142743192Y-110544762D01*
X142413192Y-110294762D01*
X142163192Y-110084762D01*
X141773192Y-109734762D01*
X141423192Y-109374762D01*
X141123192Y-109034762D01*
X140813192Y-108644762D01*
X140623192Y-108374762D01*
X140483192Y-108174762D01*
X140343192Y-107934762D01*
X145523192Y-104944762D01*
X145693192Y-105164762D01*
G37*
X145693192Y-126164762D02*
X145873192Y-126364762D01*
X146023192Y-126514762D01*
X146193192Y-126654762D01*
X146353192Y-126764762D01*
X146513192Y-126864762D01*
X143523192Y-132054762D01*
X143113192Y-131804762D01*
X142743192Y-131544762D01*
X142413192Y-131294762D01*
X142163192Y-131084762D01*
X141773192Y-130734762D01*
X141423192Y-130374762D01*
X141123192Y-130034762D01*
X140813192Y-129644762D01*
X140623192Y-129374762D01*
X140483192Y-129174762D01*
X140343192Y-128934762D01*
X145523192Y-125944762D01*
X145693192Y-126164762D01*
G36*
X145693192Y-126164762D02*
G01*
X145873192Y-126364762D01*
X146023192Y-126514762D01*
X146193192Y-126654762D01*
X146353192Y-126764762D01*
X146513192Y-126864762D01*
X143523192Y-132054762D01*
X143113192Y-131804762D01*
X142743192Y-131544762D01*
X142413192Y-131294762D01*
X142163192Y-131084762D01*
X141773192Y-130734762D01*
X141423192Y-130374762D01*
X141123192Y-130034762D01*
X140813192Y-129644762D01*
X140623192Y-129374762D01*
X140483192Y-129174762D01*
X140343192Y-128934762D01*
X145523192Y-125944762D01*
X145693192Y-126164762D01*
G37*
X146323830Y-58742154D02*
X146103830Y-58912154D01*
X145903830Y-59092154D01*
X145753830Y-59242154D01*
X145613830Y-59412154D01*
X145503830Y-59572154D01*
X145403830Y-59732154D01*
X140213830Y-56742154D01*
X140463830Y-56332154D01*
X140723830Y-55962154D01*
X140973830Y-55632154D01*
X141183830Y-55382154D01*
X141533830Y-54992154D01*
X141893830Y-54642154D01*
X142233830Y-54342154D01*
X142623830Y-54032154D01*
X142893830Y-53842154D01*
X143093830Y-53702154D01*
X143333830Y-53562154D01*
X146323830Y-58742154D01*
G36*
X146323830Y-58742154D02*
G01*
X146103830Y-58912154D01*
X145903830Y-59092154D01*
X145753830Y-59242154D01*
X145613830Y-59412154D01*
X145503830Y-59572154D01*
X145403830Y-59732154D01*
X140213830Y-56742154D01*
X140463830Y-56332154D01*
X140723830Y-55962154D01*
X140973830Y-55632154D01*
X141183830Y-55382154D01*
X141533830Y-54992154D01*
X141893830Y-54642154D01*
X142233830Y-54342154D01*
X142623830Y-54032154D01*
X142893830Y-53842154D01*
X143093830Y-53702154D01*
X143333830Y-53562154D01*
X146323830Y-58742154D01*
G37*
X146323830Y-79742154D02*
X146103830Y-79912154D01*
X145903830Y-80092154D01*
X145753830Y-80242154D01*
X145613830Y-80412154D01*
X145503830Y-80572154D01*
X145403830Y-80732154D01*
X140213830Y-77742154D01*
X140463830Y-77332154D01*
X140723830Y-76962154D01*
X140973830Y-76632154D01*
X141183830Y-76382154D01*
X141533830Y-75992154D01*
X141893830Y-75642154D01*
X142233830Y-75342154D01*
X142623830Y-75032154D01*
X142893830Y-74842154D01*
X143093830Y-74702154D01*
X143333830Y-74562154D01*
X146323830Y-79742154D01*
G36*
X146323830Y-79742154D02*
G01*
X146103830Y-79912154D01*
X145903830Y-80092154D01*
X145753830Y-80242154D01*
X145613830Y-80412154D01*
X145503830Y-80572154D01*
X145403830Y-80732154D01*
X140213830Y-77742154D01*
X140463830Y-77332154D01*
X140723830Y-76962154D01*
X140973830Y-76632154D01*
X141183830Y-76382154D01*
X141533830Y-75992154D01*
X141893830Y-75642154D01*
X142233830Y-75342154D01*
X142623830Y-75032154D01*
X142893830Y-74842154D01*
X143093830Y-74702154D01*
X143333830Y-74562154D01*
X146323830Y-79742154D01*
G37*
X146323830Y-100742154D02*
X146103830Y-100912154D01*
X145903830Y-101092154D01*
X145753830Y-101242154D01*
X145613830Y-101412154D01*
X145503830Y-101572154D01*
X145403830Y-101732154D01*
X140213830Y-98742154D01*
X140463830Y-98332154D01*
X140723830Y-97962154D01*
X140973830Y-97632154D01*
X141183830Y-97382154D01*
X141533830Y-96992154D01*
X141893830Y-96642154D01*
X142233830Y-96342154D01*
X142623830Y-96032154D01*
X142893830Y-95842154D01*
X143093830Y-95702154D01*
X143333830Y-95562154D01*
X146323830Y-100742154D01*
G36*
X146323830Y-100742154D02*
G01*
X146103830Y-100912154D01*
X145903830Y-101092154D01*
X145753830Y-101242154D01*
X145613830Y-101412154D01*
X145503830Y-101572154D01*
X145403830Y-101732154D01*
X140213830Y-98742154D01*
X140463830Y-98332154D01*
X140723830Y-97962154D01*
X140973830Y-97632154D01*
X141183830Y-97382154D01*
X141533830Y-96992154D01*
X141893830Y-96642154D01*
X142233830Y-96342154D01*
X142623830Y-96032154D01*
X142893830Y-95842154D01*
X143093830Y-95702154D01*
X143333830Y-95562154D01*
X146323830Y-100742154D01*
G37*
X146323830Y-121742154D02*
X146103830Y-121912154D01*
X145903830Y-122092154D01*
X145753830Y-122242154D01*
X145613830Y-122412154D01*
X145503830Y-122572154D01*
X145403830Y-122732154D01*
X140213830Y-119742154D01*
X140463830Y-119332154D01*
X140723830Y-118962154D01*
X140973830Y-118632154D01*
X141183830Y-118382154D01*
X141533830Y-117992154D01*
X141893830Y-117642154D01*
X142233830Y-117342154D01*
X142623830Y-117032154D01*
X142893830Y-116842154D01*
X143093830Y-116702154D01*
X143333830Y-116562154D01*
X146323830Y-121742154D01*
G36*
X146323830Y-121742154D02*
G01*
X146103830Y-121912154D01*
X145903830Y-122092154D01*
X145753830Y-122242154D01*
X145613830Y-122412154D01*
X145503830Y-122572154D01*
X145403830Y-122732154D01*
X140213830Y-119742154D01*
X140463830Y-119332154D01*
X140723830Y-118962154D01*
X140973830Y-118632154D01*
X141183830Y-118382154D01*
X141533830Y-117992154D01*
X141893830Y-117642154D01*
X142233830Y-117342154D01*
X142623830Y-117032154D01*
X142893830Y-116842154D01*
X143093830Y-116702154D01*
X143333830Y-116562154D01*
X146323830Y-121742154D01*
G37*
X155795800Y-65775400D02*
X155545800Y-66185400D01*
X155285800Y-66555400D01*
X155035800Y-66885400D01*
X154825800Y-67135400D01*
X154475800Y-67525400D01*
X154115800Y-67875400D01*
X153775800Y-68175400D01*
X153385800Y-68485400D01*
X153115800Y-68675400D01*
X152915800Y-68815400D01*
X152675800Y-68955400D01*
X149685800Y-63775400D01*
X149905800Y-63605400D01*
X150105800Y-63425400D01*
X150255800Y-63275400D01*
X150395800Y-63105400D01*
X150505800Y-62945400D01*
X150605800Y-62785400D01*
X155795800Y-65775400D01*
G36*
X155795800Y-65775400D02*
G01*
X155545800Y-66185400D01*
X155285800Y-66555400D01*
X155035800Y-66885400D01*
X154825800Y-67135400D01*
X154475800Y-67525400D01*
X154115800Y-67875400D01*
X153775800Y-68175400D01*
X153385800Y-68485400D01*
X153115800Y-68675400D01*
X152915800Y-68815400D01*
X152675800Y-68955400D01*
X149685800Y-63775400D01*
X149905800Y-63605400D01*
X150105800Y-63425400D01*
X150255800Y-63275400D01*
X150395800Y-63105400D01*
X150505800Y-62945400D01*
X150605800Y-62785400D01*
X155795800Y-65775400D01*
G37*
X155795800Y-86775400D02*
X155545800Y-87185400D01*
X155285800Y-87555400D01*
X155035800Y-87885400D01*
X154825800Y-88135400D01*
X154475800Y-88525400D01*
X154115800Y-88875400D01*
X153775800Y-89175400D01*
X153385800Y-89485400D01*
X153115800Y-89675400D01*
X152915800Y-89815400D01*
X152675800Y-89955400D01*
X149685800Y-84775400D01*
X149905800Y-84605400D01*
X150105800Y-84425400D01*
X150255800Y-84275400D01*
X150395800Y-84105400D01*
X150505800Y-83945400D01*
X150605800Y-83785400D01*
X155795800Y-86775400D01*
G36*
X155795800Y-86775400D02*
G01*
X155545800Y-87185400D01*
X155285800Y-87555400D01*
X155035800Y-87885400D01*
X154825800Y-88135400D01*
X154475800Y-88525400D01*
X154115800Y-88875400D01*
X153775800Y-89175400D01*
X153385800Y-89485400D01*
X153115800Y-89675400D01*
X152915800Y-89815400D01*
X152675800Y-89955400D01*
X149685800Y-84775400D01*
X149905800Y-84605400D01*
X150105800Y-84425400D01*
X150255800Y-84275400D01*
X150395800Y-84105400D01*
X150505800Y-83945400D01*
X150605800Y-83785400D01*
X155795800Y-86775400D01*
G37*
X155795800Y-107775400D02*
X155545800Y-108185400D01*
X155285800Y-108555400D01*
X155035800Y-108885400D01*
X154825800Y-109135400D01*
X154475800Y-109525400D01*
X154115800Y-109875400D01*
X153775800Y-110175400D01*
X153385800Y-110485400D01*
X153115800Y-110675400D01*
X152915800Y-110815400D01*
X152675800Y-110955400D01*
X149685800Y-105775400D01*
X149905800Y-105605400D01*
X150105800Y-105425400D01*
X150255800Y-105275400D01*
X150395800Y-105105400D01*
X150505800Y-104945400D01*
X150605800Y-104785400D01*
X155795800Y-107775400D01*
G36*
X155795800Y-107775400D02*
G01*
X155545800Y-108185400D01*
X155285800Y-108555400D01*
X155035800Y-108885400D01*
X154825800Y-109135400D01*
X154475800Y-109525400D01*
X154115800Y-109875400D01*
X153775800Y-110175400D01*
X153385800Y-110485400D01*
X153115800Y-110675400D01*
X152915800Y-110815400D01*
X152675800Y-110955400D01*
X149685800Y-105775400D01*
X149905800Y-105605400D01*
X150105800Y-105425400D01*
X150255800Y-105275400D01*
X150395800Y-105105400D01*
X150505800Y-104945400D01*
X150605800Y-104785400D01*
X155795800Y-107775400D01*
G37*
X155795800Y-128775400D02*
X155545800Y-129185400D01*
X155285800Y-129555400D01*
X155035800Y-129885400D01*
X154825800Y-130135400D01*
X154475800Y-130525400D01*
X154115800Y-130875400D01*
X153775800Y-131175400D01*
X153385800Y-131485400D01*
X153115800Y-131675400D01*
X152915800Y-131815400D01*
X152675800Y-131955400D01*
X149685800Y-126775400D01*
X149905800Y-126605400D01*
X150105800Y-126425400D01*
X150255800Y-126275400D01*
X150395800Y-126105400D01*
X150505800Y-125945400D01*
X150605800Y-125785400D01*
X155795800Y-128775400D01*
G36*
X155795800Y-128775400D02*
G01*
X155545800Y-129185400D01*
X155285800Y-129555400D01*
X155035800Y-129885400D01*
X154825800Y-130135400D01*
X154475800Y-130525400D01*
X154115800Y-130875400D01*
X153775800Y-131175400D01*
X153385800Y-131485400D01*
X153115800Y-131675400D01*
X152915800Y-131815400D01*
X152675800Y-131955400D01*
X149685800Y-126775400D01*
X149905800Y-126605400D01*
X150105800Y-126425400D01*
X150255800Y-126275400D01*
X150395800Y-126105400D01*
X150505800Y-125945400D01*
X150605800Y-125785400D01*
X155795800Y-128775400D01*
G37*
X152929815Y-53718777D02*
X153299815Y-53978777D01*
X153629815Y-54228777D01*
X153879815Y-54438777D01*
X154269815Y-54788777D01*
X154619815Y-55148777D01*
X154919815Y-55488777D01*
X155229815Y-55878777D01*
X155419815Y-56148777D01*
X155559815Y-56348777D01*
X155699815Y-56588777D01*
X150519815Y-59578777D01*
X150349815Y-59358777D01*
X150169815Y-59158777D01*
X150019815Y-59008777D01*
X149849815Y-58868777D01*
X149689815Y-58758777D01*
X149529815Y-58658777D01*
X152519815Y-53468777D01*
X152929815Y-53718777D01*
G36*
X152929815Y-53718777D02*
G01*
X153299815Y-53978777D01*
X153629815Y-54228777D01*
X153879815Y-54438777D01*
X154269815Y-54788777D01*
X154619815Y-55148777D01*
X154919815Y-55488777D01*
X155229815Y-55878777D01*
X155419815Y-56148777D01*
X155559815Y-56348777D01*
X155699815Y-56588777D01*
X150519815Y-59578777D01*
X150349815Y-59358777D01*
X150169815Y-59158777D01*
X150019815Y-59008777D01*
X149849815Y-58868777D01*
X149689815Y-58758777D01*
X149529815Y-58658777D01*
X152519815Y-53468777D01*
X152929815Y-53718777D01*
G37*
X152929815Y-74718777D02*
X153299815Y-74978777D01*
X153629815Y-75228777D01*
X153879815Y-75438777D01*
X154269815Y-75788777D01*
X154619815Y-76148777D01*
X154919815Y-76488777D01*
X155229815Y-76878777D01*
X155419815Y-77148777D01*
X155559815Y-77348777D01*
X155699815Y-77588777D01*
X150519815Y-80578777D01*
X150349815Y-80358777D01*
X150169815Y-80158777D01*
X150019815Y-80008777D01*
X149849815Y-79868777D01*
X149689815Y-79758777D01*
X149529815Y-79658777D01*
X152519815Y-74468777D01*
X152929815Y-74718777D01*
G36*
X152929815Y-74718777D02*
G01*
X153299815Y-74978777D01*
X153629815Y-75228777D01*
X153879815Y-75438777D01*
X154269815Y-75788777D01*
X154619815Y-76148777D01*
X154919815Y-76488777D01*
X155229815Y-76878777D01*
X155419815Y-77148777D01*
X155559815Y-77348777D01*
X155699815Y-77588777D01*
X150519815Y-80578777D01*
X150349815Y-80358777D01*
X150169815Y-80158777D01*
X150019815Y-80008777D01*
X149849815Y-79868777D01*
X149689815Y-79758777D01*
X149529815Y-79658777D01*
X152519815Y-74468777D01*
X152929815Y-74718777D01*
G37*
X152929815Y-95718777D02*
X153299815Y-95978777D01*
X153629815Y-96228777D01*
X153879815Y-96438777D01*
X154269815Y-96788777D01*
X154619815Y-97148777D01*
X154919815Y-97488777D01*
X155229815Y-97878777D01*
X155419815Y-98148777D01*
X155559815Y-98348777D01*
X155699815Y-98588777D01*
X150519815Y-101578777D01*
X150349815Y-101358777D01*
X150169815Y-101158777D01*
X150019815Y-101008777D01*
X149849815Y-100868777D01*
X149689815Y-100758777D01*
X149529815Y-100658777D01*
X152519815Y-95468777D01*
X152929815Y-95718777D01*
G36*
X152929815Y-95718777D02*
G01*
X153299815Y-95978777D01*
X153629815Y-96228777D01*
X153879815Y-96438777D01*
X154269815Y-96788777D01*
X154619815Y-97148777D01*
X154919815Y-97488777D01*
X155229815Y-97878777D01*
X155419815Y-98148777D01*
X155559815Y-98348777D01*
X155699815Y-98588777D01*
X150519815Y-101578777D01*
X150349815Y-101358777D01*
X150169815Y-101158777D01*
X150019815Y-101008777D01*
X149849815Y-100868777D01*
X149689815Y-100758777D01*
X149529815Y-100658777D01*
X152519815Y-95468777D01*
X152929815Y-95718777D01*
G37*
X152929815Y-116718777D02*
X153299815Y-116978777D01*
X153629815Y-117228777D01*
X153879815Y-117438777D01*
X154269815Y-117788777D01*
X154619815Y-118148777D01*
X154919815Y-118488777D01*
X155229815Y-118878777D01*
X155419815Y-119148777D01*
X155559815Y-119348777D01*
X155699815Y-119588777D01*
X150519815Y-122578777D01*
X150349815Y-122358777D01*
X150169815Y-122158777D01*
X150019815Y-122008777D01*
X149849815Y-121868777D01*
X149689815Y-121758777D01*
X149529815Y-121658777D01*
X152519815Y-116468777D01*
X152929815Y-116718777D01*
G36*
X152929815Y-116718777D02*
G01*
X153299815Y-116978777D01*
X153629815Y-117228777D01*
X153879815Y-117438777D01*
X154269815Y-117788777D01*
X154619815Y-118148777D01*
X154919815Y-118488777D01*
X155229815Y-118878777D01*
X155419815Y-119148777D01*
X155559815Y-119348777D01*
X155699815Y-119588777D01*
X150519815Y-122578777D01*
X150349815Y-122358777D01*
X150169815Y-122158777D01*
X150019815Y-122008777D01*
X149849815Y-121868777D01*
X149689815Y-121758777D01*
X149529815Y-121658777D01*
X152519815Y-116468777D01*
X152929815Y-116718777D01*
G37*
X166693192Y-63164762D02*
X166873192Y-63364762D01*
X167023192Y-63514762D01*
X167193192Y-63654762D01*
X167353192Y-63764762D01*
X167513192Y-63864762D01*
X164523192Y-69054762D01*
X164113192Y-68804762D01*
X163743192Y-68544762D01*
X163413192Y-68294762D01*
X163163192Y-68084762D01*
X162773192Y-67734762D01*
X162423192Y-67374762D01*
X162123192Y-67034762D01*
X161813192Y-66644762D01*
X161623192Y-66374762D01*
X161483192Y-66174762D01*
X161343192Y-65934762D01*
X166523192Y-62944762D01*
X166693192Y-63164762D01*
G36*
X166693192Y-63164762D02*
G01*
X166873192Y-63364762D01*
X167023192Y-63514762D01*
X167193192Y-63654762D01*
X167353192Y-63764762D01*
X167513192Y-63864762D01*
X164523192Y-69054762D01*
X164113192Y-68804762D01*
X163743192Y-68544762D01*
X163413192Y-68294762D01*
X163163192Y-68084762D01*
X162773192Y-67734762D01*
X162423192Y-67374762D01*
X162123192Y-67034762D01*
X161813192Y-66644762D01*
X161623192Y-66374762D01*
X161483192Y-66174762D01*
X161343192Y-65934762D01*
X166523192Y-62944762D01*
X166693192Y-63164762D01*
G37*
X166693192Y-84164762D02*
X166873192Y-84364762D01*
X167023192Y-84514762D01*
X167193192Y-84654762D01*
X167353192Y-84764762D01*
X167513192Y-84864762D01*
X164523192Y-90054762D01*
X164113192Y-89804762D01*
X163743192Y-89544762D01*
X163413192Y-89294762D01*
X163163192Y-89084762D01*
X162773192Y-88734762D01*
X162423192Y-88374762D01*
X162123192Y-88034762D01*
X161813192Y-87644762D01*
X161623192Y-87374762D01*
X161483192Y-87174762D01*
X161343192Y-86934762D01*
X166523192Y-83944762D01*
X166693192Y-84164762D01*
G36*
X166693192Y-84164762D02*
G01*
X166873192Y-84364762D01*
X167023192Y-84514762D01*
X167193192Y-84654762D01*
X167353192Y-84764762D01*
X167513192Y-84864762D01*
X164523192Y-90054762D01*
X164113192Y-89804762D01*
X163743192Y-89544762D01*
X163413192Y-89294762D01*
X163163192Y-89084762D01*
X162773192Y-88734762D01*
X162423192Y-88374762D01*
X162123192Y-88034762D01*
X161813192Y-87644762D01*
X161623192Y-87374762D01*
X161483192Y-87174762D01*
X161343192Y-86934762D01*
X166523192Y-83944762D01*
X166693192Y-84164762D01*
G37*
X166693192Y-105164762D02*
X166873192Y-105364762D01*
X167023192Y-105514762D01*
X167193192Y-105654762D01*
X167353192Y-105764762D01*
X167513192Y-105864762D01*
X164523192Y-111054762D01*
X164113192Y-110804762D01*
X163743192Y-110544762D01*
X163413192Y-110294762D01*
X163163192Y-110084762D01*
X162773192Y-109734762D01*
X162423192Y-109374762D01*
X162123192Y-109034762D01*
X161813192Y-108644762D01*
X161623192Y-108374762D01*
X161483192Y-108174762D01*
X161343192Y-107934762D01*
X166523192Y-104944762D01*
X166693192Y-105164762D01*
G36*
X166693192Y-105164762D02*
G01*
X166873192Y-105364762D01*
X167023192Y-105514762D01*
X167193192Y-105654762D01*
X167353192Y-105764762D01*
X167513192Y-105864762D01*
X164523192Y-111054762D01*
X164113192Y-110804762D01*
X163743192Y-110544762D01*
X163413192Y-110294762D01*
X163163192Y-110084762D01*
X162773192Y-109734762D01*
X162423192Y-109374762D01*
X162123192Y-109034762D01*
X161813192Y-108644762D01*
X161623192Y-108374762D01*
X161483192Y-108174762D01*
X161343192Y-107934762D01*
X166523192Y-104944762D01*
X166693192Y-105164762D01*
G37*
X166693192Y-126164762D02*
X166873192Y-126364762D01*
X167023192Y-126514762D01*
X167193192Y-126654762D01*
X167353192Y-126764762D01*
X167513192Y-126864762D01*
X164523192Y-132054762D01*
X164113192Y-131804762D01*
X163743192Y-131544762D01*
X163413192Y-131294762D01*
X163163192Y-131084762D01*
X162773192Y-130734762D01*
X162423192Y-130374762D01*
X162123192Y-130034762D01*
X161813192Y-129644762D01*
X161623192Y-129374762D01*
X161483192Y-129174762D01*
X161343192Y-128934762D01*
X166523192Y-125944762D01*
X166693192Y-126164762D01*
G36*
X166693192Y-126164762D02*
G01*
X166873192Y-126364762D01*
X167023192Y-126514762D01*
X167193192Y-126654762D01*
X167353192Y-126764762D01*
X167513192Y-126864762D01*
X164523192Y-132054762D01*
X164113192Y-131804762D01*
X163743192Y-131544762D01*
X163413192Y-131294762D01*
X163163192Y-131084762D01*
X162773192Y-130734762D01*
X162423192Y-130374762D01*
X162123192Y-130034762D01*
X161813192Y-129644762D01*
X161623192Y-129374762D01*
X161483192Y-129174762D01*
X161343192Y-128934762D01*
X166523192Y-125944762D01*
X166693192Y-126164762D01*
G37*
X167323830Y-58742154D02*
X167103830Y-58912154D01*
X166903830Y-59092154D01*
X166753830Y-59242154D01*
X166613830Y-59412154D01*
X166503830Y-59572154D01*
X166403830Y-59732154D01*
X161213830Y-56742154D01*
X161463830Y-56332154D01*
X161723830Y-55962154D01*
X161973830Y-55632154D01*
X162183830Y-55382154D01*
X162533830Y-54992154D01*
X162893830Y-54642154D01*
X163233830Y-54342154D01*
X163623830Y-54032154D01*
X163893830Y-53842154D01*
X164093830Y-53702154D01*
X164333830Y-53562154D01*
X167323830Y-58742154D01*
G36*
X167323830Y-58742154D02*
G01*
X167103830Y-58912154D01*
X166903830Y-59092154D01*
X166753830Y-59242154D01*
X166613830Y-59412154D01*
X166503830Y-59572154D01*
X166403830Y-59732154D01*
X161213830Y-56742154D01*
X161463830Y-56332154D01*
X161723830Y-55962154D01*
X161973830Y-55632154D01*
X162183830Y-55382154D01*
X162533830Y-54992154D01*
X162893830Y-54642154D01*
X163233830Y-54342154D01*
X163623830Y-54032154D01*
X163893830Y-53842154D01*
X164093830Y-53702154D01*
X164333830Y-53562154D01*
X167323830Y-58742154D01*
G37*
X167323830Y-79742154D02*
X167103830Y-79912154D01*
X166903830Y-80092154D01*
X166753830Y-80242154D01*
X166613830Y-80412154D01*
X166503830Y-80572154D01*
X166403830Y-80732154D01*
X161213830Y-77742154D01*
X161463830Y-77332154D01*
X161723830Y-76962154D01*
X161973830Y-76632154D01*
X162183830Y-76382154D01*
X162533830Y-75992154D01*
X162893830Y-75642154D01*
X163233830Y-75342154D01*
X163623830Y-75032154D01*
X163893830Y-74842154D01*
X164093830Y-74702154D01*
X164333830Y-74562154D01*
X167323830Y-79742154D01*
G36*
X167323830Y-79742154D02*
G01*
X167103830Y-79912154D01*
X166903830Y-80092154D01*
X166753830Y-80242154D01*
X166613830Y-80412154D01*
X166503830Y-80572154D01*
X166403830Y-80732154D01*
X161213830Y-77742154D01*
X161463830Y-77332154D01*
X161723830Y-76962154D01*
X161973830Y-76632154D01*
X162183830Y-76382154D01*
X162533830Y-75992154D01*
X162893830Y-75642154D01*
X163233830Y-75342154D01*
X163623830Y-75032154D01*
X163893830Y-74842154D01*
X164093830Y-74702154D01*
X164333830Y-74562154D01*
X167323830Y-79742154D01*
G37*
X167323830Y-100742154D02*
X167103830Y-100912154D01*
X166903830Y-101092154D01*
X166753830Y-101242154D01*
X166613830Y-101412154D01*
X166503830Y-101572154D01*
X166403830Y-101732154D01*
X161213830Y-98742154D01*
X161463830Y-98332154D01*
X161723830Y-97962154D01*
X161973830Y-97632154D01*
X162183830Y-97382154D01*
X162533830Y-96992154D01*
X162893830Y-96642154D01*
X163233830Y-96342154D01*
X163623830Y-96032154D01*
X163893830Y-95842154D01*
X164093830Y-95702154D01*
X164333830Y-95562154D01*
X167323830Y-100742154D01*
G36*
X167323830Y-100742154D02*
G01*
X167103830Y-100912154D01*
X166903830Y-101092154D01*
X166753830Y-101242154D01*
X166613830Y-101412154D01*
X166503830Y-101572154D01*
X166403830Y-101732154D01*
X161213830Y-98742154D01*
X161463830Y-98332154D01*
X161723830Y-97962154D01*
X161973830Y-97632154D01*
X162183830Y-97382154D01*
X162533830Y-96992154D01*
X162893830Y-96642154D01*
X163233830Y-96342154D01*
X163623830Y-96032154D01*
X163893830Y-95842154D01*
X164093830Y-95702154D01*
X164333830Y-95562154D01*
X167323830Y-100742154D01*
G37*
X167323830Y-121742154D02*
X167103830Y-121912154D01*
X166903830Y-122092154D01*
X166753830Y-122242154D01*
X166613830Y-122412154D01*
X166503830Y-122572154D01*
X166403830Y-122732154D01*
X161213830Y-119742154D01*
X161463830Y-119332154D01*
X161723830Y-118962154D01*
X161973830Y-118632154D01*
X162183830Y-118382154D01*
X162533830Y-117992154D01*
X162893830Y-117642154D01*
X163233830Y-117342154D01*
X163623830Y-117032154D01*
X163893830Y-116842154D01*
X164093830Y-116702154D01*
X164333830Y-116562154D01*
X167323830Y-121742154D01*
G36*
X167323830Y-121742154D02*
G01*
X167103830Y-121912154D01*
X166903830Y-122092154D01*
X166753830Y-122242154D01*
X166613830Y-122412154D01*
X166503830Y-122572154D01*
X166403830Y-122732154D01*
X161213830Y-119742154D01*
X161463830Y-119332154D01*
X161723830Y-118962154D01*
X161973830Y-118632154D01*
X162183830Y-118382154D01*
X162533830Y-117992154D01*
X162893830Y-117642154D01*
X163233830Y-117342154D01*
X163623830Y-117032154D01*
X163893830Y-116842154D01*
X164093830Y-116702154D01*
X164333830Y-116562154D01*
X167323830Y-121742154D01*
G37*
X176795800Y-65775400D02*
X176545800Y-66185400D01*
X176285800Y-66555400D01*
X176035800Y-66885400D01*
X175825800Y-67135400D01*
X175475800Y-67525400D01*
X175115800Y-67875400D01*
X174775800Y-68175400D01*
X174385800Y-68485400D01*
X174115800Y-68675400D01*
X173915800Y-68815400D01*
X173675800Y-68955400D01*
X170685800Y-63775400D01*
X170905800Y-63605400D01*
X171105800Y-63425400D01*
X171255800Y-63275400D01*
X171395800Y-63105400D01*
X171505800Y-62945400D01*
X171605800Y-62785400D01*
X176795800Y-65775400D01*
G36*
X176795800Y-65775400D02*
G01*
X176545800Y-66185400D01*
X176285800Y-66555400D01*
X176035800Y-66885400D01*
X175825800Y-67135400D01*
X175475800Y-67525400D01*
X175115800Y-67875400D01*
X174775800Y-68175400D01*
X174385800Y-68485400D01*
X174115800Y-68675400D01*
X173915800Y-68815400D01*
X173675800Y-68955400D01*
X170685800Y-63775400D01*
X170905800Y-63605400D01*
X171105800Y-63425400D01*
X171255800Y-63275400D01*
X171395800Y-63105400D01*
X171505800Y-62945400D01*
X171605800Y-62785400D01*
X176795800Y-65775400D01*
G37*
X176795800Y-86775400D02*
X176545800Y-87185400D01*
X176285800Y-87555400D01*
X176035800Y-87885400D01*
X175825800Y-88135400D01*
X175475800Y-88525400D01*
X175115800Y-88875400D01*
X174775800Y-89175400D01*
X174385800Y-89485400D01*
X174115800Y-89675400D01*
X173915800Y-89815400D01*
X173675800Y-89955400D01*
X170685800Y-84775400D01*
X170905800Y-84605400D01*
X171105800Y-84425400D01*
X171255800Y-84275400D01*
X171395800Y-84105400D01*
X171505800Y-83945400D01*
X171605800Y-83785400D01*
X176795800Y-86775400D01*
G36*
X176795800Y-86775400D02*
G01*
X176545800Y-87185400D01*
X176285800Y-87555400D01*
X176035800Y-87885400D01*
X175825800Y-88135400D01*
X175475800Y-88525400D01*
X175115800Y-88875400D01*
X174775800Y-89175400D01*
X174385800Y-89485400D01*
X174115800Y-89675400D01*
X173915800Y-89815400D01*
X173675800Y-89955400D01*
X170685800Y-84775400D01*
X170905800Y-84605400D01*
X171105800Y-84425400D01*
X171255800Y-84275400D01*
X171395800Y-84105400D01*
X171505800Y-83945400D01*
X171605800Y-83785400D01*
X176795800Y-86775400D01*
G37*
X176795800Y-107775400D02*
X176545800Y-108185400D01*
X176285800Y-108555400D01*
X176035800Y-108885400D01*
X175825800Y-109135400D01*
X175475800Y-109525400D01*
X175115800Y-109875400D01*
X174775800Y-110175400D01*
X174385800Y-110485400D01*
X174115800Y-110675400D01*
X173915800Y-110815400D01*
X173675800Y-110955400D01*
X170685800Y-105775400D01*
X170905800Y-105605400D01*
X171105800Y-105425400D01*
X171255800Y-105275400D01*
X171395800Y-105105400D01*
X171505800Y-104945400D01*
X171605800Y-104785400D01*
X176795800Y-107775400D01*
G36*
X176795800Y-107775400D02*
G01*
X176545800Y-108185400D01*
X176285800Y-108555400D01*
X176035800Y-108885400D01*
X175825800Y-109135400D01*
X175475800Y-109525400D01*
X175115800Y-109875400D01*
X174775800Y-110175400D01*
X174385800Y-110485400D01*
X174115800Y-110675400D01*
X173915800Y-110815400D01*
X173675800Y-110955400D01*
X170685800Y-105775400D01*
X170905800Y-105605400D01*
X171105800Y-105425400D01*
X171255800Y-105275400D01*
X171395800Y-105105400D01*
X171505800Y-104945400D01*
X171605800Y-104785400D01*
X176795800Y-107775400D01*
G37*
X176795800Y-128775400D02*
X176545800Y-129185400D01*
X176285800Y-129555400D01*
X176035800Y-129885400D01*
X175825800Y-130135400D01*
X175475800Y-130525400D01*
X175115800Y-130875400D01*
X174775800Y-131175400D01*
X174385800Y-131485400D01*
X174115800Y-131675400D01*
X173915800Y-131815400D01*
X173675800Y-131955400D01*
X170685800Y-126775400D01*
X170905800Y-126605400D01*
X171105800Y-126425400D01*
X171255800Y-126275400D01*
X171395800Y-126105400D01*
X171505800Y-125945400D01*
X171605800Y-125785400D01*
X176795800Y-128775400D01*
G36*
X176795800Y-128775400D02*
G01*
X176545800Y-129185400D01*
X176285800Y-129555400D01*
X176035800Y-129885400D01*
X175825800Y-130135400D01*
X175475800Y-130525400D01*
X175115800Y-130875400D01*
X174775800Y-131175400D01*
X174385800Y-131485400D01*
X174115800Y-131675400D01*
X173915800Y-131815400D01*
X173675800Y-131955400D01*
X170685800Y-126775400D01*
X170905800Y-126605400D01*
X171105800Y-126425400D01*
X171255800Y-126275400D01*
X171395800Y-126105400D01*
X171505800Y-125945400D01*
X171605800Y-125785400D01*
X176795800Y-128775400D01*
G37*
X173929815Y-53718777D02*
X174299815Y-53978777D01*
X174629815Y-54228777D01*
X174879815Y-54438777D01*
X175269815Y-54788777D01*
X175619815Y-55148777D01*
X175919815Y-55488777D01*
X176229815Y-55878777D01*
X176419815Y-56148777D01*
X176559815Y-56348777D01*
X176699815Y-56588777D01*
X171519815Y-59578777D01*
X171349815Y-59358777D01*
X171169815Y-59158777D01*
X171019815Y-59008777D01*
X170849815Y-58868777D01*
X170689815Y-58758777D01*
X170529815Y-58658777D01*
X173519815Y-53468777D01*
X173929815Y-53718777D01*
G36*
X173929815Y-53718777D02*
G01*
X174299815Y-53978777D01*
X174629815Y-54228777D01*
X174879815Y-54438777D01*
X175269815Y-54788777D01*
X175619815Y-55148777D01*
X175919815Y-55488777D01*
X176229815Y-55878777D01*
X176419815Y-56148777D01*
X176559815Y-56348777D01*
X176699815Y-56588777D01*
X171519815Y-59578777D01*
X171349815Y-59358777D01*
X171169815Y-59158777D01*
X171019815Y-59008777D01*
X170849815Y-58868777D01*
X170689815Y-58758777D01*
X170529815Y-58658777D01*
X173519815Y-53468777D01*
X173929815Y-53718777D01*
G37*
X173929815Y-74718777D02*
X174299815Y-74978777D01*
X174629815Y-75228777D01*
X174879815Y-75438777D01*
X175269815Y-75788777D01*
X175619815Y-76148777D01*
X175919815Y-76488777D01*
X176229815Y-76878777D01*
X176419815Y-77148777D01*
X176559815Y-77348777D01*
X176699815Y-77588777D01*
X171519815Y-80578777D01*
X171349815Y-80358777D01*
X171169815Y-80158777D01*
X171019815Y-80008777D01*
X170849815Y-79868777D01*
X170689815Y-79758777D01*
X170529815Y-79658777D01*
X173519815Y-74468777D01*
X173929815Y-74718777D01*
G36*
X173929815Y-74718777D02*
G01*
X174299815Y-74978777D01*
X174629815Y-75228777D01*
X174879815Y-75438777D01*
X175269815Y-75788777D01*
X175619815Y-76148777D01*
X175919815Y-76488777D01*
X176229815Y-76878777D01*
X176419815Y-77148777D01*
X176559815Y-77348777D01*
X176699815Y-77588777D01*
X171519815Y-80578777D01*
X171349815Y-80358777D01*
X171169815Y-80158777D01*
X171019815Y-80008777D01*
X170849815Y-79868777D01*
X170689815Y-79758777D01*
X170529815Y-79658777D01*
X173519815Y-74468777D01*
X173929815Y-74718777D01*
G37*
X173929815Y-95718777D02*
X174299815Y-95978777D01*
X174629815Y-96228777D01*
X174879815Y-96438777D01*
X175269815Y-96788777D01*
X175619815Y-97148777D01*
X175919815Y-97488777D01*
X176229815Y-97878777D01*
X176419815Y-98148777D01*
X176559815Y-98348777D01*
X176699815Y-98588777D01*
X171519815Y-101578777D01*
X171349815Y-101358777D01*
X171169815Y-101158777D01*
X171019815Y-101008777D01*
X170849815Y-100868777D01*
X170689815Y-100758777D01*
X170529815Y-100658777D01*
X173519815Y-95468777D01*
X173929815Y-95718777D01*
G36*
X173929815Y-95718777D02*
G01*
X174299815Y-95978777D01*
X174629815Y-96228777D01*
X174879815Y-96438777D01*
X175269815Y-96788777D01*
X175619815Y-97148777D01*
X175919815Y-97488777D01*
X176229815Y-97878777D01*
X176419815Y-98148777D01*
X176559815Y-98348777D01*
X176699815Y-98588777D01*
X171519815Y-101578777D01*
X171349815Y-101358777D01*
X171169815Y-101158777D01*
X171019815Y-101008777D01*
X170849815Y-100868777D01*
X170689815Y-100758777D01*
X170529815Y-100658777D01*
X173519815Y-95468777D01*
X173929815Y-95718777D01*
G37*
X173929815Y-116718777D02*
X174299815Y-116978777D01*
X174629815Y-117228777D01*
X174879815Y-117438777D01*
X175269815Y-117788777D01*
X175619815Y-118148777D01*
X175919815Y-118488777D01*
X176229815Y-118878777D01*
X176419815Y-119148777D01*
X176559815Y-119348777D01*
X176699815Y-119588777D01*
X171519815Y-122578777D01*
X171349815Y-122358777D01*
X171169815Y-122158777D01*
X171019815Y-122008777D01*
X170849815Y-121868777D01*
X170689815Y-121758777D01*
X170529815Y-121658777D01*
X173519815Y-116468777D01*
X173929815Y-116718777D01*
G36*
X173929815Y-116718777D02*
G01*
X174299815Y-116978777D01*
X174629815Y-117228777D01*
X174879815Y-117438777D01*
X175269815Y-117788777D01*
X175619815Y-118148777D01*
X175919815Y-118488777D01*
X176229815Y-118878777D01*
X176419815Y-119148777D01*
X176559815Y-119348777D01*
X176699815Y-119588777D01*
X171519815Y-122578777D01*
X171349815Y-122358777D01*
X171169815Y-122158777D01*
X171019815Y-122008777D01*
X170849815Y-121868777D01*
X170689815Y-121758777D01*
X170529815Y-121658777D01*
X173519815Y-116468777D01*
X173929815Y-116718777D01*
G37*
D11*
X169019600Y-124239400D03*
X148019600Y-124239400D03*
X127019600Y-124239400D03*
X106019600Y-124239400D03*
X169019600Y-103239400D03*
X148019600Y-103239400D03*
X127019600Y-103239400D03*
X106019600Y-103239400D03*
X169019600Y-82239400D03*
X148019600Y-82239400D03*
X127019600Y-82239400D03*
X106019600Y-82239400D03*
X169019600Y-61239400D03*
X148019600Y-61239400D03*
X127019600Y-61239400D03*
X106019600Y-61239400D03*
M02*
