G04 #@! TF.GenerationSoftware,KiCad,Pcbnew,8.0.5*
G04 #@! TF.CreationDate,2025-02-19T22:30:28+01:00*
G04 #@! TF.ProjectId,Display_EBmetro,44697370-6c61-4795-9f45-426d6574726f,rev?*
G04 #@! TF.SameCoordinates,Original*
G04 #@! TF.FileFunction,Legend,Bot*
G04 #@! TF.FilePolarity,Positive*
%FSLAX46Y46*%
G04 Gerber Fmt 4.6, Leading zero omitted, Abs format (unit mm)*
G04 Created by KiCad (PCBNEW 8.0.5) date 2025-02-19 22:30:28*
%MOMM*%
%LPD*%
G01*
G04 APERTURE LIST*
G04 Aperture macros list*
%AMRoundRect*
0 Rectangle with rounded corners*
0 $1 Rounding radius*
0 $2 $3 $4 $5 $6 $7 $8 $9 X,Y pos of 4 corners*
0 Add a 4 corners polygon primitive as box body*
4,1,4,$2,$3,$4,$5,$6,$7,$8,$9,$2,$3,0*
0 Add four circle primitives for the rounded corners*
1,1,$1+$1,$2,$3*
1,1,$1+$1,$4,$5*
1,1,$1+$1,$6,$7*
1,1,$1+$1,$8,$9*
0 Add four rect primitives between the rounded corners*
20,1,$1+$1,$2,$3,$4,$5,0*
20,1,$1+$1,$4,$5,$6,$7,0*
20,1,$1+$1,$6,$7,$8,$9,0*
20,1,$1+$1,$8,$9,$2,$3,0*%
%AMFreePoly0*
4,1,17,0.813954,0.557520,0.851008,0.506520,0.856000,0.475000,0.856000,-0.475000,0.836520,-0.534954,0.785520,-0.572008,0.754000,-0.577000,-0.754000,-0.577000,-0.813954,-0.557520,-0.851008,-0.506520,-0.856000,-0.475000,-0.856000,0.475000,-0.836520,0.534954,-0.785520,0.572008,-0.754000,0.577000,0.754000,0.577000,0.813954,0.557520,0.813954,0.557520,$1*%
G04 Aperture macros list end*
%ADD10C,0.150000*%
%ADD11C,0.100000*%
%ADD12C,0.120000*%
%ADD13C,1.676000*%
%ADD14O,1.676000X1.676000*%
%ADD15RoundRect,0.038000X-0.800000X-0.800000X0.800000X-0.800000X0.800000X0.800000X-0.800000X0.800000X0*%
%ADD16RoundRect,0.038000X-0.800000X0.800000X-0.800000X-0.800000X0.800000X-0.800000X0.800000X0.800000X0*%
%ADD17RoundRect,0.038000X0.800000X-0.800000X0.800000X0.800000X-0.800000X0.800000X-0.800000X-0.800000X0*%
%ADD18RoundRect,0.038000X-0.750000X-0.750000X0.750000X-0.750000X0.750000X0.750000X-0.750000X0.750000X0*%
%ADD19C,1.576000*%
%ADD20RoundRect,0.038000X0.850000X-0.850000X0.850000X0.850000X-0.850000X0.850000X-0.850000X-0.850000X0*%
%ADD21O,1.776000X1.776000*%
%ADD22RoundRect,0.261177X0.776823X-0.626823X0.776823X0.626823X-0.776823X0.626823X-0.776823X-0.626823X0*%
%ADD23O,2.076000X1.776000*%
%ADD24RoundRect,0.038000X-0.850000X-0.850000X0.850000X-0.850000X0.850000X0.850000X-0.850000X0.850000X0*%
%ADD25RoundRect,0.038000X0.850000X0.850000X-0.850000X0.850000X-0.850000X-0.850000X0.850000X-0.850000X0*%
%ADD26O,2.376000X1.676000*%
%ADD27RoundRect,0.038000X0.800000X0.800000X-0.800000X0.800000X-0.800000X-0.800000X0.800000X-0.800000X0*%
%ADD28RoundRect,0.038000X-0.750000X0.750000X-0.750000X-0.750000X0.750000X-0.750000X0.750000X0.750000X0*%
%ADD29RoundRect,0.261177X0.751823X-0.626823X0.751823X0.626823X-0.751823X0.626823X-0.751823X-0.626823X0*%
%ADD30O,2.026000X1.776000*%
%ADD31RoundRect,0.038000X-1.000000X1.000000X-1.000000X-1.000000X1.000000X-1.000000X1.000000X1.000000X0*%
%ADD32C,2.076000*%
%ADD33C,1.516000*%
%ADD34FreePoly0,90.000000*%
%ADD35C,1.712000*%
G04 APERTURE END LIST*
D10*
X106404580Y-63578333D02*
X106452200Y-63530714D01*
X106452200Y-63530714D02*
X106499819Y-63387857D01*
X106499819Y-63387857D02*
X106499819Y-63292619D01*
X106499819Y-63292619D02*
X106452200Y-63149762D01*
X106452200Y-63149762D02*
X106356961Y-63054524D01*
X106356961Y-63054524D02*
X106261723Y-63006905D01*
X106261723Y-63006905D02*
X106071247Y-62959286D01*
X106071247Y-62959286D02*
X105928390Y-62959286D01*
X105928390Y-62959286D02*
X105737914Y-63006905D01*
X105737914Y-63006905D02*
X105642676Y-63054524D01*
X105642676Y-63054524D02*
X105547438Y-63149762D01*
X105547438Y-63149762D02*
X105499819Y-63292619D01*
X105499819Y-63292619D02*
X105499819Y-63387857D01*
X105499819Y-63387857D02*
X105547438Y-63530714D01*
X105547438Y-63530714D02*
X105595057Y-63578333D01*
X105499819Y-63911667D02*
X105499819Y-64578333D01*
X105499819Y-64578333D02*
X106499819Y-64149762D01*
X107801580Y-117761142D02*
X107849200Y-117713523D01*
X107849200Y-117713523D02*
X107896819Y-117570666D01*
X107896819Y-117570666D02*
X107896819Y-117475428D01*
X107896819Y-117475428D02*
X107849200Y-117332571D01*
X107849200Y-117332571D02*
X107753961Y-117237333D01*
X107753961Y-117237333D02*
X107658723Y-117189714D01*
X107658723Y-117189714D02*
X107468247Y-117142095D01*
X107468247Y-117142095D02*
X107325390Y-117142095D01*
X107325390Y-117142095D02*
X107134914Y-117189714D01*
X107134914Y-117189714D02*
X107039676Y-117237333D01*
X107039676Y-117237333D02*
X106944438Y-117332571D01*
X106944438Y-117332571D02*
X106896819Y-117475428D01*
X106896819Y-117475428D02*
X106896819Y-117570666D01*
X106896819Y-117570666D02*
X106944438Y-117713523D01*
X106944438Y-117713523D02*
X106992057Y-117761142D01*
X107896819Y-118713523D02*
X107896819Y-118142095D01*
X107896819Y-118427809D02*
X106896819Y-118427809D01*
X106896819Y-118427809D02*
X107039676Y-118332571D01*
X107039676Y-118332571D02*
X107134914Y-118237333D01*
X107134914Y-118237333D02*
X107182533Y-118142095D01*
X106896819Y-119046857D02*
X106896819Y-119665904D01*
X106896819Y-119665904D02*
X107277771Y-119332571D01*
X107277771Y-119332571D02*
X107277771Y-119475428D01*
X107277771Y-119475428D02*
X107325390Y-119570666D01*
X107325390Y-119570666D02*
X107373009Y-119618285D01*
X107373009Y-119618285D02*
X107468247Y-119665904D01*
X107468247Y-119665904D02*
X107706342Y-119665904D01*
X107706342Y-119665904D02*
X107801580Y-119618285D01*
X107801580Y-119618285D02*
X107849200Y-119570666D01*
X107849200Y-119570666D02*
X107896819Y-119475428D01*
X107896819Y-119475428D02*
X107896819Y-119189714D01*
X107896819Y-119189714D02*
X107849200Y-119094476D01*
X107849200Y-119094476D02*
X107801580Y-119046857D01*
D11*
X72916894Y-78121219D02*
X72916894Y-78930742D01*
X72916894Y-78930742D02*
X72869275Y-79025980D01*
X72869275Y-79025980D02*
X72821656Y-79073600D01*
X72821656Y-79073600D02*
X72726418Y-79121219D01*
X72726418Y-79121219D02*
X72535942Y-79121219D01*
X72535942Y-79121219D02*
X72440704Y-79073600D01*
X72440704Y-79073600D02*
X72393085Y-79025980D01*
X72393085Y-79025980D02*
X72345466Y-78930742D01*
X72345466Y-78930742D02*
X72345466Y-78121219D01*
X71345466Y-79121219D02*
X71916894Y-79121219D01*
X71631180Y-79121219D02*
X71631180Y-78121219D01*
X71631180Y-78121219D02*
X71726418Y-78264076D01*
X71726418Y-78264076D02*
X71821656Y-78359314D01*
X71821656Y-78359314D02*
X71916894Y-78406933D01*
X70964513Y-78216457D02*
X70916894Y-78168838D01*
X70916894Y-78168838D02*
X70821656Y-78121219D01*
X70821656Y-78121219D02*
X70583561Y-78121219D01*
X70583561Y-78121219D02*
X70488323Y-78168838D01*
X70488323Y-78168838D02*
X70440704Y-78216457D01*
X70440704Y-78216457D02*
X70393085Y-78311695D01*
X70393085Y-78311695D02*
X70393085Y-78406933D01*
X70393085Y-78406933D02*
X70440704Y-78549790D01*
X70440704Y-78549790D02*
X71012132Y-79121219D01*
X71012132Y-79121219D02*
X70393085Y-79121219D01*
X87121904Y-111567419D02*
X87121904Y-112376942D01*
X87121904Y-112376942D02*
X87074285Y-112472180D01*
X87074285Y-112472180D02*
X87026666Y-112519800D01*
X87026666Y-112519800D02*
X86931428Y-112567419D01*
X86931428Y-112567419D02*
X86740952Y-112567419D01*
X86740952Y-112567419D02*
X86645714Y-112519800D01*
X86645714Y-112519800D02*
X86598095Y-112472180D01*
X86598095Y-112472180D02*
X86550476Y-112376942D01*
X86550476Y-112376942D02*
X86550476Y-111567419D01*
X86026666Y-112567419D02*
X85836190Y-112567419D01*
X85836190Y-112567419D02*
X85740952Y-112519800D01*
X85740952Y-112519800D02*
X85693333Y-112472180D01*
X85693333Y-112472180D02*
X85598095Y-112329323D01*
X85598095Y-112329323D02*
X85550476Y-112138847D01*
X85550476Y-112138847D02*
X85550476Y-111757895D01*
X85550476Y-111757895D02*
X85598095Y-111662657D01*
X85598095Y-111662657D02*
X85645714Y-111615038D01*
X85645714Y-111615038D02*
X85740952Y-111567419D01*
X85740952Y-111567419D02*
X85931428Y-111567419D01*
X85931428Y-111567419D02*
X86026666Y-111615038D01*
X86026666Y-111615038D02*
X86074285Y-111662657D01*
X86074285Y-111662657D02*
X86121904Y-111757895D01*
X86121904Y-111757895D02*
X86121904Y-111995990D01*
X86121904Y-111995990D02*
X86074285Y-112091228D01*
X86074285Y-112091228D02*
X86026666Y-112138847D01*
X86026666Y-112138847D02*
X85931428Y-112186466D01*
X85931428Y-112186466D02*
X85740952Y-112186466D01*
X85740952Y-112186466D02*
X85645714Y-112138847D01*
X85645714Y-112138847D02*
X85598095Y-112091228D01*
X85598095Y-112091228D02*
X85550476Y-111995990D01*
D10*
X164419580Y-107912142D02*
X164467200Y-107864523D01*
X164467200Y-107864523D02*
X164514819Y-107721666D01*
X164514819Y-107721666D02*
X164514819Y-107626428D01*
X164514819Y-107626428D02*
X164467200Y-107483571D01*
X164467200Y-107483571D02*
X164371961Y-107388333D01*
X164371961Y-107388333D02*
X164276723Y-107340714D01*
X164276723Y-107340714D02*
X164086247Y-107293095D01*
X164086247Y-107293095D02*
X163943390Y-107293095D01*
X163943390Y-107293095D02*
X163752914Y-107340714D01*
X163752914Y-107340714D02*
X163657676Y-107388333D01*
X163657676Y-107388333D02*
X163562438Y-107483571D01*
X163562438Y-107483571D02*
X163514819Y-107626428D01*
X163514819Y-107626428D02*
X163514819Y-107721666D01*
X163514819Y-107721666D02*
X163562438Y-107864523D01*
X163562438Y-107864523D02*
X163610057Y-107912142D01*
X164514819Y-108864523D02*
X164514819Y-108293095D01*
X164514819Y-108578809D02*
X163514819Y-108578809D01*
X163514819Y-108578809D02*
X163657676Y-108483571D01*
X163657676Y-108483571D02*
X163752914Y-108388333D01*
X163752914Y-108388333D02*
X163800533Y-108293095D01*
X164514819Y-109340714D02*
X164514819Y-109531190D01*
X164514819Y-109531190D02*
X164467200Y-109626428D01*
X164467200Y-109626428D02*
X164419580Y-109674047D01*
X164419580Y-109674047D02*
X164276723Y-109769285D01*
X164276723Y-109769285D02*
X164086247Y-109816904D01*
X164086247Y-109816904D02*
X163705295Y-109816904D01*
X163705295Y-109816904D02*
X163610057Y-109769285D01*
X163610057Y-109769285D02*
X163562438Y-109721666D01*
X163562438Y-109721666D02*
X163514819Y-109626428D01*
X163514819Y-109626428D02*
X163514819Y-109435952D01*
X163514819Y-109435952D02*
X163562438Y-109340714D01*
X163562438Y-109340714D02*
X163610057Y-109293095D01*
X163610057Y-109293095D02*
X163705295Y-109245476D01*
X163705295Y-109245476D02*
X163943390Y-109245476D01*
X163943390Y-109245476D02*
X164038628Y-109293095D01*
X164038628Y-109293095D02*
X164086247Y-109340714D01*
X164086247Y-109340714D02*
X164133866Y-109435952D01*
X164133866Y-109435952D02*
X164133866Y-109626428D01*
X164133866Y-109626428D02*
X164086247Y-109721666D01*
X164086247Y-109721666D02*
X164038628Y-109769285D01*
X164038628Y-109769285D02*
X163943390Y-109816904D01*
D12*
X103175000Y-60025000D02*
X103175000Y-67465000D01*
X103175000Y-60025000D02*
X108915000Y-60025000D01*
X103175000Y-67465000D02*
X108915000Y-67465000D01*
X108915000Y-60025000D02*
X108915000Y-67465000D01*
X104572000Y-114684000D02*
X104572000Y-122124000D01*
X104572000Y-114684000D02*
X110312000Y-114684000D01*
X104572000Y-122124000D02*
X110312000Y-122124000D01*
X110312000Y-114684000D02*
X110312000Y-122124000D01*
X70012500Y-74870000D02*
X70012500Y-77530000D01*
X70012500Y-74870000D02*
X82802500Y-74870000D01*
X70012500Y-77530000D02*
X82802500Y-77530000D01*
X82802500Y-74870000D02*
X82802500Y-77530000D01*
X85030000Y-74860000D02*
X87690000Y-74860000D01*
X85030000Y-110550000D02*
X85030000Y-74860000D01*
X85030000Y-110550000D02*
X87690000Y-110550000D01*
X87690000Y-110550000D02*
X87690000Y-74860000D01*
X161190000Y-112275000D02*
X161190000Y-104835000D01*
X166930000Y-104835000D02*
X161190000Y-104835000D01*
X166930000Y-112275000D02*
X161190000Y-112275000D01*
X166930000Y-112275000D02*
X166930000Y-104835000D01*
%LPC*%
D13*
X115570000Y-111125000D03*
D14*
X115570000Y-121285000D03*
D13*
X112120000Y-128220000D03*
X117120000Y-128220000D03*
X85344000Y-65709800D03*
D14*
X95504000Y-65709800D03*
D15*
X93980000Y-83185000D03*
D14*
X93980000Y-85725000D03*
X93980000Y-88265000D03*
X93980000Y-90805000D03*
X101600000Y-90805000D03*
X101600000Y-88265000D03*
X101600000Y-85725000D03*
X101600000Y-83185000D03*
D13*
X62865000Y-81280000D03*
D14*
X62865000Y-91440000D03*
D13*
X125476000Y-124333000D03*
D14*
X125476000Y-114173000D03*
D13*
X63754000Y-60071000D03*
D14*
X63754000Y-70231000D03*
D16*
X62865000Y-93685000D03*
D14*
X62865000Y-101305000D03*
D13*
X104260000Y-128245000D03*
X109260000Y-128245000D03*
D17*
X66802000Y-68707000D03*
D14*
X66802000Y-61087000D03*
D16*
X80645000Y-61595000D03*
D14*
X78105000Y-61595000D03*
X75565000Y-61595000D03*
X73025000Y-61595000D03*
X73025000Y-69215000D03*
X75565000Y-69215000D03*
X78105000Y-69215000D03*
X80645000Y-69215000D03*
D13*
X69850000Y-67270000D03*
X69850000Y-62270000D03*
D18*
X116210000Y-92695000D03*
D19*
X118750000Y-92695000D03*
X121290000Y-92695000D03*
D20*
X91760000Y-124460000D03*
D21*
X94300000Y-124460000D03*
X96840000Y-124460000D03*
X99380000Y-124460000D03*
X101920000Y-124460000D03*
X104460000Y-124460000D03*
X107000000Y-124460000D03*
X109540000Y-124460000D03*
X112080000Y-124460000D03*
X114620000Y-124460000D03*
D22*
X167010000Y-81995000D03*
D23*
X167010000Y-79495000D03*
D13*
X135590000Y-94570000D03*
D14*
X125430000Y-94570000D03*
D24*
X159010000Y-102205000D03*
D21*
X159010000Y-104745000D03*
X159010000Y-107285000D03*
X159010000Y-109825000D03*
X159010000Y-112365000D03*
X159010000Y-114905000D03*
X169170000Y-114905000D03*
X169170000Y-112365000D03*
X169170000Y-109825000D03*
X169170000Y-107285000D03*
X169170000Y-104745000D03*
X169170000Y-102205000D03*
D13*
X81875000Y-80010000D03*
X76875000Y-80010000D03*
D25*
X160800000Y-78995000D03*
D21*
X160800000Y-61215000D03*
X116000000Y-61215000D03*
X116010000Y-78985000D03*
D13*
X68010000Y-90995000D03*
X68010000Y-85995000D03*
D15*
X94234000Y-76581000D03*
D14*
X101854000Y-76581000D03*
D13*
X72390000Y-90805000D03*
D14*
X82550000Y-90805000D03*
D22*
X167010000Y-70495000D03*
D23*
X167010000Y-67995000D03*
D13*
X85344000Y-62357000D03*
D14*
X95504000Y-62357000D03*
D26*
X155630000Y-113195000D03*
X155630000Y-103035000D03*
X155630000Y-100495000D03*
X148010000Y-100495000D03*
X148010000Y-103035000D03*
X148010000Y-113195000D03*
D13*
X74930000Y-73025000D03*
D14*
X64770000Y-73025000D03*
D13*
X104902000Y-86741000D03*
D14*
X104902000Y-76581000D03*
D13*
X126111000Y-101854000D03*
D14*
X126111000Y-112014000D03*
D27*
X122780000Y-97300000D03*
D14*
X115160000Y-97300000D03*
D13*
X73660000Y-81280000D03*
X68660000Y-81280000D03*
D27*
X122780000Y-106190000D03*
D14*
X115160000Y-106190000D03*
D13*
X85090000Y-117983000D03*
D14*
X85090000Y-128143000D03*
D28*
X111010000Y-103245000D03*
D19*
X108470000Y-103245000D03*
X105930000Y-103245000D03*
D27*
X137912000Y-121021000D03*
D14*
X137912000Y-118481000D03*
X137912000Y-115941000D03*
X137912000Y-113401000D03*
X130292000Y-113401000D03*
X130292000Y-115941000D03*
X130292000Y-118481000D03*
X130292000Y-121021000D03*
D28*
X137800000Y-87745000D03*
D19*
X135260000Y-87745000D03*
X132720000Y-87745000D03*
D26*
X149820000Y-95345000D03*
X149820000Y-85185000D03*
X149820000Y-82645000D03*
X142200000Y-82645000D03*
X142200000Y-85185000D03*
X142200000Y-95345000D03*
D27*
X85090000Y-73025000D03*
D14*
X77470000Y-73025000D03*
D16*
X153010000Y-84685000D03*
D14*
X153010000Y-92305000D03*
D13*
X112522000Y-121285000D03*
D14*
X112522000Y-111125000D03*
D13*
X85344000Y-69138800D03*
D14*
X95504000Y-69138800D03*
D13*
X93218000Y-73533000D03*
D14*
X103378000Y-73533000D03*
D29*
X149306000Y-124293000D03*
D30*
X149306000Y-121793000D03*
X149306000Y-119293000D03*
D31*
X124260000Y-61937323D03*
D32*
X124260000Y-66937323D03*
D13*
X112140000Y-84075000D03*
D14*
X112140000Y-73915000D03*
D29*
X167010000Y-96745000D03*
D30*
X167010000Y-94245000D03*
X167010000Y-91745000D03*
X167010000Y-89245000D03*
D13*
X107950000Y-69138800D03*
D14*
X97790000Y-69138800D03*
D13*
X100290000Y-79883000D03*
X95290000Y-79883000D03*
X111506000Y-99695000D03*
D14*
X111506000Y-89535000D03*
D13*
X100340000Y-97745000D03*
D14*
X90180000Y-97745000D03*
D16*
X144780000Y-108585000D03*
D14*
X144780000Y-116205000D03*
D15*
X145640000Y-97745000D03*
D14*
X153260000Y-97745000D03*
D27*
X141722000Y-108545000D03*
D14*
X141722000Y-106005000D03*
X141722000Y-103465000D03*
X141722000Y-100925000D03*
X134102000Y-100925000D03*
X134102000Y-103465000D03*
X134102000Y-106005000D03*
X134102000Y-108545000D03*
D33*
X116430000Y-101745000D03*
X118970000Y-101745000D03*
X121510000Y-101745000D03*
D13*
X122428000Y-114173000D03*
D14*
X122428000Y-124333000D03*
D27*
X103010000Y-103245000D03*
D13*
X98010000Y-103245000D03*
X82550000Y-86995000D03*
D14*
X72390000Y-86995000D03*
D13*
X141478000Y-117915000D03*
D14*
X141478000Y-128075000D03*
D16*
X144780000Y-120269000D03*
D14*
X144780000Y-127889000D03*
D13*
X138684000Y-128016000D03*
D14*
X128524000Y-128016000D03*
D13*
X108204000Y-86741000D03*
D14*
X108204000Y-76581000D03*
D28*
X130050000Y-87745000D03*
D19*
X127510000Y-87745000D03*
X124970000Y-87745000D03*
D13*
X108204000Y-89535000D03*
D14*
X108204000Y-99695000D03*
D34*
X61435000Y-104140000D03*
D35*
X63500000Y-104140000D03*
X66040000Y-104140000D03*
X68580000Y-104140000D03*
X71120000Y-104140000D03*
X73660000Y-104140000D03*
X76200000Y-104140000D03*
X78740000Y-104140000D03*
X81280000Y-104140000D03*
X81280000Y-106680000D03*
X81280000Y-109220000D03*
X81280000Y-111760000D03*
X81280000Y-114300000D03*
X81280000Y-116840000D03*
X81280000Y-119380000D03*
X78740000Y-119380000D03*
X76200000Y-119380000D03*
X73660000Y-119380000D03*
X71120000Y-119380000D03*
X68580000Y-119380000D03*
X66040000Y-119380000D03*
X63500000Y-119380000D03*
D34*
X61435000Y-119380000D03*
D13*
X118618000Y-121285000D03*
D14*
X118618000Y-111125000D03*
D13*
X88265000Y-114173000D03*
D14*
X88265000Y-124333000D03*
D13*
X130510000Y-108495000D03*
X130510000Y-103495000D03*
D15*
X94260000Y-111995000D03*
D14*
X94260000Y-114535000D03*
X94260000Y-117075000D03*
X94260000Y-119615000D03*
X101880000Y-119615000D03*
X101880000Y-117075000D03*
X101880000Y-114535000D03*
X101880000Y-111995000D03*
D13*
X81885800Y-83515200D03*
X76885800Y-83515200D03*
X90170000Y-94615000D03*
D14*
X100330000Y-94615000D03*
D13*
X138760000Y-97745000D03*
X138760000Y-92745000D03*
X124989600Y-128219200D03*
X119989600Y-128219200D03*
X101170000Y-128245000D03*
D14*
X91010000Y-128245000D03*
D16*
X66040000Y-93685000D03*
D14*
X66040000Y-101305000D03*
D17*
X112140000Y-71375000D03*
D14*
X112140000Y-61215000D03*
D13*
X125430000Y-97745000D03*
D14*
X135590000Y-97745000D03*
D13*
X128524000Y-124841000D03*
D14*
X138684000Y-124841000D03*
D16*
X90170000Y-83185000D03*
D14*
X90170000Y-90805000D03*
D31*
X124260000Y-73437323D03*
D32*
X124260000Y-78437323D03*
D13*
X104220000Y-107950000D03*
X109220000Y-107950000D03*
X106045000Y-66245000D03*
X106045000Y-61245000D03*
X107442000Y-120904000D03*
X107442000Y-115904000D03*
D20*
X81502500Y-76200000D03*
D21*
X78962500Y-76200000D03*
X76422500Y-76200000D03*
X73882500Y-76200000D03*
X71342500Y-76200000D03*
D25*
X86360000Y-76200000D03*
D21*
X86360000Y-78740000D03*
X86360000Y-81280000D03*
X86360000Y-83820000D03*
X86360000Y-86360000D03*
X86360000Y-88900000D03*
X86360000Y-91440000D03*
X86360000Y-93980000D03*
X86360000Y-96520000D03*
X86360000Y-99060000D03*
X86360000Y-101600000D03*
X86360000Y-104140000D03*
X86360000Y-106680000D03*
X86360000Y-109220000D03*
D13*
X164060000Y-106055000D03*
X164060000Y-111055000D03*
%LPD*%
M02*
